SplineFontDB: 3.2
FontName: Paribartan
FullName: Paribartan 
FamilyName: Paribartan
Weight: Regular
Copyright: Copyright 2024 The Paribartan Project Authors (github.com/mitradranirban/paribartan)
Version: 0.001
ItalicAngle: 0
UnderlinePosition: 0
UnderlineWidth: 0
Ascent: 800
Descent: 200
InvalidEm: 1
UFOAscent: 800
UFODescent: -250
LayerCount: 2
Layer: 0 0 "Back" 1
Layer: 1 0 "Fore" 0
StyleMap: 0x0000
FSType: 0
OS2Version: 0
OS2_WeightWidthSlopeOnly: 0
OS2_UseTypoMetrics: 0
CreationTime: 1733728903
ModificationTime: 1734362912
PfmFamily: 17
TTFWeight: 400
TTFWidth: 5
LineGap: 0
VLineGap: 0
OS2TypoAscent: 1200
OS2TypoAOffset: 0
OS2TypoDescent: -400
OS2TypoDOffset: 0
OS2TypoLinegap: 0
OS2WinAscent: 1160
OS2WinAOffset: 0
OS2WinDescent: 348
OS2WinDOffset: 0
HheadAscent: 1200
HheadAOffset: 0
HheadDescent: -400
HheadDOffset: 0
OS2CapHeight: 750
OS2XHeight: 500
OS2Vendor: 'anir'
MarkAttachClasses: 1
DEI: 91125
LangName: 1033 "" "" "" "" "" "" "" "" "Dr Anirban Mitra" "Dr Anirban Mitra" "Variable Color Bengali Font" "https://fonts.atipra.in" "https://github.com/mitradranirban" "This Font Software is licensed under the SIL Open Font License, Version 1.1. This license is available with a FAQ at: https://openfontlicense.org+ACIA" " https://openfontlicense.org"
PickledDataWithLists: "(dp0
Vxyz.fontra.lineMetricsHorizontalLayout.zones
p1
(dp2
Vascender
p3
I16
sVbaseline
p4
I-16
sVcapHeight
p5
I16
sVdescender
p6
I-16
sVxHeight
p7
I16
ss."
Encoding: UnicodeBmp
Compacted: 1
UnicodeInterp: none
NameList: AGL For New Fonts
DisplaySize: -128
AntiAlias: 1
FitToEm: 1
WidthSeparation: 150
WinInfo: 330 10 4
BeginPrivate: 0
EndPrivate
Grid
-1000 -402 m 0
 2000 -402 l 1024
-1000 510.5 m 0
 2000 510.5 l 1024
  Named: "XHGHT"
-982 752 m 0
 2018 752 l 1024
  Named: "CAPS"
-1000 1202 m 0
 2000 1202 l 1024
EndSplineSet
BeginChars: 65537 396

StartChar: exclam
Encoding: 33 33 0
Width: 252
VWidth: 0
Flags: HW
HStem: 36.7 127.8<57.6 194.4>
VStem: 57.6 136.8<36.7 164.5 270.7 733.3>
LayerCount: 2
Fore
SplineSet
59.849609375 731.049804688 m 1
 59.849609375 272.950195312 l 1
 192.150390625 272.950195312 l 1
 192.150390625 731.049804688 l 1
 59.849609375 731.049804688 l 1
55.349609375 270.700195312 m 2
 55.349609375 733.299804688 l 2
 55.349609375 734.541992188 56.3583984375 735.549804688 57.599609375 735.549804688 c 2
 194.400390625 735.549804688 l 2
 195.641601562 735.549804688 196.650390625 734.541992188 196.650390625 733.299804688 c 2
 196.650390625 270.700195312 l 2
 196.650390625 269.458007812 195.641601562 268.450195312 194.400390625 268.450195312 c 2
 57.599609375 268.450195312 l 2
 56.3583984375 268.450195312 55.349609375 269.458007812 55.349609375 270.700195312 c 2
59.849609375 162.25 m 1
 59.849609375 38.9501953125 l 1
 192.150390625 38.9501953125 l 1
 192.150390625 162.25 l 1
 59.849609375 162.25 l 1
55.349609375 36.7001953125 m 2
 55.349609375 164.5 l 2
 55.349609375 165.7421875 56.3583984375 166.75 57.599609375 166.75 c 2
 194.400390625 166.75 l 2
 195.641601562 166.75 196.650390625 165.7421875 196.650390625 164.5 c 2
 196.650390625 36.7001953125 l 2
 196.650390625 35.4580078125 195.641601562 34.4501953125 194.400390625 34.4501953125 c 2
 57.599609375 34.4501953125 l 2
 56.3583984375 34.4501953125 55.349609375 35.4580078125 55.349609375 36.7001953125 c 2
EndSplineSet
EndChar

StartChar: quotedbl
Encoding: 34 34 1
Width: 452
VWidth: 0
Flags: HW
HStem: 544.85 231.3<67.6 204.4 247.6 384.4>
VStem: 67.6 136.8<544.85 776.15> 247.6 136.8<544.85 776.15>
LayerCount: 2
Fore
SplineSet
249.849609375 773.900390625 m 1
 249.849609375 547.099609375 l 1
 382.150390625 547.099609375 l 1
 382.150390625 773.900390625 l 1
 249.849609375 773.900390625 l 1
245.349609375 544.849609375 m 2
 245.349609375 776.150390625 l 2
 245.349609375 777.391601562 246.358398438 778.400390625 247.599609375 778.400390625 c 2
 384.400390625 778.400390625 l 2
 385.641601562 778.400390625 386.650390625 777.391601562 386.650390625 776.150390625 c 2
 386.650390625 544.849609375 l 2
 386.650390625 543.608398438 385.641601562 542.599609375 384.400390625 542.599609375 c 2
 247.599609375 542.599609375 l 2
 246.358398438 542.599609375 245.349609375 543.608398438 245.349609375 544.849609375 c 2
69.849609375 773.900390625 m 1
 69.849609375 547.099609375 l 1
 202.150390625 547.099609375 l 1
 202.150390625 773.900390625 l 1
 69.849609375 773.900390625 l 1
65.349609375 544.849609375 m 2
 65.349609375 776.150390625 l 2
 65.349609375 777.391601562 66.3583984375 778.400390625 67.599609375 778.400390625 c 2
 204.400390625 778.400390625 l 2
 205.641601562 778.400390625 206.650390625 777.391601562 206.650390625 776.150390625 c 2
 206.650390625 544.849609375 l 2
 206.650390625 543.608398438 205.641601562 542.599609375 204.400390625 542.599609375 c 2
 67.599609375 542.599609375 l 2
 66.3583984375 542.599609375 65.349609375 543.608398438 65.349609375 544.849609375 c 2
EndSplineSet
EndChar

StartChar: numbersign
Encoding: 35 35 2
Width: 644
VWidth: 0
Flags: HW
HStem: 236.45 136.8<82.2 91.0608 252.046 361.061 522.046 571.8> 461.45 136.8<82.2 130.84 291.825 400.84 561.825 571.8>
LayerCount: 2
Fore
SplineSet
155.025390625 596 m 2
 84.4501953125 596 l 1
 84.4501953125 463.700195312 l 1
 130.83984375 463.700195312 l 2
 132.08203125 463.700195312 133.08984375 462.69140625 133.08984375 461.450195312 c 0
 133.08984375 461.315429688 133.078125 461.184570312 133.055664062 461.056640625 c 2
 117.461914062 372.856445312 l 2
 117.275390625 371.801757812 116.353515625 371 115.24609375 371 c 2
 84.4501953125 371 l 1
 84.4501953125 238.700195312 l 1
 91.060546875 238.700195312 l 2
 92.302734375 238.700195312 93.310546875 237.69140625 93.310546875 236.450195312 c 0
 93.310546875 236.315429688 93.298828125 236.184570312 93.2763671875 236.056640625 c 2
 83.0830078125 178.400390625 l 1
 215.3125 178.400390625 l 1
 225.645507812 236.84375 l 2
 225.83203125 237.8984375 226.752929688 238.700195312 227.860351562 238.700195312 c 2
 361.060546875 238.700195312 l 2
 362.302734375 238.700195312 363.310546875 237.69140625 363.310546875 236.450195312 c 0
 363.310546875 236.315429688 363.298828125 236.184570312 363.276367188 236.056640625 c 2
 353.083007812 178.400390625 l 1
 485.3125 178.400390625 l 1
 495.645507812 236.84375 l 2
 495.83203125 237.8984375 496.752929688 238.700195312 497.860351562 238.700195312 c 2
 569.549804688 238.700195312 l 1
 569.549804688 371 l 1
 522.046875 371 l 2
 520.8046875 371 519.796875 372.0078125 519.796875 373.25 c 0
 519.796875 373.384765625 519.80859375 373.515625 519.831054688 373.643554688 c 2
 535.423828125 461.84375 l 2
 535.610351562 462.8984375 536.532226562 463.700195312 537.639648438 463.700195312 c 2
 569.549804688 463.700195312 l 1
 569.549804688 596 l 1
 561.825195312 596 l 2
 560.583984375 596 559.575195312 597.0078125 559.575195312 598.25 c 0
 559.575195312 598.384765625 559.586914062 598.515625 559.609375 598.643554688 c 2
 570.916992188 662.599609375 l 1
 438.6875 662.599609375 l 1
 427.241210938 597.856445312 l 2
 427.0546875 596.801757812 426.1328125 596 425.025390625 596 c 2
 291.825195312 596 l 2
 290.583984375 596 289.575195312 597.0078125 289.575195312 598.25 c 0
 289.575195312 598.384765625 289.586914062 598.515625 289.609375 598.643554688 c 2
 300.916992188 662.599609375 l 1
 168.6875 662.599609375 l 1
 157.241210938 597.856445312 l 2
 157.0546875 596.801757812 156.1328125 596 155.025390625 596 c 2
166.799804688 667.099609375 m 2
 303.599609375 667.099609375 l 2
 304.841796875 667.099609375 305.849609375 666.091796875 305.849609375 664.849609375 c 0
 305.849609375 664.715820312 305.837890625 664.583984375 305.815429688 664.456054688 c 2
 294.508789062 600.5 l 1
 423.137695312 600.5 l 1
 434.583984375 665.244140625 l 2
 434.770507812 666.297851562 435.692382812 667.099609375 436.799804688 667.099609375 c 2
 573.599609375 667.099609375 l 2
 574.841796875 667.099609375 575.849609375 666.091796875 575.849609375 664.849609375 c 0
 575.849609375 664.715820312 575.837890625 664.583984375 575.815429688 664.456054688 c 2
 564.508789062 600.5 l 1
 571.799804688 600.5 l 2
 573.041992188 600.5 574.049804688 599.4921875 574.049804688 598.25 c 2
 574.049804688 461.450195312 l 2
 574.049804688 460.208007812 573.041992188 459.200195312 571.799804688 459.200195312 c 2
 539.52734375 459.200195312 l 1
 524.729492188 375.5 l 1
 571.799804688 375.5 l 2
 573.041992188 375.5 574.049804688 374.4921875 574.049804688 373.25 c 2
 574.049804688 236.450195312 l 2
 574.049804688 235.208007812 573.041992188 234.200195312 571.799804688 234.200195312 c 2
 499.748046875 234.200195312 l 1
 489.416015625 175.755859375 l 2
 489.229492188 174.702148438 488.307617188 173.900390625 487.200195312 173.900390625 c 2
 350.400390625 173.900390625 l 2
 349.158203125 173.900390625 348.150390625 174.908203125 348.150390625 176.150390625 c 0
 348.150390625 176.284179688 348.162109375 176.416015625 348.184570312 176.543945312 c 2
 358.377929688 234.200195312 l 1
 229.748046875 234.200195312 l 1
 219.416015625 175.755859375 l 2
 219.229492188 174.702148438 218.307617188 173.900390625 217.200195312 173.900390625 c 2
 80.400390625 173.900390625 l 2
 79.158203125 173.900390625 78.150390625 174.908203125 78.150390625 176.150390625 c 0
 78.150390625 176.284179688 78.162109375 176.416015625 78.1845703125 176.543945312 c 2
 88.3779296875 234.200195312 l 1
 82.2001953125 234.200195312 l 2
 80.9580078125 234.200195312 79.9501953125 235.208007812 79.9501953125 236.450195312 c 2
 79.9501953125 373.25 l 2
 79.9501953125 374.4921875 80.9580078125 375.5 82.2001953125 375.5 c 2
 113.359375 375.5 l 1
 128.157226562 459.200195312 l 1
 82.2001953125 459.200195312 l 2
 80.9580078125 459.200195312 79.9501953125 460.208007812 79.9501953125 461.450195312 c 2
 79.9501953125 598.25 l 2
 79.9501953125 599.4921875 80.9580078125 600.5 82.2001953125 600.5 c 2
 153.137695312 600.5 l 1
 164.583984375 665.244140625 l 2
 164.770507812 666.297851562 165.692382812 667.099609375 166.799804688 667.099609375 c 2
383.359375 375.5 m 1
 398.157226562 459.200195312 l 1
 269.52734375 459.200195312 l 1
 254.729492188 375.5 l 1
 383.359375 375.5 l 1
385.24609375 371 m 2
 252.046875 371 l 2
 250.8046875 371 249.796875 372.0078125 249.796875 373.25 c 0
 249.796875 373.384765625 249.80859375 373.515625 249.831054688 373.643554688 c 2
 265.423828125 461.84375 l 2
 265.610351562 462.8984375 266.532226562 463.700195312 267.639648438 463.700195312 c 2
 400.83984375 463.700195312 l 2
 402.08203125 463.700195312 403.08984375 462.69140625 403.08984375 461.450195312 c 0
 403.08984375 461.315429688 403.078125 461.184570312 403.055664062 461.056640625 c 2
 387.461914062 372.856445312 l 2
 387.275390625 371.801757812 386.353515625 371 385.24609375 371 c 2
EndSplineSet
EndChar

StartChar: dollar
Encoding: 36 36 3
Width: 512
VWidth: 0
Flags: HW
VStem: 254.65 189.45<181.956 314.024> 254.65 71.1<-121.4 42.089 440.805 569.608 739.44 969.4>
LayerCount: 2
Fore
SplineSet
207.091796875 38.7958984375 m 0
 223.0859375 38.7958984375 238.522460938 40.64453125 254.138671875 44.2802734375 c 0
 254.302734375 44.318359375 254.473632812 44.3388671875 254.650390625 44.3388671875 c 0
 255.891601562 44.3388671875 256.900390625 43.3310546875 256.900390625 42.0888671875 c 2
 256.900390625 -119.150390625 l 1
 323.5 -119.150390625 l 1
 323.5 71.3818359375 l 2
 323.5 72.501953125 324.23828125 73.1005859375 325.05078125 73.583984375 c 0
 363.469726562 96.5166015625 393.016601562 125.48828125 413.813476562 160.545898438 c 0
 431.681640625 190.921875 440.967773438 219.067382812 441.8515625 244.977539062 c 0
 441.90234375 246.475585938 441.927734375 247.963867188 441.927734375 249.442382812 c 0
 441.927734375 273.588867188 435.149414062 295.291992188 421.555664062 314.711914062 c 0
 395.671875 351.688476562 364.733398438 376.895507812 324.595703125 400.958984375 c 0
 323.939453125 401.352539062 323.5 402.0703125 323.5 402.889648438 c 2
 323.5 596.76953125 l 2
 323.5 598.01171875 324.5078125 599.01953125 325.807617188 599.01953125 c 0
 350.297851562 598.404296875 373.369140625 587.493164062 389.961914062 574.092773438 c 1
 455.16796875 682.76953125 l 1
 451.389648438 685.890625 440.547851562 692.120117188 437.559570312 695.109375 c 0
 406.12109375 723.323242188 370.68359375 737.265625 330.846679688 737.265625 c 0
 329.177734375 737.265625 327.500976562 737.241210938 325.75 737.190429688 c 0
 324.5078125 737.190429688 323.5 738.198242188 323.5 739.440429688 c 2
 323.5 967.150390625 l 1
 256.900390625 967.150390625 l 1
 256.900390625 724.615234375 l 2
 256.900390625 723.643554688 256.282226562 722.814453125 255.416992188 722.5 c 0
 198.419921875 701.793945312 154.779296875 666.44921875 124.2734375 616.333007812 c 0
 105.821289062 585.9765625 95.76953125 556.329101562 93.99609375 527.360351562 c 0
 93.7734375 523.73046875 93.662109375 520.139648438 93.662109375 516.587890625 c 0
 93.662109375 491.723632812 99.0927734375 468.728515625 109.954101562 447.5234375 c 0
 122.427734375 423.169921875 139.352539062 401.19140625 160.76953125 381.55859375 c 0
 182.13671875 361.97265625 207.374023438 344.134765625 236.497070312 328.057617188 c 0
 243.154296875 326.952148438 249.461914062 325.321289062 255.416015625 323.163085938 c 0
 256.28125 322.849609375 256.900390625 322.020507812 256.900390625 321.047851562 c 2
 256.900390625 186.0078125 l 2
 256.900390625 185.048828125 256.299804688 184.229492188 255.454101562 183.905273438 c 0
 245.065429688 179.922851562 230.598632812 176.837890625 217.40234375 176.837890625 c 0
 199.8984375 176.837890625 183.109375 181.497070312 167.125 190.750976562 c 0
 159.797851562 195.461914062 153.758789062 199.53515625 149.10546875 202.919921875 c 1
 83.83203125 94.130859375 l 1
 87.6103515625 91.0087890625 98.4521484375 84.779296875 101.440429688 81.791015625 c 0
 133.161132812 53.0068359375 168.256835938 38.7958984375 207.091796875 38.7958984375 c 0
252.400390625 39.2734375 m 1
 237.369140625 35.9765625 222.498046875 34.2958984375 207.091796875 34.2958984375 c 0
 167.083007812 34.2958984375 130.68359375 49.1865234375 98.259765625 78.609375 c 0
 95.25 81.619140625 82.4072265625 89.0615234375 79.359375 92.109375 c 0
 78.9521484375 92.5166015625 78.7001953125 93.0791015625 78.7001953125 93.7001953125 c 0
 78.7001953125 94.1220703125 78.81640625 94.517578125 79.01953125 94.85546875 c 2
 146.51953125 207.35546875 l 2
 146.912109375 208.010742188 147.630859375 208.450195312 148.450195312 208.450195312 c 0
 148.955078125 208.450195312 149.421875 208.283203125 149.797851562 208.000976562 c 0
 154.52734375 204.454101562 161.002929688 200.030273438 169.375 194.6484375 c 0
 184.740234375 185.752929688 200.719726562 181.337890625 217.40234375 181.337890625 c 0
 229.2890625 181.337890625 242.796875 184.068359375 252.400390625 187.568359375 c 1
 252.400390625 319.455078125 l 1
 247.043945312 321.295898438 241.374023438 322.704101562 235.38671875 323.6796875 c 0
 235.12890625 323.720703125 234.88671875 323.806640625 234.666992188 323.927734375 c 0
 205.131835938 340.202148438 179.481445312 358.302734375 157.73046875 378.241210938 c 0
 135.947265625 398.208984375 118.672851562 420.629882812 105.946289062 445.4765625 c 0
 94.7568359375 467.321289062 89.162109375 491.051757812 89.162109375 516.587890625 c 0
 89.162109375 520.235351562 89.2763671875 523.918945312 89.50390625 527.639648438 c 0
 91.3310546875 557.470703125 101.678710938 587.823242188 120.426757812 618.666992188 c 0
 151.190429688 669.208007812 195.25390625 705.091796875 252.400390625 726.188476562 c 1
 252.400390625 969.400390625 l 2
 252.400390625 970.641601562 253.408203125 971.650390625 254.650390625 971.650390625 c 2
 325.75 971.650390625 l 2
 326.9921875 971.650390625 328 970.641601562 328 969.400390625 c 2
 328 741.7421875 l 1
 328.951171875 741.7578125 330.846679688 741.765625 330.846679688 741.765625 c 2
 371.802734375 741.765625 408.567382812 727.1640625 440.740234375 698.291015625 c 0
 443.75 695.28125 456.592773438 687.837890625 459.640625 684.791015625 c 0
 460.047851562 684.383789062 460.299804688 683.821289062 460.299804688 683.200195312 c 0
 460.299804688 682.77734375 460.18359375 682.3828125 459.98046875 682.044921875 c 2
 392.48046875 569.544921875 l 2
 392.087890625 568.888671875 391.369140625 568.450195312 390.549804688 568.450195312 c 0
 390.002929688 568.450195312 389.500976562 568.645507812 389.111328125 568.970703125 c 0
 372.834960938 582.534179688 351.913085938 593.236328125 328 594.43359375 c 1
 328 404.163085938 l 1
 368.147460938 379.962890625 399.255859375 354.415039062 425.244140625 317.288085938 c 0
 439.354492188 297.130859375 446.427734375 274.462890625 446.427734375 249.442382812 c 0
 446.427734375 247.911132812 446.401367188 246.37109375 446.348632812 244.822265625 c 0
 445.431640625 217.932617188 435.818359375 189.078125 417.686523438 158.254882812 c 0
 396.6015625 122.7109375 366.666015625 93.3125 328 70.10546875 c 1
 328 -121.400390625 l 2
 328 -122.641601562 326.9921875 -123.650390625 325.75 -123.650390625 c 2
 254.650390625 -123.650390625 l 2
 253.408203125 -123.650390625 252.400390625 -122.641601562 252.400390625 -121.400390625 c 2
 252.400390625 39.2734375 l 1
230.137695312 508.176757812 m 0
 230.137695312 485.975585938 241.205078125 460.381835938 252.400390625 446.736328125 c 1
 252.400390625 563.904296875 l 1
 248.662109375 559.633789062 245.2578125 554.918945312 242.185546875 549.752929688 c 0
 234.137695312 536.5546875 230.137695312 522.715820312 230.137695312 508.176757812 c 0
256.900390625 569.608398438 m 2
 256.900390625 440.8046875 l 2
 256.900390625 439.563476562 255.891601562 438.5546875 254.650390625 438.5546875 c 0
 254.010742188 438.5546875 253.43359375 438.822265625 253.024414062 439.25 c 0
 239.08203125 453.826171875 225.637695312 481.841796875 225.637695312 508.176757812 c 0
 225.637695312 523.569335938 229.877929688 538.211914062 238.314453125 552.047851562 c 0
 242.584960938 559.229492188 247.499023438 565.618164062 253.056640625 571.196289062 c 0
 253.463867188 571.60546875 254.02734375 571.858398438 254.650390625 571.858398438 c 0
 255.891601562 571.858398438 256.900390625 570.849609375 256.900390625 569.608398438 c 2
EndSplineSet
EndChar

StartChar: percent
Encoding: 37 37 4
Width: 691
VWidth: 0
Flags: HW
HStem: 110.55 67.5<482.919 504.181> 274.35 67.5<482.919 504.181> 471.45 67.5<208.419 229.681> 635.25 67.5<208.419 229.681>
VStem: 102.05 68.4<548.251 625.45> 267.65 68.4<548.79 625.078> 376.55 68.4<187.351 264.55> 542.15 68.4<187.89 264.178>
LayerCount: 2
Fore
SplineSet
210.135742188 473.700195312 m 1
 219.950195312 473.700195312 l 2
 283.526367188 473.700195312 333.799804688 523.995117188 333.799804688 586.650390625 c 0
 333.799804688 650.217773438 283.518554688 700.5 219.950195312 700.5 c 2
 210.135742188 700.5 l 1
 151.033203125 696.045898438 104.299804688 646.629882812 104.299804688 586.650390625 c 0
 104.299804688 526.686523438 151.009765625 478.155273438 210.135742188 473.700195312 c 1
219.950195312 469.200195312 m 2
 210.049804688 469.200195312 l 2
 209.993164062 469.200195312 209.936523438 469.202148438 209.880859375 469.206054688 c 0
 148.446289062 473.791015625 99.7998046875 524.2421875 99.7998046875 586.650390625 c 0
 99.7998046875 649.041992188 148.421875 700.407226562 209.880859375 704.994140625 c 0
 209.936523438 704.998046875 209.993164062 705 210.049804688 705 c 2
 219.950195312 705 l 2
 285.981445312 705 338.299804688 652.681640625 338.299804688 586.650390625 c 0
 338.299804688 521.504882812 285.973632812 469.200195312 219.950195312 469.200195312 c 2
219.049804688 633 m 0
 215.829101562 633 212.400390625 632.16796875 208.796875 631.266601562 c 0
 208.622070312 631.223632812 208.438476562 631.200195312 208.25 631.200195312 c 0
 207.701171875 631.200195312 207.197265625 631.397460938 206.806640625 631.724609375 c 0
 186.4453125 626.74609375 172.700195312 608.3984375 172.700195312 586.650390625 c 0
 172.700195312 564.935546875 186.393554688 547.413085938 206.803710938 542.473632812 c 0
 207.1953125 542.801757812 207.700195312 543 208.25 543 c 0
 208.438476562 543 208.622070312 542.9765625 208.796875 542.932617188 c 0
 212.400390625 542.032226562 215.829101562 541.200195312 219.049804688 541.200195312 c 0
 222.270507812 541.200195312 225.69921875 542.032226562 229.303710938 542.932617188 c 0
 229.478515625 542.9765625 229.661132812 543 229.849609375 543 c 0
 230.400390625 543 230.904296875 542.801757812 231.295898438 542.473632812 c 0
 251.70703125 547.413085938 265.400390625 564.935546875 265.400390625 586.650390625 c 0
 265.400390625 608.3984375 251.655273438 626.74609375 231.293945312 631.724609375 c 0
 230.90234375 631.397460938 230.399414062 631.200195312 229.849609375 631.200195312 c 0
 229.661132812 631.200195312 229.478515625 631.223632812 229.303710938 631.266601562 c 0
 225.69921875 632.16796875 222.270507812 633 219.049804688 633 c 0
484.635742188 112.799804688 m 1
 494.450195312 112.799804688 l 2
 558.026367188 112.799804688 608.299804688 163.095703125 608.299804688 225.75 c 0
 608.299804688 289.318359375 558.018554688 339.599609375 494.450195312 339.599609375 c 2
 484.635742188 339.599609375 l 1
 425.533203125 335.145507812 378.799804688 285.73046875 378.799804688 225.75 c 0
 378.799804688 165.786132812 425.509765625 117.254882812 484.635742188 112.799804688 c 1
494.450195312 108.299804688 m 2
 484.549804688 108.299804688 l 2
 484.493164062 108.299804688 484.436523438 108.301757812 484.380859375 108.306640625 c 0
 422.946289062 112.890625 374.299804688 163.342773438 374.299804688 225.75 c 0
 374.299804688 288.141601562 422.921875 339.506835938 484.380859375 344.09375 c 0
 484.436523438 344.09765625 484.493164062 344.099609375 484.549804688 344.099609375 c 2
 494.450195312 344.099609375 l 2
 560.481445312 344.099609375 612.799804688 291.782226562 612.799804688 225.75 c 0
 612.799804688 160.604492188 560.473632812 108.299804688 494.450195312 108.299804688 c 2
493.549804688 272.099609375 m 0
 490.329101562 272.099609375 486.900390625 271.267578125 483.296875 270.3671875 c 0
 483.122070312 270.323242188 482.938476562 270.299804688 482.75 270.299804688 c 0
 482.201171875 270.299804688 481.697265625 270.497070312 481.306640625 270.82421875 c 0
 460.9453125 265.845703125 447.200195312 247.498046875 447.200195312 225.75 c 0
 447.200195312 204.036132812 460.893554688 186.512695312 481.303710938 181.573242188 c 0
 481.6953125 181.90234375 482.200195312 182.099609375 482.75 182.099609375 c 0
 482.938476562 182.099609375 483.122070312 182.077148438 483.296875 182.033203125 c 0
 486.900390625 181.131835938 490.329101562 180.299804688 493.549804688 180.299804688 c 0
 496.770507812 180.299804688 500.19921875 181.131835938 503.803710938 182.033203125 c 0
 503.978515625 182.077148438 504.161132812 182.099609375 504.349609375 182.099609375 c 0
 504.900390625 182.099609375 505.404296875 181.90234375 505.795898438 181.573242188 c 0
 526.20703125 186.512695312 539.900390625 204.036132812 539.900390625 225.75 c 0
 539.900390625 247.498046875 526.155273438 265.845703125 505.793945312 270.82421875 c 0
 505.40234375 270.497070312 504.899414062 270.299804688 504.349609375 270.299804688 c 0
 504.161132812 270.299804688 503.978515625 270.323242188 503.803710938 270.3671875 c 0
 500.19921875 271.267578125 496.770507812 272.099609375 493.549804688 272.099609375 c 0
608.375 717.223632812 m 1
 516.875 769.87890625 l 1
 82.625 17.7763671875 l 1
 174.125 -34.87890625 l 1
 608.375 717.223632812 l 1
613.700195312 718.049804688 m 0
 613.700195312 717.641601562 613.590820312 717.2578125 613.400390625 716.927734375 c 2
 176.900390625 -39.072265625 l 2
 176.510742188 -39.74609375 175.783203125 -40.2001953125 174.950195312 -40.2001953125 c 0
 174.541992188 -40.2001953125 174.16015625 -40.091796875 173.830078125 -39.9013671875 c 2
 78.4296875 14.998046875 l 2
 77.7548828125 15.38671875 77.2998046875 16.1162109375 77.2998046875 16.9501953125 c 0
 77.2998046875 17.3583984375 77.4091796875 17.7421875 77.599609375 18.072265625 c 2
 514.099609375 774.072265625 l 2
 514.489257812 774.74609375 515.216796875 775.200195312 516.049804688 775.200195312 c 0
 516.458007812 775.200195312 516.83984375 775.091796875 517.169921875 774.901367188 c 2
 612.5703125 720.001953125 l 2
 613.245117188 719.61328125 613.700195312 718.883789062 613.700195312 718.049804688 c 0
219.049804688 637.5 m 0
 222.319335938 637.5 225.448242188 636.846679688 228.455078125 636.115234375 c 0
 228.838867188 636.418945312 229.323242188 636.599609375 229.849609375 636.599609375 c 0
 230.001953125 636.599609375 230.149414062 636.584960938 230.29296875 636.556640625 c 0
 253.8984375 631.834960938 269.900390625 611.036132812 269.900390625 586.650390625 c 0
 269.900390625 562.227539062 253.842773438 542.353515625 230.29296875 537.643554688 c 0
 230.149414062 537.615234375 230.001953125 537.599609375 229.849609375 537.599609375 c 0
 229.323242188 537.599609375 228.838867188 537.78125 228.455078125 538.084960938 c 0
 225.448242188 537.353515625 222.319335938 536.700195312 219.049804688 536.700195312 c 0
 215.780273438 536.700195312 212.651367188 537.353515625 209.645507812 538.084960938 c 0
 209.26171875 537.78125 208.776367188 537.599609375 208.25 537.599609375 c 0
 208.098632812 537.599609375 207.950195312 537.615234375 207.806640625 537.643554688 c 0
 184.2578125 542.353515625 168.200195312 562.227539062 168.200195312 586.650390625 c 0
 168.200195312 611.036132812 184.201171875 631.834960938 207.806640625 636.556640625 c 0
 207.950195312 636.584960938 208.098632812 636.599609375 208.25 636.599609375 c 0
 208.776367188 636.599609375 209.26171875 636.418945312 209.645507812 636.115234375 c 0
 212.651367188 636.846679688 215.780273438 637.5 219.049804688 637.5 c 0
493.549804688 276.599609375 m 0
 496.819335938 276.599609375 499.948242188 275.946289062 502.955078125 275.21484375 c 0
 503.338867188 275.518554688 503.823242188 275.700195312 504.349609375 275.700195312 c 0
 504.501953125 275.700195312 504.649414062 275.684570312 504.79296875 275.65625 c 0
 528.3984375 270.935546875 544.400390625 250.13671875 544.400390625 225.75 c 0
 544.400390625 201.327148438 528.342773438 181.453125 504.79296875 176.744140625 c 0
 504.649414062 176.71484375 504.501953125 176.700195312 504.349609375 176.700195312 c 0
 503.823242188 176.700195312 503.338867188 176.881835938 502.955078125 177.185546875 c 0
 499.948242188 176.453125 496.819335938 175.799804688 493.549804688 175.799804688 c 0
 490.280273438 175.799804688 487.151367188 176.453125 484.145507812 177.185546875 c 0
 483.76171875 176.881835938 483.276367188 176.700195312 482.75 176.700195312 c 0
 482.598632812 176.700195312 482.450195312 176.71484375 482.306640625 176.744140625 c 0
 458.7578125 181.453125 442.700195312 201.327148438 442.700195312 225.75 c 0
 442.700195312 250.13671875 458.701171875 270.935546875 482.306640625 275.65625 c 0
 482.450195312 275.684570312 482.598632812 275.700195312 482.75 275.700195312 c 0
 483.276367188 275.700195312 483.76171875 275.518554688 484.145507812 275.21484375 c 0
 487.151367188 275.946289062 490.280273438 276.599609375 493.549804688 276.599609375 c 0
EndSplineSet
EndChar

StartChar: ampersand
Encoding: 38 38 5
Width: 649
VWidth: 0
Flags: HW
HStem: 43.1784 135.9<257.822 321.716> 488.678 18G<300.036 319.846>
VStem: 83.698 135.9<216.938 284.8>
LayerCount: 2
Fore
SplineSet
79.7451171875 495.8671875 m 0
 79.7451171875 465.966796875 86.447265625 436.416992188 102.616210938 407.240234375 c 1
 116.66015625 393.056640625 l 2
 117.0625 392.650390625 117.311523438 392.090820312 117.311523438 391.473632812 c 0
 117.311523438 391.0625 117.201171875 390.676757812 117.0078125 390.345703125 c 0
 97.2490234375 356.369140625 85.9482421875 316.801757812 85.9482421875 274.478515625 c 0
 85.9482421875 147.922851562 188.431640625 45.4287109375 315.8984375 45.4287109375 c 1
 315.8984375 45.4287109375 323.515625 50.3740234375 335.895507812 59.9052734375 c 0
 350.954101562 71.498046875 372.568359375 88.8046875 396.202148438 107.889648438 c 0
 396.588867188 108.201171875 397.080078125 108.387695312 397.614257812 108.387695312 c 0
 398.239257812 108.387695312 398.8046875 108.1328125 399.212890625 107.720703125 c 2
 466.206054688 40.0673828125 l 1
 569.216796875 143.078125 l 1
 513.217773438 199.077148438 l 2
 512.810546875 199.484375 512.55859375 200.046875 512.55859375 200.66796875 c 0
 512.55859375 201.383789062 512.893554688 202.022460938 513.416015625 202.434570312 c 0
 527.6953125 213.706054688 537.495117188 221.731445312 542.248046875 224.083984375 c 1
 542.248046875 355.99609375 l 1
 532.549804688 348.770507812 479.818359375 306.310546875 440.737304688 274.416015625 c 0
 440.349609375 274.099609375 439.85546875 273.91015625 439.31640625 273.91015625 c 0
 438.6953125 273.91015625 438.1328125 274.162109375 437.725585938 274.569335938 c 2
 337.70703125 374.587890625 l 2
 337.299804688 374.995117188 337.047851562 375.557617188 337.047851562 376.178710938 c 2
 337.047851562 503.466796875 l 1
 330.081054688 504.102539062 323.026367188 504.428710938 315.8984375 504.428710938 c 0
 284.4765625 504.428710938 254.575195312 498.200195312 227.3515625 486.90625 c 0
 227.086914062 486.795898438 226.795898438 486.735351562 226.491210938 486.735351562 c 0
 225.870117188 486.735351562 225.307617188 486.987304688 224.900390625 487.39453125 c 2
 204.506835938 507.788085938 l 2
 203.176757812 509.118164062 203.623046875 513.754882812 203.623046875 516.119140625 c 0
 203.623046875 541.512695312 212.969726562 567.130859375 232.407226562 586.569335938 c 0
 249.662109375 603.82421875 350.379882812 659.70703125 377.59765625 664.359375 c 1
 380.212890625 768.135742188 l 1
 377.00390625 769.588867188 371.676757812 770.439453125 364.749023438 770.439453125 c 0
 308.793945312 770.439453125 160.096679688 719.217773438 139.692382812 680.237304688 c 0
 107.150390625 618.068359375 79.7451171875 556.1796875 79.7451171875 495.8671875 c 0
208.123046875 516.119140625 m 0
 208.123046875 514.200195312 208.1796875 512.28125 208.291015625 510.3671875 c 1
 227.021484375 491.635742188 l 1
 254.404296875 502.790039062 284.405273438 508.928710938 315.8984375 508.928710938 c 0
 323.87109375 508.928710938 331.751953125 508.529296875 339.524414062 507.750976562 c 0
 340.66015625 507.63671875 341.547851562 506.677734375 341.547851562 505.51171875 c 2
 341.547851562 377.109375 l 1
 439.469726562 279.188476562 l 1
 446.724609375 285.109375 l 2
 495.5859375 324.98828125 538.956054688 361.051757812 543.959960938 362.282226562 c 0
 544.131835938 362.32421875 544.3125 362.346679688 544.498046875 362.346679688 c 0
 545.740234375 362.346679688 546.748046875 361.338867188 546.748046875 360.096679688 c 2
 546.748046875 222.544921875 l 2
 546.748046875 221.37890625 545.860351562 220.419921875 544.724609375 220.305664062 c 2
 544.63671875 220.192382812 l 1
 541.899414062 218.752929688 531.973632812 211.313476562 518.189453125 200.467773438 c 1
 573.98828125 144.668945312 l 2
 574.395507812 144.26171875 574.6484375 143.69921875 574.6484375 143.078125 c 0
 574.6484375 142.45703125 574.395507812 141.89453125 573.98828125 141.487304688 c 2
 467.7890625 35.2880859375 l 2
 467.381835938 34.880859375 466.819335938 34.6279296875 466.198242188 34.6279296875 c 0
 465.573242188 34.6279296875 465.006835938 34.8837890625 464.599609375 35.2958984375 c 2
 397.446289062 103.110351562 l 1
 374.419921875 84.5234375 353.419921875 67.71875 338.63671875 56.3369140625 c 0
 326.612304688 47.080078125 319.260742188 40.9287109375 315.8984375 40.9287109375 c 0
 185.963867188 40.9287109375 81.4482421875 145.43359375 81.4482421875 274.478515625 c 0
 81.4482421875 317.000976562 92.6396484375 356.802734375 112.254882812 391.111328125 c 1
 99.19921875 404.295898438 l 2
 99.0546875 404.44140625 98.9306640625 404.606445312 98.830078125 404.787109375 c 0
 82.1748046875 434.731445312 75.2451171875 465.1796875 75.2451171875 495.8671875 c 0
 75.2451171875 557.541015625 103.098632812 620.033203125 135.703125 682.319335938 c 0
 157.85546875 724.637695312 307.776367188 774.939453125 364.749023438 774.939453125 c 0
 372.889648438 774.939453125 379.361328125 773.995117188 383.65625 771.407226562 c 0
 384.310546875 771.013671875 384.76953125 770.295898438 384.747070312 769.420898438 c 2
 382.046875 662.3203125 l 2
 382.018554688 661.166015625 381.1171875 660.2265625 379.979492188 660.135742188 c 0
 358.780273438 658.439453125 252.073242188 599.872070312 235.588867188 583.387695312 c 0
 217.064453125 564.86328125 208.123046875 540.412109375 208.123046875 516.119140625 c 0
221.84765625 274.478515625 m 0
 221.84765625 222.702148438 262.989257812 181.455078125 315.654296875 181.329101562 c 0
 315.953125 181.47265625 316.963867188 182.032226562 318.393554688 182.94140625 c 1
 222.015625 280.26953125 l 1
 221.904296875 278.356445312 221.84765625 276.424804688 221.84765625 274.478515625 c 0
217.34765625 274.478515625 m 0
 217.34765625 277.9765625 216.622070312 287.575195312 220.17578125 287.575195312 c 0
 220.799804688 287.575195312 221.366210938 287.319335938 221.7734375 286.908203125 c 2
 323.513671875 184.165039062 l 2
 323.916015625 183.758789062 324.165039062 183.19921875 324.165039062 182.583007812 c 0
 324.165039062 181.817382812 323.782226562 181.140625 323.197265625 180.734375 c 0
 319.934570312 178.46484375 318.08984375 176.828125 315.8984375 176.828125 c 0
 260.6796875 176.828125 217.34765625 220.134765625 217.34765625 274.478515625 c 0
EndSplineSet
EndChar

StartChar: quotesingle
Encoding: 39 39 6
Width: 252
VWidth: 0
Flags: HW
HStem: 544.85 231.3<57.6 194.4>
VStem: 57.6 136.8<544.85 776.15>
LayerCount: 2
Fore
SplineSet
59.849609375 773.900390625 m 1
 59.849609375 547.099609375 l 1
 192.150390625 547.099609375 l 1
 192.150390625 773.900390625 l 1
 59.849609375 773.900390625 l 1
55.349609375 544.849609375 m 2
 55.349609375 776.150390625 l 2
 55.349609375 777.391601562 56.3583984375 778.400390625 57.599609375 778.400390625 c 2
 194.400390625 778.400390625 l 2
 195.641601562 778.400390625 196.650390625 777.391601562 196.650390625 776.150390625 c 2
 196.650390625 544.849609375 l 2
 196.650390625 543.608398438 195.641601562 542.599609375 194.400390625 542.599609375 c 2
 57.599609375 542.599609375 l 2
 56.3583984375 542.599609375 55.349609375 543.608398438 55.349609375 544.849609375 c 2
EndSplineSet
EndChar

StartChar: parenleft
Encoding: 40 40 7
Width: 555
VWidth: 0
Flags: HW
HStem: 25.35 22.5<364.187 442.1> 707.55 26.1<356.182 437.454>
VStem: 72.75 93.6<265.455 492.187>
LayerCount: 2
Fore
SplineSet
416.549804688 731.400390625 m 0
 227.946289062 731.400390625 75 574.063476562 75 379.950195312 c 0
 75 184.931640625 227.948242188 27.599609375 416.549804688 27.599609375 c 0
 435.40625 27.599609375 453.594726562 28.8701171875 471.670898438 31.9404296875 c 1
 416.2734375 45.6005859375 l 1
 299.377929688 45.8359375 164.099609375 195.62890625 164.099609375 378.150390625 c 0
 164.099609375 559.74609375 299.3359375 709.514648438 416.215820312 709.799804688 c 1
 472.826171875 726.860351562 l 1
 454.370117188 730.075195312 435.80859375 731.400390625 416.549804688 731.400390625 c 0
416.549804688 705.299804688 m 0
 303.10546875 705.299804688 168.599609375 558.180664062 168.599609375 378.150390625 c 0
 168.599609375 197.21484375 303.108398438 50.099609375 416.549804688 50.099609375 c 0
 416.736328125 50.099609375 416.916992188 50.0771484375 417.08984375 50.03515625 c 2
 482.790039062 33.8349609375 l 2
 483.771484375 33.5927734375 484.5 32.7060546875 484.5 31.650390625 c 0
 484.5 30.56640625 483.731445312 29.66015625 482.7109375 29.447265625 c 0
 460.934570312 24.9111328125 439.171875 23.099609375 416.549804688 23.099609375 c 0
 225.3515625 23.099609375 70.5 182.568359375 70.5 379.950195312 c 0
 70.5 576.436523438 225.353515625 735.900390625 416.549804688 735.900390625 c 0
 439.171875 735.900390625 460.934570312 734.088867188 482.7109375 729.552734375 c 0
 483.731445312 729.33984375 484.5 728.43359375 484.5 727.349609375 c 0
 484.5 726.333984375 483.825195312 725.474609375 482.899414062 725.1953125 c 2
 417.19921875 705.395507812 l 2
 416.994140625 705.333007812 416.775390625 705.299804688 416.549804688 705.299804688 c 0
EndSplineSet
EndChar

StartChar: parenright
Encoding: 41 41 8
Width: 555
VWidth: 0
Flags: HW
HStem: 25.35 22.5<112.9 190.813> 707.55 26.1<117.545 198.818>
VStem: 388.65 93.6<265.455 492.187>
LayerCount: 2
Fore
SplineSet
390.900390625 378.150390625 m 0
 390.900390625 195.62890625 255.622070312 45.8359375 138.7265625 45.6005859375 c 1
 83.3291015625 31.9404296875 l 1
 101.405273438 28.8701171875 119.59375 27.599609375 138.450195312 27.599609375 c 0
 327.051757812 27.599609375 480 184.931640625 480 379.950195312 c 0
 480 574.063476562 327.053710938 731.400390625 138.450195312 731.400390625 c 0
 119.19140625 731.400390625 100.629882812 730.075195312 82.173828125 726.860351562 c 1
 138.784179688 709.799804688 l 1
 255.6640625 709.514648438 390.900390625 559.74609375 390.900390625 378.150390625 c 0
70.5 727.349609375 m 0
 70.5 728.43359375 71.2685546875 729.33984375 72.2890625 729.552734375 c 0
 94.0654296875 734.088867188 115.828125 735.900390625 138.450195312 735.900390625 c 0
 329.646484375 735.900390625 484.5 576.436523438 484.5 379.950195312 c 0
 484.5 182.568359375 329.6484375 23.099609375 138.450195312 23.099609375 c 0
 115.828125 23.099609375 94.0654296875 24.9111328125 72.2890625 29.447265625 c 0
 71.2685546875 29.66015625 70.5 30.56640625 70.5 31.650390625 c 0
 70.5 32.7060546875 71.228515625 33.5927734375 72.2099609375 33.8349609375 c 2
 137.91015625 50.03515625 l 2
 138.083007812 50.0771484375 138.263671875 50.099609375 138.450195312 50.099609375 c 0
 251.891601562 50.099609375 386.400390625 197.21484375 386.400390625 378.150390625 c 0
 386.400390625 558.180664062 251.89453125 705.299804688 138.450195312 705.299804688 c 0
 138.224609375 705.299804688 138.005859375 705.333007812 137.80078125 705.395507812 c 2
 72.1005859375 725.1953125 l 2
 71.1748046875 725.474609375 70.5 726.333984375 70.5 727.349609375 c 0
EndSplineSet
EndChar

StartChar: asterisk
Encoding: 42 42 9
Width: 644
VWidth: 0
Flags: HW
HStem: 351.65 136.8<77.2 157.3 486.7 566.8>
VStem: 253.6 136.8<176.15 255.35 584.75 664.85>
LayerCount: 2
Fore
SplineSet
564.549804688 353.900390625 m 1
 564.549804688 486.200195312 l 1
 486.700195312 486.200195312 l 2
 485.458007812 486.200195312 484.450195312 487.208007812 484.450195312 488.450195312 c 0
 484.450195312 489.071289062 484.702148438 489.633789062 485.109375 490.041015625 c 2
 540.21875 545.150390625 l 1
 447.099609375 638.268554688 l 1
 391.990234375 583.159179688 l 2
 391.583007812 582.751953125 391.020507812 582.5 390.400390625 582.5 c 0
 389.158203125 582.5 388.150390625 583.5078125 388.150390625 584.75 c 2
 388.150390625 662.599609375 l 1
 255.849609375 662.599609375 l 1
 255.849609375 584.75 l 2
 255.849609375 583.5078125 254.841796875 582.5 253.599609375 582.5 c 0
 252.979492188 582.5 252.416992188 582.751953125 252.009765625 583.159179688 c 2
 196.900390625 638.268554688 l 1
 103.78125 545.150390625 l 1
 158.890625 490.041015625 l 2
 159.297851562 489.633789062 159.549804688 489.071289062 159.549804688 488.450195312 c 0
 159.549804688 487.208007812 158.541992188 486.200195312 157.299804688 486.200195312 c 2
 79.4501953125 486.200195312 l 1
 79.4501953125 353.900390625 l 1
 157.299804688 353.900390625 l 2
 158.541992188 353.900390625 159.549804688 352.891601562 159.549804688 351.650390625 c 0
 159.549804688 351.029296875 159.297851562 350.466796875 158.890625 350.059570312 c 2
 103.78125 294.950195312 l 1
 196.900390625 201.831054688 l 1
 252.009765625 256.940429688 l 2
 252.416992188 257.34765625 252.979492188 257.599609375 253.599609375 257.599609375 c 0
 254.841796875 257.599609375 255.849609375 256.591796875 255.849609375 255.349609375 c 2
 255.849609375 178.400390625 l 1
 388.150390625 178.400390625 l 1
 388.150390625 255.349609375 l 2
 388.150390625 256.591796875 389.158203125 257.599609375 390.400390625 257.599609375 c 0
 391.020507812 257.599609375 391.583007812 257.34765625 391.990234375 256.940429688 c 2
 447.099609375 201.831054688 l 1
 540.21875 294.950195312 l 1
 485.109375 350.059570312 l 2
 484.702148438 350.466796875 484.450195312 351.029296875 484.450195312 351.650390625 c 0
 484.450195312 352.891601562 485.458007812 353.900390625 486.700195312 353.900390625 c 2
 564.549804688 353.900390625 l 1
569.049804688 488.450195312 m 2
 569.049804688 351.650390625 l 2
 569.049804688 350.408203125 568.041992188 349.400390625 566.799804688 349.400390625 c 2
 492.131835938 349.400390625 l 1
 544.990234375 296.541015625 l 2
 545.3984375 296.133789062 545.650390625 295.571289062 545.650390625 294.950195312 c 0
 545.650390625 294.329101562 545.3984375 293.766601562 544.990234375 293.359375 c 2
 448.690429688 197.059570312 l 2
 448.283203125 196.65234375 447.720703125 196.400390625 447.099609375 196.400390625 c 0
 446.479492188 196.400390625 445.916992188 196.65234375 445.509765625 197.059570312 c 2
 392.650390625 249.918945312 l 1
 392.650390625 176.150390625 l 2
 392.650390625 174.908203125 391.641601562 173.900390625 390.400390625 173.900390625 c 2
 253.599609375 173.900390625 l 2
 252.358398438 173.900390625 251.349609375 174.908203125 251.349609375 176.150390625 c 2
 251.349609375 249.918945312 l 1
 198.490234375 197.059570312 l 2
 198.083007812 196.65234375 197.520507812 196.400390625 196.900390625 196.400390625 c 0
 196.279296875 196.400390625 195.716796875 196.65234375 195.309570312 197.059570312 c 2
 99.009765625 293.359375 l 2
 98.6015625 293.766601562 98.349609375 294.329101562 98.349609375 294.950195312 c 0
 98.349609375 295.571289062 98.6015625 296.133789062 99.009765625 296.541015625 c 2
 151.868164062 349.400390625 l 1
 77.2001953125 349.400390625 l 2
 75.9580078125 349.400390625 74.9501953125 350.408203125 74.9501953125 351.650390625 c 2
 74.9501953125 488.450195312 l 2
 74.9501953125 489.69140625 75.9580078125 490.700195312 77.2001953125 490.700195312 c 2
 151.868164062 490.700195312 l 1
 99.009765625 543.559570312 l 2
 98.6015625 543.966796875 98.349609375 544.529296875 98.349609375 545.150390625 c 0
 98.349609375 545.770507812 98.6015625 546.333007812 99.009765625 546.740234375 c 2
 195.309570312 643.041015625 l 2
 195.716796875 643.448242188 196.279296875 643.700195312 196.900390625 643.700195312 c 0
 197.520507812 643.700195312 198.083007812 643.448242188 198.490234375 643.041015625 c 2
 251.349609375 590.181640625 l 1
 251.349609375 664.849609375 l 2
 251.349609375 666.091796875 252.358398438 667.099609375 253.599609375 667.099609375 c 2
 390.400390625 667.099609375 l 2
 391.641601562 667.099609375 392.650390625 666.091796875 392.650390625 664.849609375 c 2
 392.650390625 590.181640625 l 1
 445.509765625 643.041015625 l 2
 445.916992188 643.448242188 446.479492188 643.700195312 447.099609375 643.700195312 c 0
 447.720703125 643.700195312 448.283203125 643.448242188 448.690429688 643.041015625 c 2
 544.990234375 546.740234375 l 2
 545.3984375 546.333007812 545.650390625 545.770507812 545.650390625 545.150390625 c 0
 545.650390625 544.529296875 545.3984375 543.966796875 544.990234375 543.559570312 c 2
 492.131835938 490.700195312 l 1
 566.799804688 490.700195312 l 2
 568.041992188 490.700195312 569.049804688 489.69140625 569.049804688 488.450195312 c 2
EndSplineSet
EndChar

StartChar: plus
Encoding: 43 43 10
Width: 644
VWidth: 0
Flags: HW
HStem: 351.65 136.8<77.2 566.8>
VStem: 253.6 136.8<176.15 664.85>
LayerCount: 2
Fore
SplineSet
388.150390625 662.599609375 m 1
 255.849609375 662.599609375 l 1
 255.849609375 488.450195312 l 2
 255.849609375 487.208007812 254.841796875 486.200195312 253.599609375 486.200195312 c 2
 79.4501953125 486.200195312 l 1
 79.4501953125 353.900390625 l 1
 253.599609375 353.900390625 l 2
 254.841796875 353.900390625 255.849609375 352.891601562 255.849609375 351.650390625 c 2
 255.849609375 178.400390625 l 1
 388.150390625 178.400390625 l 1
 388.150390625 351.650390625 l 2
 388.150390625 352.891601562 389.158203125 353.900390625 390.400390625 353.900390625 c 2
 564.549804688 353.900390625 l 1
 564.549804688 486.200195312 l 1
 390.400390625 486.200195312 l 2
 389.158203125 486.200195312 388.150390625 487.208007812 388.150390625 488.450195312 c 2
 388.150390625 662.599609375 l 1
253.599609375 667.099609375 m 2
 390.400390625 667.099609375 l 2
 391.641601562 667.099609375 392.650390625 666.091796875 392.650390625 664.849609375 c 2
 392.650390625 490.700195312 l 1
 566.799804688 490.700195312 l 2
 568.041992188 490.700195312 569.049804688 489.69140625 569.049804688 488.450195312 c 2
 569.049804688 351.650390625 l 2
 569.049804688 350.408203125 568.041992188 349.400390625 566.799804688 349.400390625 c 2
 392.650390625 349.400390625 l 1
 392.650390625 176.150390625 l 2
 392.650390625 174.908203125 391.641601562 173.900390625 390.400390625 173.900390625 c 2
 253.599609375 173.900390625 l 2
 252.358398438 173.900390625 251.349609375 174.908203125 251.349609375 176.150390625 c 2
 251.349609375 349.400390625 l 1
 77.2001953125 349.400390625 l 2
 75.9580078125 349.400390625 74.9501953125 350.408203125 74.9501953125 351.650390625 c 2
 74.9501953125 488.450195312 l 2
 74.9501953125 489.69140625 75.9580078125 490.700195312 77.2001953125 490.700195312 c 2
 251.349609375 490.700195312 l 1
 251.349609375 664.849609375 l 2
 251.349609375 666.091796875 252.358398438 667.099609375 253.599609375 667.099609375 c 2
EndSplineSet
EndChar

StartChar: comma
Encoding: 44 44 11
Width: 252
VWidth: 0
Flags: HW
HStem: -120.3 246.6<96.0904 143.264>
VStem: 57.6 136.8<-1.5 126.3>
LayerCount: 2
Fore
SplineSet
59.849609375 124.049804688 m 1
 59.849609375 0.75 l 1
 96.0908203125 0.75 l 2
 97.33203125 0.75 98.3408203125 -0.2578125 98.3408203125 -1.5 c 0
 98.3408203125 -1.552734375 98.3388671875 -1.6044921875 98.3349609375 -1.6552734375 c 2
 90.5986328125 -114.610351562 l 1
 138.997070312 -117.948242188 l 1
 192.150390625 -1.01171875 l 1
 192.150390625 124.049804688 l 1
 59.849609375 124.049804688 l 1
55.349609375 -1.5 m 2
 55.349609375 126.299804688 l 2
 55.349609375 127.541992188 56.3583984375 128.549804688 57.599609375 128.549804688 c 2
 194.400390625 128.549804688 l 2
 195.641601562 128.549804688 196.650390625 127.541992188 196.650390625 126.299804688 c 2
 196.650390625 -1.5 l 2
 196.650390625 -1.8310546875 196.578125 -2.1455078125 196.44921875 -2.4287109375 c 2
 142.44921875 -121.229492188 l 2
 142.095703125 -122.0078125 141.310546875 -122.549804688 140.400390625 -122.549804688 c 0
 140.34765625 -122.549804688 140.294921875 -122.547851562 140.243164062 -122.544921875 c 2
 88.04296875 -118.944335938 l 2
 86.8740234375 -118.864257812 85.9501953125 -117.888671875 85.9501953125 -116.700195312 c 0
 85.9501953125 -116.647460938 85.9521484375 -116.595703125 85.955078125 -116.543945312 c 2
 93.6806640625 -3.75 l 1
 57.599609375 -3.75 l 2
 56.3583984375 -3.75 55.349609375 -2.7421875 55.349609375 -1.5 c 2
EndSplineSet
EndChar

StartChar: hyphen
Encoding: 45 45 12
Width: 644
VWidth: 0
Flags: HW
HStem: 351.6 136.8<77.2 566.8>
LayerCount: 2
Fore
SplineSet
564.549804688 353.849609375 m 1
 564.549804688 486.150390625 l 1
 79.4501953125 486.150390625 l 1
 79.4501953125 353.849609375 l 1
 564.549804688 353.849609375 l 1
569.049804688 488.400390625 m 2
 569.049804688 351.599609375 l 2
 569.049804688 350.358398438 568.041992188 349.349609375 566.799804688 349.349609375 c 2
 77.2001953125 349.349609375 l 2
 75.9580078125 349.349609375 74.9501953125 350.358398438 74.9501953125 351.599609375 c 2
 74.9501953125 488.400390625 l 2
 74.9501953125 489.641601562 75.9580078125 490.650390625 77.2001953125 490.650390625 c 2
 566.799804688 490.650390625 l 2
 568.041992188 490.650390625 569.049804688 489.641601562 569.049804688 488.400390625 c 2
EndSplineSet
EndChar

StartChar: period
Encoding: 46 46 13
Width: 252
VWidth: 0
Flags: HW
HStem: 5.1 127.8<57.6 194.4>
VStem: 57.6 136.8<5.1 132.9>
LayerCount: 2
Fore
SplineSet
59.849609375 130.650390625 m 1
 59.849609375 7.349609375 l 1
 192.150390625 7.349609375 l 1
 192.150390625 130.650390625 l 1
 59.849609375 130.650390625 l 1
55.349609375 5.099609375 m 2
 55.349609375 132.900390625 l 2
 55.349609375 134.141601562 56.3583984375 135.150390625 57.599609375 135.150390625 c 2
 194.400390625 135.150390625 l 2
 195.641601562 135.150390625 196.650390625 134.141601562 196.650390625 132.900390625 c 2
 196.650390625 5.099609375 l 2
 196.650390625 3.8583984375 195.641601562 2.849609375 194.400390625 2.849609375 c 2
 57.599609375 2.849609375 l 2
 56.3583984375 2.849609375 55.349609375 3.8583984375 55.349609375 5.099609375 c 2
EndSplineSet
EndChar

StartChar: slash
Encoding: 47 47 14
Width: 691
VWidth: 0
Flags: HW
LayerCount: 2
Fore
SplineSet
608.375 717.223632812 m 1
 516.875 769.87890625 l 1
 82.625 17.7763671875 l 1
 174.125 -34.87890625 l 1
 608.375 717.223632812 l 1
613.700195312 718.049804688 m 0
 613.700195312 717.641601562 613.590820312 717.2578125 613.400390625 716.927734375 c 2
 176.900390625 -39.072265625 l 2
 176.510742188 -39.74609375 175.783203125 -40.2001953125 174.950195312 -40.2001953125 c 0
 174.541992188 -40.2001953125 174.16015625 -40.091796875 173.830078125 -39.9013671875 c 2
 78.4296875 14.998046875 l 2
 77.7548828125 15.38671875 77.2998046875 16.1162109375 77.2998046875 16.9501953125 c 0
 77.2998046875 17.3583984375 77.4091796875 17.7421875 77.599609375 18.072265625 c 2
 514.099609375 774.072265625 l 2
 514.489257812 774.74609375 515.216796875 775.200195312 516.049804688 775.200195312 c 0
 516.458007812 775.200195312 516.83984375 775.091796875 517.169921875 774.901367188 c 2
 612.5703125 720.001953125 l 2
 613.245117188 719.61328125 613.700195312 718.883789062 613.700195312 718.049804688 c 0
EndSplineSet
EndChar

StartChar: zero
Encoding: 48 48 15
Width: 864
VWidth: 0
Flags: HW
HStem: 25.35 141.3<363.888 500.904> 588.75 144.9<363.888 500.904>
VStem: 157.05 109.8<282.263 475.349> 597.15 109.8<279.999 477.603>
LayerCount: 2
Fore
SplineSet
704.700195312 379.950195312 m 0
 704.700195312 574.5 582.827148438 731.400390625 432.450195312 731.400390625 c 0
 282.06640625 731.400390625 159.299804688 574.491210938 159.299804688 379.950195312 c 0
 159.299804688 184.504882812 282.068359375 27.599609375 432.450195312 27.599609375 c 0
 582.825195312 27.599609375 704.700195312 184.495117188 704.700195312 379.950195312 c 0
709.200195312 379.950195312 m 0
 709.200195312 183.004882812 586.274414062 23.099609375 432.450195312 23.099609375 c 0
 278.631835938 23.099609375 154.799804688 182.995117188 154.799804688 379.950195312 c 0
 154.799804688 576.008789062 278.633789062 735.900390625 432.450195312 735.900390625 c 0
 586.272460938 735.900390625 709.200195312 576 709.200195312 379.950195312 c 0
594.900390625 378.150390625 m 0
 594.900390625 493.4921875 522.5390625 586.5 432.450195312 586.5 c 0
 342.349609375 586.5 269.099609375 493.4765625 269.099609375 378.150390625 c 0
 269.099609375 261.916992188 342.353515625 168.900390625 432.450195312 168.900390625 c 0
 522.53515625 168.900390625 594.900390625 261.901367188 594.900390625 378.150390625 c 0
599.400390625 378.150390625 m 0
 599.400390625 260.399414062 525.96484375 164.400390625 432.450195312 164.400390625 c 0
 338.946289062 164.400390625 264.599609375 260.3828125 264.599609375 378.150390625 c 0
 264.599609375 495.0234375 338.950195312 591 432.450195312 591 c 0
 525.9609375 591 599.400390625 495.0078125 599.400390625 378.150390625 c 0
EndSplineSet
EndChar

StartChar: one
Encoding: 49 49 16
Width: 436
VWidth: 0
Flags: HW
HStem: 36.9 18.9G<232.4 369.2> 717.3 18G<232.4 369.2>
VStem: 232.4 136.8<36.9 735.3>
LayerCount: 2
Fore
SplineSet
232.400390625 547.650390625 m 0
 233.641601562 547.650390625 234.650390625 546.641601562 234.650390625 545.400390625 c 2
 234.650390625 39.150390625 l 1
 366.950195312 39.150390625 l 1
 366.950195312 733.049804688 l 1
 232.416992188 733.049804688 l 2
 231.630859375 733.049804688 231.077148438 733.4609375 230.607421875 733.92578125 c 2
 69.9892578125 573.307617188 l 1
 163.9921875 480.173828125 l 1
 230.809570312 546.990234375 l 2
 231.216796875 547.3984375 231.779296875 547.650390625 232.400390625 547.650390625 c 0
64.5498046875 573.299804688 m 0
 64.5498046875 573.920898438 64.8017578125 574.483398438 65.208984375 574.890625 c 2
 229.009765625 738.690429688 l 2
 229.416992188 739.09765625 229.979492188 739.349609375 230.599609375 739.349609375 c 0
 231.892578125 739.349609375 232.647460938 738.23828125 233.341796875 737.549804688 c 2
 369.200195312 737.549804688 l 2
 370.44140625 737.549804688 371.450195312 736.541992188 371.450195312 735.299804688 c 2
 371.450195312 36.900390625 l 2
 371.450195312 35.658203125 370.44140625 34.650390625 369.200195312 34.650390625 c 2
 232.400390625 34.650390625 l 2
 231.158203125 34.650390625 230.150390625 35.658203125 230.150390625 36.900390625 c 2
 230.150390625 539.96875 l 1
 165.590820312 475.409179688 l 2
 165.18359375 475.001953125 164.62109375 474.75 164 474.75 c 0
 163.3828125 474.75 162.823242188 474.999023438 162.416992188 475.40234375 c 2
 65.216796875 571.702148438 l 2
 64.8046875 572.109375 64.5498046875 572.67578125 64.5498046875 573.299804688 c 0
EndSplineSet
EndChar

StartChar: two
Encoding: 50 50 17
Width: 555
VWidth: 0
Flags: HW
HStem: 35.74 203.4<82.8173 250.348> 563.14 115.921<82.8324 241.632>
VStem: 353.65 137.7<327.759 465.364>
LayerCount: 2
Fore
SplineSet
147.549804688 565.389648438 m 0
 262.706054688 565.389648438 355.900390625 489.16015625 355.900390625 394.661132812 c 0
 355.900390625 299.283203125 262.461914062 236.889648438 147.549804688 236.889648438 c 0
 125.387695312 236.889648438 104.0625 239.70703125 84.0634765625 244.932617188 c 1
 81.4287109375 38.01171875 l 1
 529.599609375 42.2890625 l 1
 529.599609375 147.228515625 l 1
 284.274414062 144.887695312 l 2
 283.010742188 144.887695312 282.002929688 145.896484375 282.002929688 147.137695312 c 0
 282.002929688 148.13671875 282.654296875 148.984375 283.556640625 149.278320312 c 0
 404.791015625 188.74609375 489.099609375 280.51171875 489.099609375 396.100585938 c 0
 489.099609375 550.727539062 336.583984375 676.810546875 147.549804688 676.810546875 c 0
 125.868164062 676.810546875 104.659179688 675.149414062 84.099609375 671.974609375 c 1
 84.099609375 557.36328125 l 1
 104.088867188 562.577148438 125.401367188 565.389648438 147.549804688 565.389648438 c 0
147.549804688 560.889648438 m 0
 124.75390625 560.889648438 102.864257812 557.856445312 82.4453125 552.262695312 c 0
 82.255859375 552.2109375 82.0556640625 552.182617188 81.849609375 552.182617188 c 0
 80.6083984375 552.182617188 79.599609375 553.190429688 79.599609375 554.432617188 c 2
 79.599609375 673.899414062 l 2
 79.599609375 675.020507812 80.4208984375 675.951171875 81.494140625 676.122070312 c 0
 102.876953125 679.526367188 124.959960938 681.310546875 147.549804688 681.310546875 c 0
 338.31640625 681.310546875 493.599609375 553.952148438 493.599609375 396.100585938 c 0
 493.599609375 282.333984375 413.553710938 191.633789062 298.059570312 149.51953125 c 1
 531.849609375 151.75 l 0
 533.091796875 151.75 534.099609375 150.7421875 534.099609375 149.5 c 2
 534.099609375 40.060546875 l 2
 534.099609375 38.826171875 533.103515625 37.822265625 531.872070312 37.810546875 c 2
 531.872070312 37.810546875 79.171875 33.490234375 79.150390625 33.490234375 c 0
 77.908203125 33.490234375 76.900390625 34.498046875 76.900390625 35.76953125 c 2
 79.6005859375 247.883789062 l 2
 79.6162109375 249.112304688 80.6181640625 250.104492188 81.849609375 250.104492188 c 0
 82.056640625 250.104492188 82.255859375 250.076171875 82.4453125 250.024414062 c 0
 102.865234375 244.424804688 124.75390625 241.389648438 147.549804688 241.389648438 c 0
 261.23828125 241.389648438 351.400390625 302.837890625 351.400390625 394.661132812 c 0
 351.400390625 485.919921875 260.994140625 560.889648438 147.549804688 560.889648438 c 0
EndSplineSet
EndChar

StartChar: three
Encoding: 51 51 18
Width: 435
VWidth: 0
Flags: HW
HStem: 29.4389 110.079<66.75 181.628> 294.281 110.377<112.836 200.494> 559.422 110.08<72.15 184.384>
VStem: 232.35 135.9<178.601 263.729 434.916 520.795>
LayerCount: 2
Fore
SplineSet
124.8515625 402.408203125 m 0
 121.517578125 402.408203125 118.081054688 403.16015625 114.900390625 403.717773438 c 1
 114.900390625 295.219726562 l 1
 118.1015625 295.782226562 121.569335938 296.565429688 124.940429688 296.530273438 c 0
 128.622070312 296.387695312 132.325195312 296.31640625 136.049804688 296.31640625 c 0
 139.822265625 296.31640625 143.572265625 296.388671875 147.385742188 296.534179688 c 0
 147.456054688 296.534179688 147.524414062 296.53125 147.592773438 296.524414062 c 0
 196.844726562 292.041015625 234.599609375 258.91796875 234.599609375 216.791992188 c 0
 234.599609375 171.453125 169.981445312 137.267578125 90.150390625 137.267578125 c 0
 82.892578125 137.267578125 75.81640625 137.895507812 69 139.090820312 c 1
 69 32.4658203125 l 1
 75.966796875 31.9521484375 83.021484375 31.6884765625 90.150390625 31.6884765625 c 0
 243.8046875 31.6884765625 366 115.249023438 366 216.791992188 c 0
 366 267.88671875 340.774414062 314.083984375 299.608398438 347.6796875 c 0
 299.102539062 348.092773438 298.779296875 348.720703125 298.779296875 349.423828125 c 0
 298.779296875 350.127929688 299.103515625 350.756835938 299.610351562 351.169921875 c 0
 340.778320312 384.676757812 366 430.693359375 366 481.418945312 c 0
 366 583.732421875 246.169921875 667.251953125 95.5498046875 667.251953125 c 0
 88.421875 667.251953125 81.3671875 666.98828125 74.400390625 666.473632812 c 1
 74.400390625 559.84765625 l 1
 81.2158203125 561.043945312 88.29296875 561.671875 95.5498046875 561.671875 c 0
 172.432617188 561.671875 234.599609375 527.408203125 234.599609375 481.418945312 c 0
 234.599609375 439.954101562 196.833984375 406.89453125 147.59375 402.415039062 c 0
 143.87109375 402.076171875 139.846679688 402.624023438 136.049804688 402.624023438 c 0
 132.326171875 402.624023438 128.623046875 402.551757812 124.8515625 402.408203125 c 0
64.5 30.3837890625 m 2
 64.5 141.80078125 l 2
 64.5 143.04296875 65.5078125 144.05078125 66.75 144.05078125 c 0
 66.9013671875 144.05078125 67.048828125 144.036132812 67.19140625 144.0078125 c 0
 74.5400390625 142.543945312 82.232421875 141.767578125 90.150390625 141.767578125 c 0
 169.793945312 141.767578125 230.099609375 176.110351562 230.099609375 216.791992188 c 0
 230.099609375 255.8828125 194.935546875 287.637695312 147.325195312 292.030273438 c 0
 143.58984375 291.887695312 139.830078125 291.81640625 136.049804688 291.81640625 c 0
 132.317382812 291.81640625 128.60546875 291.88671875 124.915039062 292.02734375 c 0
 120.890625 291.650390625 116.944335938 291.071289062 113.091796875 290.302734375 c 0
 112.94921875 290.2734375 112.801757812 290.258789062 112.650390625 290.258789062 c 0
 111.408203125 290.258789062 110.400390625 291.266601562 110.400390625 292.508789062 c 2
 110.400390625 406.427734375 l 2
 110.400390625 407.669921875 111.408203125 408.677734375 112.650390625 408.677734375 c 0
 112.80078125 408.677734375 112.948242188 408.663085938 113.090820312 408.634765625 c 0
 116.943359375 407.8671875 120.889648438 407.2890625 124.9140625 406.912109375 c 0
 128.60546875 407.052734375 132.317382812 407.124023438 136.049804688 407.124023438 c 0
 139.83203125 407.124023438 143.590820312 407.051757812 147.327148438 406.909179688 c 0
 194.947265625 411.299804688 230.099609375 443.022460938 230.099609375 481.418945312 c 0
 230.099609375 522.91015625 172.086914062 557.171875 95.5498046875 557.171875 c 0
 87.6328125 557.171875 79.9404296875 556.395507812 72.591796875 554.9296875 c 0
 72.44921875 554.901367188 72.30078125 554.885742188 72.150390625 554.885742188 c 0
 70.908203125 554.885742188 69.900390625 555.89453125 69.900390625 557.135742188 c 2
 69.900390625 668.555664062 l 2
 69.900390625 669.735351562 70.8095703125 670.704101562 71.9658203125 670.798828125 c 0
 79.724609375 671.427734375 87.591796875 671.751953125 95.5498046875 671.751953125 c 0
 247.224609375 671.751953125 370.5 587.599609375 370.5 481.418945312 c 0
 370.5 430.018554688 345.350585938 383.484375 304.563476562 349.421875 c 1
 345.353515625 315.262695312 370.5 268.545898438 370.5 216.791992188 c 0
 370.5 111.298828125 244.776367188 27.1884765625 90.150390625 27.1884765625 c 0
 82.1923828125 27.1884765625 74.3251953125 27.51171875 66.5654296875 28.1416015625 c 0
 65.41015625 28.2353515625 64.5 29.2041015625 64.5 30.3837890625 c 2
EndSplineSet
EndChar

StartChar: four
Encoding: 52 52 19
Width: 752
VWidth: 0
Flags: HW
HStem: 210.613 135<288.015 376.215> 717.3 18G<360.873 499.516>
VStem: 376.215 123.301<345.613 507.613> 383.414 116.102<38.7 211.513>
LayerCount: 2
Fore
SplineSet
383.4140625 213.763671875 m 0
 384.655273438 213.763671875 385.6640625 212.754882812 385.6640625 211.513671875 c 2
 385.6640625 40.9501953125 l 1
 497.265625 40.9501953125 l 1
 497.265625 733.049804688 l 1
 372.142578125 733.049804688 l 1
 84.828125 212.86328125 l 1
 381.583007812 212.86328125 l 2
 382.055664062 213.336914062 382.61328125 213.763671875 383.4140625 213.763671875 c 0
291.76953125 350.44921875 m 1
 373.96484375 347.93359375 l 1
 373.96484375 498.904296875 l 1
 291.76953125 350.44921875 l 1
285.764648438 348.313476562 m 0
 285.764648438 348.70703125 285.866210938 349.078125 286.044921875 349.400390625 c 2
 374.245117188 508.700195312 l 2
 374.62890625 509.393554688 375.3671875 509.86328125 376.21484375 509.86328125 c 0
 377.456054688 509.86328125 378.46484375 508.85546875 378.46484375 507.61328125 c 2
 378.46484375 345.61328125 l 2
 378.46484375 344.37109375 377.456054688 343.32421875 376.14453125 343.364257812 c 2
 287.944335938 346.064453125 l 2
 286.735351562 346.1015625 285.764648438 347.094726562 285.764648438 348.313476562 c 0
381.1640625 208.36328125 m 1
 81.0146484375 208.36328125 l 2
 79.7724609375 208.36328125 78.7646484375 209.37109375 78.7646484375 210.61328125 c 0
 78.7646484375 211.006835938 78.8662109375 211.376953125 79.0439453125 211.698242188 c 2
 368.84375 736.385742188 l 2
 369.227539062 737.079101562 369.966796875 737.549804688 370.814453125 737.549804688 c 2
 499.515625 737.549804688 l 2
 500.7578125 737.549804688 501.765625 736.541992188 501.765625 735.299804688 c 2
 501.765625 38.7001953125 l 2
 501.765625 37.4580078125 500.7578125 36.4501953125 499.515625 36.4501953125 c 2
 383.4140625 36.4501953125 l 2
 382.171875 36.4501953125 381.1640625 37.4580078125 381.1640625 38.7001953125 c 2
 381.1640625 208.36328125 l 1
EndSplineSet
EndChar

StartChar: five
Encoding: 53 53 20
Width: 384
VWidth: 0
Flags: HW
HStem: 41.55 135.9<65.9 147.376> 598.65 136.8<202.7 351.2>
VStem: 65.9 136.8<463.284 598.65> 185.6 135.9<215.309 331.405>
LayerCount: 2
Fore
SplineSet
89.2998046875 43.7998046875 m 0
 216.765625 43.7998046875 319.25 146.294921875 319.25 272.849609375 c 0
 319.25 359.3125 272.014648438 434.168945312 201.607421875 473.3828125 c 0
 200.916992188 473.767578125 200.450195312 474.504882812 200.450195312 475.349609375 c 2
 200.450195312 598.650390625 l 2
 200.450195312 599.891601562 201.458007812 600.900390625 202.700195312 600.900390625 c 2
 348.96484375 600.900390625 l 1
 349.834960938 733.200195312 l 1
 68.599609375 733.200195312 l 2
 68.4716796875 733.030273438 68.3203125 732.877929688 68.150390625 732.75 c 2
 68.150390625 369.279296875 l 1
 74.8154296875 370.698242188 82.056640625 371.400390625 89.2998046875 371.400390625 c 0
 144.52734375 371.400390625 187.849609375 328.078125 187.849609375 272.849609375 c 0
 187.849609375 218.505859375 144.517578125 175.200195312 89.2998046875 175.200195312 c 0
 82.056640625 175.200195312 74.8154296875 175.901367188 68.150390625 177.3203125 c 1
 68.150390625 44.48046875 l 1
 75.30859375 43.802734375 81.880859375 43.7998046875 89.2998046875 43.7998046875 c 0
63.650390625 42.4501953125 m 2
 63.650390625 180.150390625 l 2
 63.650390625 181.391601562 64.658203125 182.400390625 65.900390625 182.400390625 c 0
 66.0888671875 182.400390625 66.271484375 182.376953125 66.4462890625 182.333007812 c 0
 73.435546875 180.5859375 81.369140625 179.700195312 89.2998046875 179.700195312 c 0
 142.08203125 179.700195312 183.349609375 220.994140625 183.349609375 272.849609375 c 0
 183.349609375 325.622070312 142.072265625 366.900390625 89.2998046875 366.900390625 c 0
 81.369140625 366.900390625 73.435546875 366.014648438 66.4462890625 364.266601562 c 0
 66.271484375 364.223632812 66.0888671875 364.200195312 65.900390625 364.200195312 c 0
 64.658203125 364.200195312 63.650390625 365.208007812 63.650390625 366.450195312 c 2
 63.650390625 734.549804688 l 2
 63.650390625 735.40234375 64.125 736.14453125 64.82421875 736.526367188 c 0
 65.2060546875 737.225585938 65.9482421875 737.700195312 66.7998046875 737.700195312 c 2
 352.099609375 737.700195312 l 2
 353.341796875 737.700195312 354.349609375 736.69140625 354.349609375 735.450195312 c 2
 353.450195312 598.634765625 l 2
 353.44140625 597.400390625 352.436523438 596.400390625 351.200195312 596.400390625 c 2
 204.950195312 596.400390625 l 1
 204.950195312 476.66796875 l 1
 276.102539062 436.508789062 323.75 360.513671875 323.75 272.849609375 c 0
 323.75 143.8046875 219.234375 39.2998046875 89.2998046875 39.2998046875 c 0
 81.2041015625 39.2998046875 73.8740234375 39.2998046875 65.6494140625 40.2138671875 c 0
 64.525390625 40.3388671875 63.650390625 41.29296875 63.650390625 42.4501953125 c 2
EndSplineSet
EndChar

StartChar: six
Encoding: 54 54 21
Width: 729
VWidth: 0
Flags: HW
HStem: 588.7 144.9<338.752 530.322>
VStem: 80.45 201.6<263.968 330.271> 478.25 150.3<214.284 328.614>
LayerCount: 2
Fore
SplineSet
396.3515625 26.650390625 m 0
 405.813476562 26.650390625 414.578125 27.5498046875 424.25 27.5498046875 c 0
 454.290039062 27.5498046875 483.741210938 37.8759765625 512.41796875 57.7861328125 c 0
 512.466796875 57.8203125 512.516601562 57.8525390625 512.568359375 57.8818359375 c 0
 561.1875 86.2265625 598.313476562 131.846679688 615.60546875 186.305664062 c 0
 622.5546875 208.19140625 626.299804688 231.505859375 626.299804688 255.700195312 c 0
 626.299804688 273.490234375 624.302734375 290.793945312 620.521484375 307.399414062 c 0
 597.204101562 409.76953125 506.025390625 485.650390625 396.349609375 485.650390625 c 0
 395.1484375 485.650390625 393.946289062 485.650390625 392.745117188 485.650390625 c 0
 387.231445312 485.650390625 382.247070312 485.48046875 376.8203125 485.11328125 c 0
 315.611328125 480.969726562 261.15234375 453.118164062 222.487304688 410.618164062 c 0
 222.075195312 410.165039062 221.481445312 409.880859375 220.822265625 409.880859375 c 0
 219.580078125 409.880859375 218.572265625 410.889648438 218.572265625 412.130859375 c 0
 218.572265625 412.251953125 218.58203125 412.370117188 218.600585938 412.486328125 c 0
 234.633789062 513.505859375 320.19921875 590.950195312 424.25 590.950195312 c 0
 446.482421875 590.950195312 505.389648438 587.556640625 529.099609375 580.8671875 c 1
 529.099609375 725.279296875 l 1
 506.640625 729.208007812 445.950195312 731.349609375 424.25 731.349609375 c 0
 235.646484375 731.349609375 82.7001953125 574.013671875 82.7001953125 379.900390625 c 0
 82.7001953125 250.703125 149.842773438 138.029296875 249.993164062 76.7060546875 c 0
 250.068359375 76.66015625 250.139648438 76.6103515625 250.208007812 76.556640625 c 0
 285.46484375 48.890625 329.123046875 31.083984375 376.85546875 27.1845703125 c 0
 382.200195312 26.7490234375 387.24609375 26.650390625 392.75 26.650390625 c 0
 393.950195312 26.650390625 395.151367188 26.650390625 396.3515625 26.650390625 c 0
378.939453125 365.944335938 m 0
 372.095703125 365.944335938 365.268554688 364.859375 359.096679688 363.317382812 c 0
 358.921875 363.2734375 358.73828125 363.25 358.549804688 363.25 c 0
 358.0625 363.25 357.610351562 363.405273438 357.2421875 363.669921875 c 0
 314.986328125 354.336914062 284.299804688 317.404296875 284.299804688 271.900390625 c 0
 284.299804688 240.759765625 299.180664062 213.454101562 322.469726562 196.591796875 c 0
 331.670898438 191.16015625 341.328125 186.4453125 351.373046875 182.51953125 c 0
 353.301757812 181.963867188 355.2578125 181.465820312 357.239257812 181.028320312 c 0
 357.608398438 181.293945312 358.061523438 181.450195312 358.549804688 181.450195312 c 0
 358.73828125 181.450195312 358.921875 181.426757812 359.096679688 181.3828125 c 0
 365.555664062 179.768554688 372.823242188 178.888671875 380.1484375 178.765625 c 0
 387.42578125 178.893554688 394.424804688 179.834960938 401.211914062 181.50390625 c 0
 401.384765625 181.545898438 401.564453125 181.568359375 401.75 181.568359375 c 0
 402.29296875 181.568359375 402.791015625 181.375976562 403.1796875 181.055664062 c 0
 445.3828125 190.418945312 476 227.229492188 476 271.900390625 c 0
 476 317.360351562 445.373046875 354.264648438 403.181640625 363.642578125 c 0
 402.791992188 363.321289062 402.29296875 363.127929688 401.75 363.127929688 c 0
 401.564453125 363.127929688 401.383789062 363.150390625 401.2109375 363.193359375 c 0
 394.423828125 364.864257812 387.346679688 365.806640625 380.069335938 365.934570312 c 0
 379.692382812 365.934570312 379.315429688 365.944335938 378.939453125 365.944335938 c 0
78.2001953125 379.900390625 m 0
 78.2001953125 576.38671875 233.053710938 735.849609375 424.25 735.849609375 c 0
 446.875 735.849609375 510.0703125 733.6796875 531.791015625 729.35546875 c 0
 532.822265625 729.150390625 533.599609375 728.239257812 533.599609375 727.1484375 c 2
 533.599609375 577.815429688 l 2
 533.599609375 576.57421875 532.591796875 575.565429688 531.349609375 575.565429688 c 0
 531.094726562 575.565429688 530.849609375 575.608398438 530.622070312 575.686523438 c 0
 510.712890625 582.50390625 447.016601562 586.450195312 424.25 586.450195312 c 0
 325.057617188 586.450195312 242.958984375 514.47265625 224.352539062 419.172851562 c 1
 263.393554688 459.390625 316.811523438 485.560546875 376.51171875 489.602539062 c 0
 382.022460938 489.975585938 387.125 490.150390625 392.754882812 490.150390625 c 0
 393.953125 490.150390625 395.151367188 490.150390625 396.349609375 490.150390625 c 0
 508.150390625 490.150390625 601.135742188 412.77734375 624.909179688 308.401367188 c 0
 628.764648438 291.47265625 630.799804688 273.833984375 630.799804688 255.700195312 c 0
 630.799804688 231.032226562 626.981445312 207.260742188 619.89453125 184.944335938 c 0
 602.272460938 129.442382812 564.443359375 82.94140625 514.907226562 54.0361328125 c 0
 488.516601562 35.73046875 428.171875 22.5791015625 423.6484375 22.5791015625 c 1
 423.790039062 22.642578125 423.990234375 22.9609375 424.25 23.0498046875 c 1
 422.104492188 23.0498046875 419.962890625 23.0703125 417.826171875 23.1103515625 c 0
 410.755859375 22.474609375 403.590820312 22.150390625 396.348632812 22.150390625 c 0
 395.149414062 22.150390625 393.94921875 22.150390625 392.75 22.150390625 c 0
 387.125976562 22.150390625 382.052734375 22.2451171875 376.485351562 22.7001953125 c 0
 327.91015625 26.66796875 283.461914062 44.775390625 247.537109375 72.93359375 c 1
 146.112304688 135.08984375 78.2001953125 249.170898438 78.2001953125 379.900390625 c 0
480.5 271.900390625 m 0
 480.5 224.415039062 447.41015625 185.334960938 402.1953125 176.247070312 c 0
 402.05078125 176.217773438 401.90234375 176.203125 401.75 176.203125 c 0
 401.227539062 176.203125 400.74609375 176.381835938 400.36328125 176.681640625 c 0
 393.833984375 175.215820312 387.005859375 174.388671875 380.071289062 174.266601562 c 0
 373.09765625 174.383789062 366.172851562 175.15234375 359.80859375 176.587890625 c 0
 359.44921875 176.344726562 359.015625 176.203125 358.549804688 176.203125 c 0
 355.793945312 176.203125 352.28515625 177.33203125 349.833984375 178.2890625 c 0
 339.49609375 182.323242188 329.55859375 187.174804688 320.095703125 192.767578125 c 0
 320.036132812 192.802734375 319.978515625 192.83984375 319.922851562 192.880859375 c 0
 295.436523438 210.569335938 279.799804688 239.255859375 279.799804688 271.900390625 c 0
 279.799804688 320.155273438 312.879882812 359.348632812 358.104492188 368.451171875 c 0
 358.248046875 368.48046875 358.397460938 368.495117188 358.549804688 368.495117188 c 0
 359.012695312 368.495117188 359.443359375 368.35546875 359.80078125 368.115234375 c 0
 365.767578125 369.49609375 372.2890625 370.444335938 378.939453125 370.444335938 c 0
 379.342773438 370.444335938 379.74609375 370.43359375 380.150390625 370.43359375 c 0
 387.083984375 370.311523438 393.845703125 369.484375 400.36328125 368.016601562 c 0
 400.745117188 368.31640625 401.2265625 368.495117188 401.75 368.495117188 c 0
 401.90234375 368.495117188 402.051757812 368.48046875 402.1953125 368.451171875 c 0
 447.420898438 359.348632812 480.5 320.155273438 480.5 271.900390625 c 0
EndSplineSet
EndChar

StartChar: seven
Encoding: 55 55 22
Width: 610
VWidth: 0
Flags: HW
HStem: 587.1 136.8<75.5 380.6>
LayerCount: 2
Fore
SplineSet
532.25 721.650390625 m 1
 77.75 721.650390625 l 1
 77.75 589.349609375 l 1
 380.599609375 589.349609375 l 2
 381.841796875 589.349609375 382.849609375 588.341796875 382.849609375 587.099609375 c 0
 382.849609375 586.705078125 382.748046875 586.333984375 382.569335938 586.01171875 c 2
 80.21875 40.349609375 l 1
 220.891601562 40.349609375 l 1
 532.25 587.6953125 l 1
 532.25 721.650390625 l 1
222.200195312 35.849609375 m 2
 76.400390625 35.849609375 l 2
 75.158203125 35.849609375 74.150390625 36.8583984375 74.150390625 38.099609375 c 0
 74.150390625 38.494140625 74.251953125 38.865234375 74.4306640625 39.1884765625 c 2
 376.78125 584.849609375 l 1
 75.5 584.849609375 l 2
 74.2578125 584.849609375 73.25 585.858398438 73.25 587.099609375 c 2
 73.25 723.900390625 l 2
 73.25 725.141601562 74.2578125 726.150390625 75.5 726.150390625 c 2
 534.5 726.150390625 l 2
 535.7421875 726.150390625 536.75 725.141601562 536.75 723.900390625 c 2
 536.75 587.099609375 l 2
 536.75 586.696289062 536.643554688 586.317382812 536.45703125 585.990234375 c 2
 224.157226562 36.990234375 l 2
 223.770507812 36.3095703125 223.038085938 35.849609375 222.200195312 35.849609375 c 2
EndSplineSet
EndChar

StartChar: eight
Encoding: 56 56 23
Width: 616
VWidth: 0
Flags: HW
HStem: 366.685 82.8313<288.712 331.274>
VStem: 76 135.9<213.826 328.743 487.095 602.004> 408.1 135.9<212.66 328.743 487.095 603.178>
LayerCount: 2
Fore
SplineSet
290.9921875 322.94140625 m 0
 290.547851562 322.94140625 290.133789062 323.0703125 289.78515625 323.29296875 c 0
 252.780273438 315.065429688 225.921875 282.701171875 225.921875 242.823242188 c 0
 225.921875 203.64453125 252.76953125 171.362304688 289.784179688 163.146484375 c 0
 290.1328125 163.369140625 290.547851562 163.499023438 290.9921875 163.499023438 c 0
 291.180664062 163.499023438 291.36328125 163.475585938 291.5390625 163.431640625 c 0
 297.19921875 162.016601562 303.575195312 161.244140625 310.002929688 161.134765625 c 0
 316.38671875 161.248046875 322.516601562 162.07421875 328.469726562 163.537109375 c 0
 328.642578125 163.580078125 328.822265625 163.602539062 329.0078125 163.602539062 c 0
 329.501953125 163.602539062 329.958984375 163.442382812 330.331054688 163.171875 c 0
 367.286132812 171.428710938 394.078125 203.685546875 394.078125 242.823242188 c 0
 394.078125 282.659179688 367.27734375 314.99609375 330.333007812 323.266601562 c 0
 329.9609375 322.995117188 329.502929688 322.834960938 329.0078125 322.834960938 c 0
 328.822265625 322.834960938 328.641601562 322.857421875 328.46875 322.899414062 c 0
 322.516601562 324.366210938 316.307617188 325.19140625 309.923828125 325.3046875 c 0
 303.49609375 325.196289062 297.200195312 324.423828125 291.538085938 323.008789062 c 0
 291.36328125 322.96484375 291.180664062 322.94140625 290.9921875 322.94140625 c 0
290.9921875 564.500976562 m 0
 290.547851562 564.500976562 290.133789062 564.629882812 289.78515625 564.852539062 c 0
 252.780273438 556.625976562 225.921875 524.260742188 225.921875 484.383789062 c 0
 225.921875 445.205078125 252.76953125 412.923828125 289.784179688 404.706054688 c 0
 290.1328125 404.928710938 290.547851562 405.057617188 290.9921875 405.057617188 c 0
 291.180664062 405.057617188 291.36328125 405.03515625 291.5390625 404.991210938 c 0
 297.19921875 403.575195312 303.575195312 402.803710938 310.001953125 402.696289062 c 0
 316.385742188 402.80859375 322.516601562 403.633789062 328.469726562 405.09765625 c 0
 328.642578125 405.140625 328.822265625 405.163085938 329.0078125 405.163085938 c 0
 329.502929688 405.163085938 329.959960938 405.002929688 330.33203125 404.731445312 c 0
 367.286132812 412.991210938 394.078125 445.24609375 394.078125 484.383789062 c 0
 394.078125 524.21875 367.27734375 556.556640625 330.333007812 564.826171875 c 0
 329.9609375 564.5546875 329.502929688 564.39453125 329.0078125 564.39453125 c 0
 328.822265625 564.39453125 328.641601562 564.416992188 328.46875 564.458984375 c 0
 322.516601562 565.92578125 316.306640625 566.751953125 309.923828125 566.864257812 c 0
 303.49609375 566.755859375 297.19921875 565.984375 291.5390625 564.568359375 c 0
 291.364257812 564.524414062 291.180664062 564.500976562 290.9921875 564.500976562 c 0
513.669921875 242.823242188 m 0
 513.669921875 287.740234375 499.188476562 329.123046875 474.622070312 362.584960938 c 0
 474.348632812 362.958007812 474.186523438 363.41796875 474.186523438 363.915039062 c 0
 474.186523438 364.413085938 474.349609375 364.874023438 474.624023438 365.247070312 c 0
 499.190429688 398.596679688 513.669921875 439.790039062 513.669921875 484.383789062 c 0
 513.669921875 596.401367188 423.6015625 686.469726562 311.583984375 686.469726562 c 0
 310.526367188 686.469726562 309.46875 686.469726562 308.41015625 686.469726562 c 0
 303.576171875 686.469726562 299.151367188 686.383789062 294.447265625 686 c 0
 189.021484375 678.862304688 106.330078125 591.696289062 106.330078125 484.383789062 c 0
 106.330078125 439.790039062 120.809570312 398.596679688 145.375976562 365.247070312 c 0
 145.650390625 364.874023438 145.813476562 364.413085938 145.813476562 363.915039062 c 0
 145.813476562 363.41796875 145.651367188 362.958007812 145.377929688 362.584960938 c 0
 120.811523438 329.123046875 106.330078125 287.740234375 106.330078125 242.823242188 c 0
 106.330078125 136.275390625 188.987304688 49.1357421875 294.420898438 42.0009765625 c 0
 299.131835938 41.6181640625 303.57421875 41.5302734375 308.416015625 41.5302734375 c 0
 309.47265625 41.5302734375 310.528320312 41.5302734375 311.584960938 41.5302734375 c 0
 423.606445312 41.5302734375 513.669921875 131.60546875 513.669921875 242.823242188 c 0
101.830078125 242.823242188 m 0
 101.830078125 288.1328125 116.25 329.935546875 140.779296875 363.912109375 c 1
 116.250976562 397.772460938 101.830078125 439.387695312 101.830078125 484.383789062 c 0
 101.830078125 594.06640625 186.314453125 683.189453125 294.077148438 690.485351562 c 0
 298.984375 690.884765625 303.458007812 690.969726562 308.421875 690.969726562 c 0
 309.475585938 690.969726562 310.530273438 690.969726562 311.583984375 690.969726562 c 0
 426.078125 690.969726562 518.169921875 598.877929688 518.169921875 484.383789062 c 0
 518.169921875 439.387695312 503.749023438 397.772460938 479.220703125 363.912109375 c 1
 503.75 329.935546875 518.169921875 288.1328125 518.169921875 242.823242188 c 0
 518.169921875 129.115234375 426.073242188 37.0302734375 311.583007812 37.0302734375 c 0
 310.52734375 37.0302734375 309.471679688 37.0302734375 308.416015625 37.0302734375 c 0
 303.462890625 37.0302734375 299.008789062 37.11328125 294.11328125 37.51171875 c 0
 186.3515625 44.8037109375 101.830078125 133.891601562 101.830078125 242.823242188 c 0
329.0078125 328.098632812 m 0
 329.161132812 328.098632812 329.309570312 328.083007812 329.454101562 328.0546875 c 0
 369.376953125 320.018554688 398.578125 285.416015625 398.578125 242.823242188 c 0
 398.578125 200.908203125 369.366210938 166.40625 329.453125 158.385742188 c 0
 329.309570312 158.356445312 329.16015625 158.340820312 329.0078125 158.340820312 c 0
 328.532226562 158.340820312 328.091796875 158.489257812 327.727539062 158.741210938 c 0
 321.998046875 157.46484375 316.004882812 156.743164062 309.924804688 156.635742188 c 0
 303.811523438 156.739257812 297.741210938 157.409179688 292.149414062 158.662109375 c 0
 291.811523438 158.458007812 291.415039062 158.340820312 290.9921875 158.340820312 c 0
 290.83984375 158.340820312 290.690429688 158.356445312 290.546875 158.385742188 c 0
 250.633789062 166.40625 221.421875 200.908203125 221.421875 242.823242188 c 0
 221.421875 285.416015625 250.623046875 320.018554688 290.545898438 328.0546875 c 0
 290.690429688 328.083007812 290.838867188 328.098632812 290.9921875 328.098632812 c 0
 291.415039062 328.098632812 291.810546875 327.981445312 292.149414062 327.778320312 c 0
 297.752929688 329.030273438 303.889648438 329.701171875 310.004882812 329.803710938 c 0
 316.08203125 329.696289062 322.009765625 328.9765625 327.7265625 327.697265625 c 0
 328.08984375 327.950195312 328.532226562 328.098632812 329.0078125 328.098632812 c 0
329.0078125 569.658203125 m 0
 329.161132812 569.658203125 329.309570312 569.642578125 329.454101562 569.61328125 c 0
 369.376953125 561.579101562 398.578125 526.975585938 398.578125 484.383789062 c 0
 398.578125 442.46875 369.366210938 407.967773438 329.453125 399.944335938 c 0
 329.309570312 399.916015625 329.16015625 399.900390625 329.0078125 399.900390625 c 0
 328.532226562 399.900390625 328.090820312 400.048828125 327.727539062 400.30078125 c 0
 321.998046875 399.024414062 316.00390625 398.303710938 309.92578125 398.197265625 c 0
 303.8125 398.298828125 297.741210938 398.96875 292.149414062 400.221679688 c 0
 291.811523438 400.017578125 291.415039062 399.900390625 290.9921875 399.900390625 c 0
 290.83984375 399.900390625 290.690429688 399.916015625 290.546875 399.944335938 c 0
 250.633789062 407.967773438 221.421875 442.46875 221.421875 484.383789062 c 0
 221.421875 526.975585938 250.623046875 561.579101562 290.545898438 569.61328125 c 0
 290.690429688 569.642578125 290.838867188 569.658203125 290.9921875 569.658203125 c 0
 291.415039062 569.658203125 291.810546875 569.541015625 292.1484375 569.337890625 c 0
 297.752929688 570.591796875 303.889648438 571.260742188 310.00390625 571.36328125 c 0
 316.081054688 571.256835938 322.009765625 570.536132812 327.7265625 569.256835938 c 0
 328.08984375 569.509765625 328.532226562 569.658203125 329.0078125 569.658203125 c 0
EndSplineSet
EndChar

StartChar: nine
Encoding: 57 57 24
Width: 729
VWidth: 0
Flags: HW
HStem: 24.4 144.9<178.662 370.463> 715.6 18G<309.042 313.12 316.114 316.783>
VStem: 80.45 150.3<429.386 543.716> 426.95 201.6<280.45 495.227>
LayerCount: 2
Fore
SplineSet
312.6484375 731.349609375 m 0
 303.186523438 731.349609375 294.421875 730.450195312 284.75 730.450195312 c 0
 254.709960938 730.450195312 225.259765625 720.124023438 196.58203125 700.213867188 c 0
 196.533203125 700.1796875 196.483398438 700.147460938 196.431640625 700.118164062 c 0
 147.8125 671.772460938 110.686523438 626.15234375 93.39453125 571.694335938 c 0
 86.4453125 549.80859375 82.7001953125 526.494140625 82.7001953125 502.299804688 c 0
 82.7001953125 484.509765625 84.697265625 467.206054688 88.478515625 450.600585938 c 0
 111.795898438 348.23046875 202.974609375 272.349609375 312.650390625 272.349609375 c 0
 313.8515625 272.349609375 315.053710938 272.349609375 316.254882812 272.349609375 c 0
 321.768554688 272.349609375 326.752929688 272.51953125 332.1796875 272.88671875 c 0
 393.388671875 277.030273438 447.848632812 304.881835938 486.512695312 347.381835938 c 0
 486.924804688 347.834960938 487.517578125 348.119140625 488.177734375 348.119140625 c 0
 489.418945312 348.119140625 490.427734375 347.110351562 490.427734375 345.869140625 c 0
 490.427734375 345.748046875 490.41796875 345.629882812 490.399414062 345.513671875 c 0
 474.366210938 244.493164062 388.80078125 167.049804688 284.75 167.049804688 c 0
 262.517578125 167.049804688 203.610351562 170.443359375 179.900390625 177.1328125 c 1
 179.900390625 32.720703125 l 1
 202.359375 28.7919921875 263.049804688 26.650390625 284.75 26.650390625 c 0
 473.353515625 26.650390625 626.299804688 183.986328125 626.299804688 378.099609375 c 0
 626.299804688 507.296875 559.157226562 619.970703125 459.005859375 681.293945312 c 0
 458.931640625 681.33984375 458.860351562 681.389648438 458.791015625 681.443359375 c 0
 423.53515625 709.109375 379.876953125 726.916015625 332.14453125 730.815429688 c 0
 326.799804688 731.250976562 321.75390625 731.349609375 316.25 731.349609375 c 0
 315.049804688 731.349609375 313.848632812 731.349609375 312.6484375 731.349609375 c 0
330.060546875 392.055664062 m 0
 336.903320312 392.055664062 343.731445312 393.139648438 349.903320312 394.682617188 c 0
 350.078125 394.7265625 350.26171875 394.75 350.450195312 394.75 c 0
 350.9375 394.75 351.389648438 394.594726562 351.7578125 394.330078125 c 0
 394.013671875 403.663085938 424.700195312 440.595703125 424.700195312 486.099609375 c 0
 424.700195312 517.239257812 409.819335938 544.545898438 386.530273438 561.409179688 c 0
 377.329101562 566.83984375 367.671875 571.5546875 357.626953125 575.48046875 c 0
 355.698242188 576.037109375 353.7421875 576.534179688 351.760742188 576.971679688 c 0
 351.391601562 576.706054688 350.938476562 576.549804688 350.450195312 576.549804688 c 0
 350.26171875 576.549804688 350.078125 576.573242188 349.903320312 576.6171875 c 0
 343.444335938 578.232421875 336.176757812 579.111328125 328.8515625 579.234375 c 0
 321.575195312 579.106445312 314.575195312 578.165039062 307.788085938 576.49609375 c 0
 307.615234375 576.454101562 307.435546875 576.431640625 307.25 576.431640625 c 0
 306.70703125 576.431640625 306.208984375 576.624023438 305.8203125 576.944335938 c 0
 263.6171875 567.580078125 233 530.770507812 233 486.099609375 c 0
 233 440.639648438 263.626953125 403.735351562 305.818359375 394.357421875 c 0
 306.208007812 394.678710938 306.70703125 394.872070312 307.25 394.872070312 c 0
 307.435546875 394.872070312 307.616210938 394.849609375 307.7890625 394.806640625 c 0
 314.576171875 393.135742188 321.654296875 392.193359375 328.930664062 392.065429688 c 0
 329.307617188 392.065429688 329.68359375 392.055664062 330.060546875 392.055664062 c 0
630.799804688 378.099609375 m 0
 630.799804688 181.61328125 475.946289062 22.150390625 284.75 22.150390625 c 0
 262.125 22.150390625 198.9296875 24.3203125 177.208984375 28.64453125 c 0
 176.177734375 28.849609375 175.400390625 29.7607421875 175.400390625 30.8515625 c 2
 175.400390625 180.184570312 l 2
 175.400390625 181.42578125 176.408203125 182.434570312 177.650390625 182.434570312 c 0
 177.905273438 182.434570312 178.150390625 182.391601562 178.377929688 182.313476562 c 0
 198.287109375 175.49609375 261.983398438 171.549804688 284.75 171.549804688 c 0
 383.942382812 171.549804688 466.041015625 243.526367188 484.646484375 338.827148438 c 1
 445.606445312 298.609375 392.188476562 272.438476562 332.48828125 268.397460938 c 0
 326.977539062 268.024414062 321.875 267.849609375 316.245117188 267.849609375 c 0
 315.046875 267.849609375 313.848632812 267.849609375 312.650390625 267.849609375 c 0
 200.849609375 267.849609375 107.864257812 345.22265625 84.0908203125 449.598632812 c 0
 80.2353515625 466.52734375 78.2001953125 484.166015625 78.2001953125 502.299804688 c 0
 78.2001953125 526.967773438 82.0185546875 550.739257812 89.10546875 573.055664062 c 0
 106.727539062 628.556640625 144.557617188 675.05859375 194.09375 703.963867188 c 0
 220.483398438 722.26953125 280.828125 735.420898438 285.3515625 735.420898438 c 1
 285.209960938 735.357421875 285.009765625 735.0390625 284.75 734.950195312 c 1
 286.895507812 734.950195312 289.037109375 734.9296875 291.173828125 734.889648438 c 0
 298.245117188 735.525390625 305.409179688 735.849609375 312.651367188 735.849609375 c 0
 313.850585938 735.849609375 315.05078125 735.849609375 316.25 735.849609375 c 0
 321.874023438 735.849609375 326.947265625 735.754882812 332.514648438 735.299804688 c 0
 381.08984375 731.33203125 425.5390625 713.223632812 461.462890625 685.06640625 c 1
 562.88671875 622.91015625 630.799804688 508.829101562 630.799804688 378.099609375 c 0
330.060546875 387.555664062 m 0
 329.657226562 387.555664062 329.25390625 387.56640625 328.850585938 387.56640625 c 0
 321.916992188 387.688476562 315.155273438 388.515625 308.63671875 389.983398438 c 0
 308.254882812 389.68359375 307.7734375 389.504882812 307.25 389.504882812 c 0
 307.09765625 389.504882812 306.948242188 389.51953125 306.8046875 389.548828125 c 0
 261.579101562 398.651367188 228.5 437.844726562 228.5 486.099609375 c 0
 228.5 533.584960938 261.58984375 572.665039062 306.8046875 581.752929688 c 0
 306.94921875 581.782226562 307.09765625 581.796875 307.25 581.796875 c 0
 307.772460938 581.796875 308.25390625 581.618164062 308.63671875 581.318359375 c 0
 315.166015625 582.784179688 321.994140625 583.612304688 328.928710938 583.733398438 c 0
 335.901367188 583.6171875 342.827148438 582.84765625 349.19140625 581.412109375 c 0
 349.55078125 581.655273438 349.984375 581.796875 350.450195312 581.796875 c 0
 353.206054688 581.796875 356.71484375 580.66796875 359.166015625 579.7109375 c 0
 369.50390625 575.676757812 379.440429688 570.825195312 388.904296875 565.232421875 c 0
 388.963867188 565.197265625 389.021484375 565.16015625 389.078125 565.119140625 c 0
 413.563476562 547.430664062 429.200195312 518.744140625 429.200195312 486.099609375 c 0
 429.200195312 437.844726562 396.12109375 398.651367188 350.895507812 389.548828125 c 0
 350.751953125 389.51953125 350.602539062 389.504882812 350.450195312 389.504882812 c 0
 349.987304688 389.504882812 349.557617188 389.64453125 349.19921875 389.884765625 c 0
 343.232421875 388.50390625 336.709960938 387.555664062 330.060546875 387.555664062 c 0
EndSplineSet
EndChar

StartChar: colon
Encoding: 58 58 25
Width: 252
VWidth: 0
Flags: HW
HStem: 25.1 127.8<57.6 194.4> 385.1 127.8<57.6 194.4>
VStem: 57.6 136.8<25.1 152.9 385.1 512.9>
LayerCount: 2
Fore
SplineSet
59.849609375 510.650390625 m 1
 59.849609375 387.349609375 l 1
 192.150390625 387.349609375 l 1
 192.150390625 510.650390625 l 1
 59.849609375 510.650390625 l 1
55.349609375 385.099609375 m 2
 55.349609375 512.900390625 l 2
 55.349609375 514.141601562 56.3583984375 515.150390625 57.599609375 515.150390625 c 2
 194.400390625 515.150390625 l 2
 195.641601562 515.150390625 196.650390625 514.141601562 196.650390625 512.900390625 c 2
 196.650390625 385.099609375 l 2
 196.650390625 383.858398438 195.641601562 382.849609375 194.400390625 382.849609375 c 2
 57.599609375 382.849609375 l 2
 56.3583984375 382.849609375 55.349609375 383.858398438 55.349609375 385.099609375 c 2
59.849609375 150.650390625 m 1
 59.849609375 27.349609375 l 1
 192.150390625 27.349609375 l 1
 192.150390625 150.650390625 l 1
 59.849609375 150.650390625 l 1
55.349609375 25.099609375 m 2
 55.349609375 152.900390625 l 2
 55.349609375 154.141601562 56.3583984375 155.150390625 57.599609375 155.150390625 c 2
 194.400390625 155.150390625 l 2
 195.641601562 155.150390625 196.650390625 154.141601562 196.650390625 152.900390625 c 2
 196.650390625 25.099609375 l 2
 196.650390625 23.8583984375 195.641601562 22.849609375 194.400390625 22.849609375 c 2
 57.599609375 22.849609375 l 2
 56.3583984375 22.849609375 55.349609375 23.8583984375 55.349609375 25.099609375 c 2
EndSplineSet
EndChar

StartChar: semicolon
Encoding: 59 59 26
Width: 252
VWidth: 0
Flags: HW
HStem: 378.5 127.8<57.6 194.4>
VStem: 57.6 136.8<18.5 146.3 378.5 506.3>
LayerCount: 2
Fore
SplineSet
59.849609375 144.049804688 m 1
 59.849609375 20.75 l 1
 96.0908203125 20.75 l 2
 97.33203125 20.75 98.3408203125 19.7421875 98.3408203125 18.5 c 0
 98.3408203125 18.447265625 98.3388671875 18.3955078125 98.3349609375 18.3447265625 c 2
 90.5986328125 -94.6103515625 l 1
 138.997070312 -97.9482421875 l 1
 192.150390625 18.98828125 l 1
 192.150390625 144.049804688 l 1
 59.849609375 144.049804688 l 1
55.349609375 18.5 m 2
 55.349609375 146.299804688 l 2
 55.349609375 147.541992188 56.3583984375 148.549804688 57.599609375 148.549804688 c 2
 194.400390625 148.549804688 l 2
 195.641601562 148.549804688 196.650390625 147.541992188 196.650390625 146.299804688 c 2
 196.650390625 18.5 l 2
 196.650390625 18.1689453125 196.578125 17.8544921875 196.44921875 17.5712890625 c 2
 142.44921875 -101.229492188 l 2
 142.095703125 -102.0078125 141.310546875 -102.549804688 140.400390625 -102.549804688 c 0
 140.34765625 -102.549804688 140.294921875 -102.547851562 140.243164062 -102.544921875 c 2
 88.04296875 -98.9443359375 l 2
 86.8740234375 -98.8642578125 85.9501953125 -97.888671875 85.9501953125 -96.7001953125 c 0
 85.9501953125 -96.6474609375 85.9521484375 -96.595703125 85.955078125 -96.5439453125 c 2
 93.6806640625 16.25 l 1
 57.599609375 16.25 l 2
 56.3583984375 16.25 55.349609375 17.2578125 55.349609375 18.5 c 2
59.849609375 504.049804688 m 1
 59.849609375 380.75 l 1
 192.150390625 380.75 l 1
 192.150390625 504.049804688 l 1
 59.849609375 504.049804688 l 1
55.349609375 378.5 m 2
 55.349609375 506.299804688 l 2
 55.349609375 507.541992188 56.3583984375 508.549804688 57.599609375 508.549804688 c 2
 194.400390625 508.549804688 l 2
 195.641601562 508.549804688 196.650390625 507.541992188 196.650390625 506.299804688 c 2
 196.650390625 378.5 l 2
 196.650390625 377.2578125 195.641601562 376.25 194.400390625 376.25 c 2
 57.599609375 376.25 l 2
 56.3583984375 376.25 55.349609375 377.2578125 55.349609375 378.5 c 2
EndSplineSet
EndChar

StartChar: less
Encoding: 60 60 27
Width: 644
VWidth: 0
Flags: HW
LayerCount: 2
Fore
SplineSet
371.856445312 338.447265625 m 0
 371.856445312 339.491210938 372.568359375 340.370117188 373.533203125 340.623046875 c 2
 564.549804688 390.834960938 l 1
 564.549804688 522.981445312 l 1
 79.4501953125 395.46484375 l 1
 79.4501953125 261.354492188 l 1
 564.549804688 166.831054688 l 1
 564.549804688 299.045898438 l 1
 373.673828125 336.23828125 l 2
 372.638671875 336.440429688 371.856445312 337.352539062 371.856445312 338.447265625 c 0
569.049804688 525.900390625 m 2
 569.049804688 389.099609375 l 2
 569.049804688 388.055664062 568.337890625 387.177734375 567.373046875 386.923828125 c 2
 384.198242188 338.7734375 l 1
 567.232421875 303.108398438 l 2
 568.267578125 302.90625 569.049804688 301.994140625 569.049804688 300.900390625 c 2
 569.049804688 164.099609375 l 2
 569.049804688 162.858398438 568.041992188 161.849609375 566.799804688 161.849609375 c 0
 566.65234375 161.849609375 566.5078125 161.864257812 566.368164062 161.891601562 c 2
 76.767578125 257.291992188 l 2
 75.732421875 257.493164062 74.9501953125 258.40625 74.9501953125 259.5 c 2
 74.9501953125 397.200195312 l 2
 74.9501953125 398.244140625 75.662109375 399.123046875 76.626953125 399.375976562 c 2
 566.227539062 528.076171875 l 2
 566.41015625 528.124023438 566.602539062 528.150390625 566.799804688 528.150390625 c 0
 568.041992188 528.150390625 569.049804688 527.141601562 569.049804688 525.900390625 c 2
EndSplineSet
EndChar

StartChar: equal
Encoding: 61 61 28
Width: 644
VWidth: 0
Flags: HW
HStem: 164.1 136.8<77.2 566.8> 389.1 136.8<77.2 566.8>
LayerCount: 2
Fore
SplineSet
564.549804688 166.349609375 m 1
 564.549804688 298.650390625 l 1
 79.4501953125 298.650390625 l 1
 79.4501953125 166.349609375 l 1
 564.549804688 166.349609375 l 1
569.049804688 300.900390625 m 2
 569.049804688 164.099609375 l 2
 569.049804688 162.858398438 568.041992188 161.849609375 566.799804688 161.849609375 c 2
 77.2001953125 161.849609375 l 2
 75.9580078125 161.849609375 74.9501953125 162.858398438 74.9501953125 164.099609375 c 2
 74.9501953125 300.900390625 l 2
 74.9501953125 302.141601562 75.9580078125 303.150390625 77.2001953125 303.150390625 c 2
 566.799804688 303.150390625 l 2
 568.041992188 303.150390625 569.049804688 302.141601562 569.049804688 300.900390625 c 2
564.549804688 391.349609375 m 1
 564.549804688 523.650390625 l 1
 79.4501953125 523.650390625 l 1
 79.4501953125 391.349609375 l 1
 564.549804688 391.349609375 l 1
569.049804688 525.900390625 m 2
 569.049804688 389.099609375 l 2
 569.049804688 387.858398438 568.041992188 386.849609375 566.799804688 386.849609375 c 2
 77.2001953125 386.849609375 l 2
 75.9580078125 386.849609375 74.9501953125 387.858398438 74.9501953125 389.099609375 c 2
 74.9501953125 525.900390625 l 2
 74.9501953125 527.141601562 75.9580078125 528.150390625 77.2001953125 528.150390625 c 2
 566.799804688 528.150390625 l 2
 568.041992188 528.150390625 569.049804688 527.141601562 569.049804688 525.900390625 c 2
EndSplineSet
EndChar

StartChar: greater
Encoding: 62 62 29
Width: 644
VWidth: 0
Flags: HW
LayerCount: 2
Fore
SplineSet
272.049804688 338.700195312 m 0
 272.049804688 337.607421875 271.268554688 336.6953125 270.235351562 336.4921875 c 2
 79.4501953125 299.047851562 l 1
 79.4501953125 166.831054688 l 1
 564.549804688 261.354492188 l 1
 564.549804688 395.46484375 l 1
 79.4501953125 522.981445312 l 1
 79.4501953125 390.837890625 l 1
 270.370117188 340.876953125 l 2
 271.3359375 340.624023438 272.049804688 339.745117188 272.049804688 338.700195312 c 0
569.049804688 397.200195312 m 2
 569.049804688 259.5 l 2
 569.049804688 258.40625 568.267578125 257.493164062 567.232421875 257.291992188 c 2
 77.6318359375 161.891601562 l 2
 77.4921875 161.864257812 77.34765625 161.849609375 77.2001953125 161.849609375 c 0
 75.9580078125 161.849609375 74.9501953125 162.858398438 74.9501953125 164.099609375 c 2
 74.9501953125 300.900390625 l 2
 74.9501953125 301.993164062 75.7314453125 302.905273438 76.7646484375 303.107421875 c 2
 259.712890625 339.013671875 l 1
 76.6298828125 386.922851562 l 2
 75.6640625 387.17578125 74.9501953125 388.055664062 74.9501953125 389.099609375 c 2
 74.9501953125 525.900390625 l 2
 74.9501953125 527.141601562 75.9580078125 528.150390625 77.2001953125 528.150390625 c 0
 77.3974609375 528.150390625 77.58984375 528.124023438 77.7724609375 528.076171875 c 2
 567.373046875 399.375976562 l 2
 568.337890625 399.123046875 569.049804688 398.244140625 569.049804688 397.200195312 c 2
EndSplineSet
EndChar

StartChar: question
Encoding: 63 63 30
Width: 384
VWidth: 0
Flags: HW
HStem: 39.55 127.8<64.2 201> 248.35 214.2<64.2 149.194> 651.55 135.9<64.2 145.676>
VStem: 64.2 136.8<39.55 167.35 248.35 365.342> 183.9 135.9<499.435 613.691>
LayerCount: 2
Fore
SplineSet
66.4501953125 165.099609375 m 1
 66.4501953125 41.7998046875 l 1
 198.75 41.7998046875 l 1
 198.75 165.099609375 l 1
 66.4501953125 165.099609375 l 1
61.9501953125 39.5498046875 m 2
 61.9501953125 167.349609375 l 2
 61.9501953125 168.591796875 62.9580078125 169.599609375 64.2001953125 169.599609375 c 2
 201 169.599609375 l 2
 202.2421875 169.599609375 203.25 168.591796875 203.25 167.349609375 c 2
 203.25 39.5498046875 l 2
 203.25 38.30859375 202.2421875 37.2998046875 201 37.2998046875 c 2
 64.2001953125 37.2998046875 l 2
 62.9580078125 37.2998046875 61.9501953125 38.30859375 61.9501953125 39.5498046875 c 2
198.75 250.599609375 m 1
 198.75 353.265625 l 2
 198.75 354.111328125 199.216796875 354.84765625 199.90625 355.232421875 c 0
 270.223632812 394.459960938 317.549804688 469.534179688 317.549804688 556.150390625 c 0
 317.549804688 682.705078125 215.06640625 785.200195312 87.599609375 785.200195312 c 0
 80.1806640625 785.200195312 73.6083984375 784.51953125 66.4501953125 784.51953125 c 1
 66.4501953125 651.6796875 l 1
 73.115234375 653.098632812 80.3564453125 653.799804688 87.599609375 653.799804688 c 0
 142.818359375 653.799804688 186.150390625 610.494140625 186.150390625 556.150390625 c 0
 186.150390625 500.921875 142.828125 457.599609375 87.599609375 457.599609375 c 0
 80.3564453125 457.599609375 73.115234375 458.301757812 66.4501953125 459.720703125 c 1
 66.4501953125 250.599609375 l 1
 198.75 250.599609375 l 1
87.1787109375 789.700195312 m 0
 87.3193359375 789.700195312 87.458984375 789.700195312 87.599609375 789.700195312 c 0
 217.534179688 789.700195312 322.049804688 685.1953125 322.049804688 556.150390625 c 0
 322.049804688 468.3359375 274.317382812 392.125976562 203.25 351.94921875 c 1
 203.25 248.349609375 l 2
 203.25 247.108398438 202.2421875 246.099609375 201 246.099609375 c 2
 64.2001953125 246.099609375 l 2
 62.9580078125 246.099609375 61.9501953125 247.108398438 61.9501953125 248.349609375 c 2
 61.9501953125 462.549804688 l 2
 61.9501953125 463.791992188 62.9580078125 464.799804688 64.2001953125 464.799804688 c 0
 64.388671875 464.799804688 64.5712890625 464.776367188 64.7470703125 464.733398438 c 0
 71.736328125 462.985351562 79.669921875 462.099609375 87.599609375 462.099609375 c 0
 140.372070312 462.099609375 181.650390625 503.377929688 181.650390625 556.150390625 c 0
 181.650390625 608.005859375 140.381835938 649.299804688 87.599609375 649.299804688 c 0
 79.669921875 649.299804688 71.736328125 648.4140625 64.7470703125 646.666992188 c 0
 64.5712890625 646.623046875 64.388671875 646.599609375 64.2001953125 646.599609375 c 0
 62.9580078125 646.599609375 61.9501953125 647.608398438 61.9501953125 648.849609375 c 2
 61.9501953125 786.549804688 l 2
 61.9501953125 787.70703125 62.8251953125 788.661132812 63.94921875 788.786132812 c 0
 72.103515625 789.692382812 79.251953125 789.700195312 87.1787109375 789.700195312 c 0
EndSplineSet
EndChar

StartChar: at
Encoding: 64 64 31
Width: 864
VWidth: 0
Flags: HW
HStem: 252.734 67.5<431.281 468.877> 416.534 63.9<431.281 479.677>
VStem: 351.877 68.4<330.588 406.377> 479.677 74.7096<321.42 416.534> 479.677 68.4<324.392 416.534>
LayerCount: 2
Fore
SplineSet
468.876953125 414.283203125 m 0
 443.056640625 414.283203125 422.52734375 394.557617188 422.52734375 368.833984375 c 0
 422.52734375 343.069335938 443.11328125 322.483398438 468.876953125 322.483398438 c 0
 471.586914062 322.483398438 474.443359375 323.072265625 477.426757812 323.795898438 c 1
 477.426757812 413.805664062 l 1
 474.693359375 414.271484375 471.859375 414.283203125 468.876953125 414.283203125 c 0
469.265625 418.783203125 m 0
 472.205078125 418.783203125 481.926757812 419.384765625 481.926757812 415.633789062 c 2
 481.926757812 322.033203125 l 2
 481.926757812 320.98046875 481.202148438 320.094726562 480.223632812 319.850585938 c 0
 476.627929688 318.951171875 472.856445312 317.983398438 468.876953125 317.983398438 c 0
 440.640625 317.983398438 418.02734375 340.59765625 418.02734375 368.833984375 c 0
 418.02734375 397.109375 440.698242188 418.783203125 468.876953125 418.783203125 c 0
 469.005859375 418.783203125 469.135742188 418.783203125 469.265625 418.783203125 c 0
637.627929688 345.24609375 m 0
 637.927734375 343.754882812 641.20703125 333.248046875 641.2265625 331.049804688 c 0
 641.2265625 330.971679688 641.224609375 330.913085938 641.219726562 330.85546875 c 0
 638.16796875 291.873046875 623.942382812 277.010742188 606.59375 277.010742188 c 0
 582.298828125 277.010742188 554.923828125 305.861328125 552.163085938 323.807617188 c 0
 552.150390625 323.890625 552.141601562 323.974609375 552.138671875 324.059570312 c 2
 545.916015625 478.18359375 l 1
 468.876953125 478.18359375 l 2
 405.1875 478.18359375 354.126953125 431.397460938 354.126953125 368.833984375 c 0
 354.126953125 305.2890625 405.291992188 254.983398438 468.876953125 254.983398438 c 0
 469.400390625 254.983398438 469.8828125 254.8046875 470.265625 254.50390625 c 2
 482.524414062 244.872070312 l 1
 532.896484375 230.083007812 589.9765625 208.711914062 645.01953125 208.711914062 c 0
 678.859375 208.711914062 713.484375 216.288085938 749.71484375 237.212890625 c 1
 769.345703125 281.724609375 779.111328125 330.299804688 779.111328125 378.9921875 c 0
 779.111328125 469.068359375 745.697265625 559.532226562 679.686523438 625.54296875 c 0
 614.416992188 690.8125 528.313476562 723.249023438 441.349609375 723.249023438 c 0
 350.860351562 723.249023438 259.448242188 688.124023438 189.66796875 618.342773438 c 0
 119.544921875 548.220703125 84.4306640625 456.775390625 84.4306640625 366.326171875 c 0
 84.4306640625 279.102539062 117.08203125 192.810546875 182.467773438 127.424804688 c 0
 247.904296875 61.98828125 333.748046875 29.423828125 420.55078125 29.423828125 c 0
 487.155273438 29.423828125 554.334960938 48.603515625 613.26171875 86.8203125 c 1
 607.990234375 93.9970703125 588.486328125 120.205078125 567.67578125 143.879882812 c 0
 547.999023438 166.264648438 527.286132812 185.41015625 517.861328125 185.41015625 c 0
 517.006835938 185.41015625 516.306640625 185.258789062 515.712890625 184.987304688 c 0
 486.659179688 171.135742188 455.377929688 164.19921875 424.213867188 164.19921875 c 0
 371.490234375 164.19921875 319.224609375 184.10546875 279.186523438 224.142578125 c 0
 238.913085938 264.416015625 218.885742188 317.016601562 218.885742188 370.022460938 c 0
 218.885742188 424.803710938 240.272460938 480.010742188 282.786132812 522.524414062 c 0
 324.961914062 564.69921875 380.130859375 586.09375 434.950195312 586.09375 c 0
 487.69140625 586.09375 540.108398438 566.284179688 580.267578125 526.124023438 c 0
 620.46875 485.922851562 640.572265625 433.529296875 640.572265625 380.431640625 c 0
 640.572265625 368.694335938 639.590820312 356.924804688 637.627929688 345.24609375 c 0
545.827148438 250.033203125 m 0
 545.827148438 251.275390625 546.834960938 252.283203125 548.077148438 252.283203125 c 0
 549.319335938 252.283203125 550.327148438 251.275390625 550.327148438 250.033203125 c 0
 550.327148438 248.791992188 549.319335938 247.783203125 548.077148438 247.783203125 c 0
 546.834960938 247.783203125 545.827148438 248.791992188 545.827148438 250.033203125 c 0
636.717773438 331 m 0
 636.208007812 333.78125 633.118164062 342.858398438 633.118164062 345.301757812 c 0
 633.118164062 345.44140625 633.122070312 345.59765625 633.158203125 345.810546875 c 0
 635.1015625 357.305664062 636.072265625 368.887695312 636.072265625 380.431640625 c 0
 636.072265625 432.384765625 616.412109375 483.6171875 577.086914062 522.943359375 c 0
 537.8125 562.216796875 486.559570312 581.59375 434.950195312 581.59375 c 0
 381.305664062 581.59375 327.275390625 560.651367188 285.967773438 519.342773438 c 0
 244.31640625 477.69140625 223.385742188 423.626953125 223.385742188 370.022460938 c 0
 223.385742188 318.15625 242.975585938 266.715820312 282.368164062 227.32421875 c 0
 321.524414062 188.16796875 372.629882812 168.69921875 424.213867188 168.69921875 c 0
 454.67578125 168.69921875 485.34765625 175.506835938 513.841796875 189.080078125 c 0
 515.096679688 189.655273438 516.459960938 189.91015625 517.861328125 189.91015625 c 0
 530.859375 189.91015625 551.596679688 168.986328125 571.056640625 146.848632812 c 0
 595.609375 118.916992188 618.278320312 87.5810546875 618.30078125 87.55078125 c 0
 618.569335938 87.1806640625 618.727539062 86.7255859375 618.727539062 86.2333984375 c 0
 618.727539062 85.447265625 618.323242188 84.7548828125 617.711914062 84.3525390625 c 0
 557.569335938 44.78515625 488.786132812 24.923828125 420.55078125 24.923828125 c 0
 332.6171875 24.923828125 245.610351562 57.9189453125 179.286132812 124.243164062 c 0
 113.006835938 190.522460938 79.9306640625 277.9765625 79.9306640625 366.326171875 c 0
 79.9306640625 457.943359375 115.493164062 550.53125 186.486328125 621.524414062 c 0
 257.140625 692.178710938 349.694335938 727.749023438 441.349609375 727.749023438 c 0
 529.435546875 727.749023438 616.701171875 694.890625 682.868164062 628.724609375 c 0
 749.813476562 561.779296875 783.611328125 470.16796875 783.611328125 378.9921875 c 0
 783.611328125 329.442382812 773.630859375 280.017578125 753.53515625 234.72265625 c 0
 753.341796875 234.288085938 753.014648438 233.924804688 752.60546875 233.6875 c 0
 715.458007812 212.084960938 679.759765625 204.211914062 645.01953125 204.211914062 c 0
 588.676757812 204.211914062 531.661132812 225.77734375 480.84375 240.673828125 c 0
 480.56640625 240.755859375 480.310546875 240.888671875 480.088867188 241.063476562 c 2
 468.096679688 250.486328125 l 1
 402.442382812 250.896484375 349.626953125 303.0390625 349.626953125 368.833984375 c 0
 349.626953125 434.0703125 402.966796875 482.68359375 468.876953125 482.68359375 c 2
 548.077148438 482.68359375 l 2
 549.288085938 482.68359375 550.276367188 481.724609375 550.325195312 480.525390625 c 2
 556.629882812 324.375 l 1
 559.143554688 308.770507812 585.231445312 281.510742188 606.59375 281.510742188 c 0
 620.395507812 281.510742188 633.678710938 292.771484375 636.717773438 331 c 0
EndSplineSet
EndChar

StartChar: A
Encoding: 65 65 32
Width: 752
VWidth: 0
Flags: HW
HStem: 242.75 126<305.304 403.744>
LayerCount: 2
Fore
SplineSet
452.5 246.0234375 m 0
 453.454101562 246.0234375 454.26953125 245.427734375 454.596679688 244.58984375 c 2
 534.137695312 40.7001953125 l 1
 666.169921875 40.7001953125 l 1
 412.232421875 728.299804688 l 1
 278.705078125 728.299804688 l 1
 85.5693359375 40.7001953125 l 1
 217.66015625 40.7001953125 l 1
 270.356445312 243.317382812 l 2
 270.607421875 244.28515625 271.48828125 245 272.534179688 245 c 2
 450.614257812 245 l 2
 451.015625 245.615234375 451.7109375 246.0234375 452.5 246.0234375 c 0
308.491210938 371 m 1
 400.734375 371 l 1
 358.881835938 512.870117188 l 1
 308.491210938 371 l 1
403.744140625 366.5 m 2
 305.303710938 366.5 l 2
 304.061523438 366.5 303.053710938 367.5078125 303.053710938 368.75 c 0
 303.053710938 369.013671875 303.099609375 369.266601562 303.182617188 369.501953125 c 2
 356.958984375 520.903320312 l 2
 357.26953125 521.776367188 358.102539062 522.401367188 359.080078125 522.401367188 c 0
 360.100585938 522.401367188 360.963867188 521.719726562 361.23828125 520.788085938 c 2
 405.90234375 369.38671875 l 2
 405.961914062 369.184570312 405.994140625 368.970703125 405.994140625 368.75 c 0
 405.994140625 367.5078125 404.986328125 366.5 403.744140625 366.5 c 2
219.400390625 36.2001953125 m 2
 82.599609375 36.2001953125 l 2
 81.3583984375 36.2001953125 80.349609375 37.2080078125 80.349609375 38.4501953125 c 0
 80.349609375 38.6611328125 80.37890625 38.865234375 80.43359375 39.05859375 c 2
 274.833984375 731.159179688 l 2
 275.099609375 732.10546875 275.96875 732.799804688 277 732.799804688 c 2
 413.799804688 732.799804688 l 2
 414.768554688 732.799804688 415.594726562 732.1875 415.911132812 731.328125 c 2
 671.51171875 39.228515625 l 2
 671.600585938 38.986328125 671.650390625 38.7236328125 671.650390625 38.4501953125 c 0
 671.650390625 37.2080078125 670.641601562 36.2001953125 669.400390625 36.2001953125 c 2
 532.599609375 36.2001953125 l 2
 531.646484375 36.2001953125 530.830078125 36.794921875 530.502929688 37.6337890625 c 2
 451.361328125 240.5 l 1
 274.274414062 240.5 l 1
 221.578125 37.8828125 l 2
 221.326171875 36.9150390625 220.446289062 36.2001953125 219.400390625 36.2001953125 c 2
EndSplineSet
EndChar

StartChar: B
Encoding: 66 66 33
Width: 512
VWidth: 0
Flags: HW
HStem: 42.75 116.1<208.838 288.068> 350.55 94.5<208.838 288.068> 636.75 104.4<208.838 288.068>
VStem: 71.7 136.8<158.873 350.527 445.073 636.727 740.848 741.15> 326.4 135.9<197.969 312.54 482.675 588.859>
LayerCount: 2
Fore
SplineSet
224.700195312 738.900390625 m 0
 219.01953125 738.900390625 213.831054688 738.59765625 208.5 738.59765625 c 0
 208.088867188 738.59765625 207.704101562 738.70703125 207.373046875 738.900390625 c 2
 73.9501953125 738.900390625 l 1
 73.9501953125 45 l 1
 208.5 45 l 2
 208.595703125 45 208.689453125 44.994140625 208.78125 44.982421875 c 0
 215.797851562 44.10546875 222.899414062 44.099609375 230.099609375 44.099609375 c 0
 357.56640625 44.099609375 460.049804688 146.594726562 460.049804688 273.150390625 c 0
 460.049804688 320.905273438 408.08984375 360.778320312 380.466796875 394.116210938 c 0
 380.14453125 394.504882812 379.950195312 395.004882812 379.950195312 395.549804688 c 0
 379.950195312 396.059570312 380.120117188 396.529296875 380.405273438 396.907226562 c 0
 386.541992188 405.006835938 394.729492188 413.598632812 403.431640625 422.7421875 c 0
 427.353515625 447.875976562 454.650390625 476.897460938 454.650390625 508.950195312 c 0
 454.650390625 636.412109375 352.162109375 738.900390625 224.700195312 738.900390625 c 0
230.099609375 161.099609375 m 0
 282.881835938 161.099609375 324.150390625 202.393554688 324.150390625 254.25 c 0
 324.150390625 307.022460938 282.872070312 348.299804688 230.099609375 348.299804688 c 0
 223.657226562 348.299804688 217.209960938 347.560546875 210.75 346.075195312 c 1
 210.75 163.32421875 l 1
 217.209960938 161.83984375 223.657226562 161.099609375 230.099609375 161.099609375 c 0
206.25 161.549804688 m 2
 206.25 347.849609375 l 2
 206.25 348.903320312 206.975585938 349.788085938 207.953125 350.033203125 c 0
 215.323242188 351.875 222.708984375 352.799804688 230.099609375 352.799804688 c 0
 285.328125 352.799804688 328.650390625 309.477539062 328.650390625 254.25 c 0
 328.650390625 199.90625 285.318359375 156.599609375 230.099609375 156.599609375 c 0
 222.708984375 156.599609375 215.323242188 157.524414062 207.953125 159.3671875 c 0
 206.975585938 159.611328125 206.25 160.497070312 206.25 161.549804688 c 2
230.099609375 447.299804688 m 0
 282.881835938 447.299804688 324.150390625 488.59375 324.150390625 540.450195312 c 0
 324.150390625 593.22265625 282.872070312 634.5 230.099609375 634.5 c 0
 223.657226562 634.5 217.209960938 633.759765625 210.75 632.275390625 c 1
 210.75 449.524414062 l 1
 217.209960938 448.040039062 223.657226562 447.299804688 230.099609375 447.299804688 c 0
206.25 447.75 m 2
 206.25 634.049804688 l 2
 206.25 635.103515625 206.975585938 635.98828125 207.953125 636.233398438 c 0
 215.323242188 638.075195312 222.708984375 639 230.099609375 639 c 0
 285.328125 639 328.650390625 595.677734375 328.650390625 540.450195312 c 0
 328.650390625 486.106445312 285.318359375 442.799804688 230.099609375 442.799804688 c 0
 222.708984375 442.799804688 215.323242188 443.724609375 207.953125 445.567382812 c 0
 206.975585938 445.811523438 206.25 446.696289062 206.25 447.75 c 2
385.084960938 395.609375 m 1
 413.1796875 362.404296875 464.549804688 323.076171875 464.549804688 273.150390625 c 0
 464.549804688 144.10546875 360.034179688 39.599609375 230.099609375 39.599609375 c 0
 222.947265625 39.599609375 215.65234375 40.5 208.359375 40.5 c 2
 71.7001953125 40.5 l 2
 70.4580078125 40.5 69.4501953125 41.5078125 69.4501953125 42.75 c 2
 69.4501953125 741.150390625 l 2
 69.4501953125 742.391601562 70.4580078125 743.400390625 71.7001953125 743.400390625 c 2
 208.5 743.400390625 l 2
 208.868164062 743.400390625 209.215820312 743.311523438 209.522460938 743.154296875 c 0
 214.481445312 743.397460938 219.247070312 743.400390625 224.352539062 743.400390625 c 0
 224.467773438 743.400390625 224.583984375 743.400390625 224.700195312 743.400390625 c 0
 354.637695312 743.400390625 459.150390625 638.887695312 459.150390625 508.950195312 c 0
 459.150390625 462.848632812 409.6640625 427.038085938 385.084960938 395.609375 c 1
EndSplineSet
EndChar

StartChar: C
Encoding: 67 67 34
Width: 555
VWidth: 0
Flags: HW
HStem: 25.35 141.3<331.074 481.268> 588.75 144.9<331.074 481.268>
VStem: 72.75 137.7<291.119 466.53>
LayerCount: 2
Fore
SplineSet
208.200195312 378.150390625 m 0
 208.200195312 495.444335938 300.963867188 591 416.549804688 591 c 0
 438.69921875 591 460.014648438 587.490234375 480 580.989257812 c 1
 480 725.346679688 l 1
 459.440429688 729.321289062 438.231445312 731.400390625 416.549804688 731.400390625 c 0
 227.946289062 731.400390625 75 574.063476562 75 379.950195312 c 0
 75 184.931640625 227.948242188 27.599609375 416.549804688 27.599609375 c 0
 438.231445312 27.599609375 459.440429688 29.6787109375 480 33.654296875 c 1
 480 174.416992188 l 1
 460.014648438 167.91015625 438.69921875 164.400390625 416.549804688 164.400390625 c 0
 300.959960938 164.400390625 208.200195312 259.962890625 208.200195312 378.150390625 c 0
416.549804688 586.5 m 0
 303.536132812 586.5 212.700195312 493.055664062 212.700195312 378.150390625 c 0
 212.700195312 262.336914062 303.540039062 168.900390625 416.549804688 168.900390625 c 0
 439.294921875 168.900390625 461.137695312 172.68359375 481.520507812 179.670898438 c 0
 481.75 179.749023438 481.995117188 179.791992188 482.25 179.791992188 c 0
 483.4921875 179.791992188 484.5 178.784179688 484.5 177.541992188 c 2
 484.5 31.802734375 l 2
 484.5 30.7119140625 483.721679688 29.8017578125 482.69140625 29.5966796875 c 0
 461.283203125 25.33203125 439.169921875 23.099609375 416.549804688 23.099609375 c 0
 225.3515625 23.099609375 70.5 182.568359375 70.5 379.950195312 c 0
 70.5 576.436523438 225.353515625 735.900390625 416.549804688 735.900390625 c 0
 439.169921875 735.900390625 461.282226562 733.66796875 482.69140625 729.405273438 c 0
 483.721679688 729.200195312 484.5 728.2890625 484.5 727.198242188 c 2
 484.5 577.865234375 l 2
 484.5 576.624023438 483.4921875 575.615234375 482.25 575.615234375 c 0
 481.995117188 575.615234375 481.75 575.658203125 481.521484375 575.736328125 c 0
 461.137695312 582.716796875 439.294921875 586.5 416.549804688 586.5 c 0
EndSplineSet
EndChar

StartChar: D
Encoding: 68 68 35
Width: 630
VWidth: 0
Flags: HW
HStem: 25.369 141.313<213.3 290.24> 588.719 144.931<213.3 295.629>
VStem: 76.5 136.8<25.35 25.369 166.682 588.719> 415.8 137.7<291.808 466.112>
LayerCount: 2
Fore
SplineSet
209.700195312 731.400390625 m 0
 175.314453125 731.400390625 141.2421875 724.89453125 106.774414062 724.89453125 c 0
 97.474609375 724.89453125 88.1357421875 725.368164062 78.75 726.57421875 c 1
 78.75 27.6005859375 l 1
 213.299804688 27.619140625 l 1
 400.25390625 29.591796875 551.25 186.166015625 551.25 379.950195312 c 0
 551.25 574.063476562 398.303710938 731.400390625 209.700195312 731.400390625 c 0
106.774414062 729.39453125 m 0
 141.108398438 729.39453125 175.18359375 735.900390625 209.700195312 735.900390625 c 0
 400.896484375 735.900390625 555.75 576.436523438 555.75 379.950195312 c 0
 555.75 183.81640625 402.828125 25.119140625 213.30078125 23.119140625 c 1
 76.5 23.099609375 l 2
 75.2587890625 23.099609375 74.25 24.1083984375 74.25 25.349609375 c 2
 74.25 729.150390625 l 2
 74.25 730.391601562 75.2578125 731.400390625 76.5 731.400390625 c 0
 76.6083984375 731.400390625 76.7158203125 731.376953125 76.8203125 731.376953125 c 0
 86.8193359375 729.94921875 96.7958984375 729.39453125 106.774414062 729.39453125 c 0
413.549804688 378.150390625 m 0
 413.549804688 491.065429688 325.83203125 583.2578125 215.549804688 586.416015625 c 1
 215.549804688 168.983398438 l 1
 325.827148438 172.141601562 413.549804688 264.342773438 413.549804688 378.150390625 c 0
211.049804688 166.681640625 m 2
 211.049804688 588.71875 l 2
 211.049804688 589.9609375 212.05859375 590.96875 213.33984375 590.96875 c 0
 327.227539062 588.986328125 418.049804688 494.2109375 418.049804688 378.150390625 c 0
 418.049804688 261.206054688 327.232421875 166.413085938 213.299804688 164.431640625 c 0
 212.05859375 164.431640625 211.049804688 165.439453125 211.049804688 166.681640625 c 2
EndSplineSet
EndChar

StartChar: E
Encoding: 69 69 36
Width: 668
VWidth: 0
Flags: HW
HStem: 36.05 136.8<215.2 588.7> 338.45 136.8<215.2 491.5> 602.15 136.8<215.2 588.7>
VStem: 78.4 511.2<36.05 172.85 602.15 738.95> 78.4 136.8<172.85 338.45 475.25 602.15>
LayerCount: 2
Fore
SplineSet
215.200195312 473 m 2
 213.958007812 473 212.950195312 474.0078125 212.950195312 475.25 c 2
 212.950195312 602.150390625 l 2
 212.950195312 603.391601562 213.958007812 604.400390625 215.200195312 604.400390625 c 2
 587.334960938 604.400390625 l 1
 586.46484375 736.700195312 l 1
 80.6650390625 736.700195312 l 1
 80.6650390625 736.254882812 80.673828125 735.809570312 80.673828125 735.365234375 c 0
 80.673828125 735.252929688 80.666015625 735.142578125 80.650390625 735.034179688 c 2
 80.650390625 38.7451171875 l 2
 80.8173828125 38.6181640625 80.966796875 38.4677734375 81.09375 38.2998046875 c 2
 587.334960938 38.2998046875 l 1
 586.46484375 170.599609375 l 1
 215.200195312 170.599609375 l 2
 213.958007812 170.599609375 212.950195312 171.608398438 212.950195312 172.849609375 c 2
 212.950195312 338.450195312 l 2
 212.950195312 339.69140625 213.958007812 340.700195312 215.200195312 340.700195312 c 2
 490.134765625 340.700195312 l 1
 489.264648438 473 l 1
 215.200195312 473 l 2
492.400390625 336.200195312 m 2
 217.450195312 336.200195312 l 1
 217.450195312 175.099609375 l 1
 588.700195312 175.099609375 l 2
 589.936523438 175.099609375 590.94140625 174.099609375 590.950195312 172.865234375 c 2
 591.849609375 36.0654296875 l 2
 591.849609375 34.80859375 590.841796875 33.7998046875 589.599609375 33.7998046875 c 2
 79.2998046875 33.7998046875 l 2
 78.4482421875 33.7998046875 77.7060546875 34.2744140625 77.32421875 34.9736328125 c 0
 76.625 35.35546875 76.150390625 36.09765625 76.150390625 36.9501953125 c 2
 76.150390625 735.349609375 l 2
 76.150390625 735.456054688 76.1572265625 735.560546875 76.171875 735.662109375 c 2
 76.150390625 738.934570312 l 2
 76.150390625 740.19140625 77.158203125 741.200195312 78.400390625 741.200195312 c 2
 588.700195312 741.200195312 l 2
 589.936523438 741.200195312 590.94140625 740.200195312 590.950195312 738.96484375 c 2
 591.849609375 602.165039062 l 2
 591.849609375 600.908203125 590.841796875 599.900390625 589.599609375 599.900390625 c 2
 217.450195312 599.900390625 l 1
 217.450195312 477.5 l 1
 491.5 477.5 l 2
 492.736328125 477.5 493.75 476.5 493.75 475.264648438 c 2
 494.650390625 338.46484375 l 2
 494.650390625 337.208007812 493.641601562 336.200195312 492.400390625 336.200195312 c 2
EndSplineSet
EndChar

StartChar: F
Encoding: 70 70 37
Width: 668
VWidth: 0
Flags: HW
HStem: 37 18.9G<78.4 215.2> 338.5 136.8<215.2 491.5> 602.2 136.8<215.2 588.7>
VStem: 78.4 136.8<37 338.5 475.3 602.2>
LayerCount: 2
Fore
SplineSet
215.200195312 473.049804688 m 2
 213.958007812 473.049804688 212.950195312 474.05859375 212.950195312 475.299804688 c 2
 212.950195312 602.200195312 l 2
 212.950195312 603.44140625 213.958007812 604.450195312 215.200195312 604.450195312 c 2
 587.334960938 604.450195312 l 1
 586.46484375 736.75 l 1
 80.6650390625 736.75 l 1
 80.6650390625 736.3046875 80.673828125 735.860351562 80.673828125 735.415039062 c 0
 80.673828125 735.302734375 80.666015625 735.192382812 80.650390625 735.083984375 c 2
 80.650390625 39.25 l 1
 212.950195312 39.25 l 1
 212.950195312 338.5 l 2
 212.950195312 339.7421875 213.958007812 340.75 215.200195312 340.75 c 2
 490.134765625 340.75 l 1
 489.264648438 473.049804688 l 1
 215.200195312 473.049804688 l 2
492.400390625 336.25 m 2
 217.450195312 336.25 l 1
 217.450195312 37 l 2
 217.450195312 35.7578125 216.44140625 34.75 215.200195312 34.75 c 2
 78.400390625 34.75 l 2
 77.158203125 34.75 76.150390625 35.7578125 76.150390625 37 c 2
 76.150390625 735.400390625 l 2
 76.150390625 735.505859375 76.1572265625 735.610351562 76.171875 735.712890625 c 2
 76.150390625 738.985351562 l 2
 76.150390625 740.2421875 77.158203125 741.25 78.400390625 741.25 c 2
 588.700195312 741.25 l 2
 589.936523438 741.25 590.94140625 740.25 590.950195312 739.014648438 c 2
 591.849609375 602.21484375 l 2
 591.849609375 600.958007812 590.841796875 599.950195312 589.599609375 599.950195312 c 2
 217.450195312 599.950195312 l 1
 217.450195312 477.549804688 l 1
 491.5 477.549804688 l 2
 492.736328125 477.549804688 493.75 476.549804688 493.75 475.315429688 c 2
 494.650390625 338.514648438 l 2
 494.650390625 337.2578125 493.641601562 336.25 492.400390625 336.25 c 2
EndSplineSet
EndChar

StartChar: G
Encoding: 71 71 38
Width: 651
VWidth: 0
Flags: HW
HStem: 25.35 141.3<336.329 436.65> 588.75 144.9<335.874 486.068>
VStem: 77.55 137.7<291.119 466.53> 436.65 136.8<25.35 25.694 166.65 319.65>
LayerCount: 2
Fore
SplineSet
421.349609375 27.599609375 m 0
 426.477539062 27.599609375 431.577148438 27.9443359375 436.650390625 27.9443359375 c 0
 437.088867188 27.9443359375 437.499023438 27.818359375 437.845703125 27.599609375 c 2
 571.200195312 27.599609375 l 1
 571.200195312 317.400390625 l 1
 438.900390625 317.400390625 l 1
 438.900390625 167.21875 l 2
 438.900390625 166.033203125 437.982421875 165.061523438 436.819335938 164.974609375 c 0
 431.712890625 164.59375 426.5546875 164.400390625 421.349609375 164.400390625 c 0
 305.759765625 164.400390625 213 259.962890625 213 378.150390625 c 0
 213 495.444335938 305.764648438 591 421.349609375 591 c 0
 443.5 591 464.814453125 587.490234375 484.799804688 580.989257812 c 1
 484.799804688 725.346679688 l 1
 464.241210938 729.321289062 443.03125 731.400390625 421.349609375 731.400390625 c 0
 232.74609375 731.400390625 79.7998046875 574.063476562 79.7998046875 379.950195312 c 0
 79.7998046875 184.931640625 232.749023438 27.599609375 421.349609375 27.599609375 c 0
421.349609375 586.5 m 0
 308.3359375 586.5 217.5 493.055664062 217.5 378.150390625 c 0
 217.5 262.336914062 308.33984375 168.900390625 421.349609375 168.900390625 c 0
 425.735351562 168.900390625 430.0859375 169.041015625 434.400390625 169.317382812 c 1
 434.400390625 319.650390625 l 2
 434.400390625 320.891601562 435.408203125 321.900390625 436.650390625 321.900390625 c 2
 573.450195312 321.900390625 l 2
 574.69140625 321.900390625 575.700195312 320.891601562 575.700195312 319.650390625 c 2
 575.700195312 25.349609375 l 2
 575.700195312 24.1083984375 574.69140625 23.099609375 573.450195312 23.099609375 c 2
 436.650390625 23.099609375 l 2
 436.24609375 23.099609375 435.866210938 23.20703125 435.538085938 23.3935546875 c 0
 430.83203125 23.1982421875 426.102539062 23.099609375 421.349609375 23.099609375 c 0
 230.151367188 23.099609375 75.2998046875 182.568359375 75.2998046875 379.950195312 c 0
 75.2998046875 576.436523438 230.154296875 735.900390625 421.349609375 735.900390625 c 0
 443.969726562 735.900390625 466.083007812 733.66796875 487.491210938 729.405273438 c 0
 488.522460938 729.200195312 489.299804688 728.2890625 489.299804688 727.198242188 c 2
 489.299804688 577.865234375 l 2
 489.299804688 576.624023438 488.291992188 575.615234375 487.049804688 575.615234375 c 0
 486.794921875 575.615234375 486.549804688 575.658203125 486.321289062 575.736328125 c 0
 465.9375 582.716796875 444.094726562 586.5 421.349609375 586.5 c 0
EndSplineSet
EndChar

StartChar: H
Encoding: 72 72 39
Width: 652
VWidth: 0
Flags: HW
HStem: 36.8 18.9G<77.6 214.4 437.6 574.4> 338.3 136.8<214.4 437.6> 717.2 18G<77.6 214.4 437.6 574.4>
VStem: 77.6 136.8<36.8 338.3 475.1 735.2> 437.6 136.8<36.8 338.3 475.1 735.2>
LayerCount: 2
Fore
SplineSet
572.150390625 732.950195312 m 1
 439.849609375 732.950195312 l 1
 439.849609375 475.099609375 l 2
 439.849609375 473.858398438 438.841796875 472.849609375 437.599609375 472.849609375 c 2
 214.400390625 472.849609375 l 2
 213.158203125 472.849609375 212.150390625 473.858398438 212.150390625 475.099609375 c 2
 212.150390625 732.950195312 l 1
 79.849609375 732.950195312 l 1
 79.849609375 39.0498046875 l 1
 212.150390625 39.0498046875 l 1
 212.150390625 338.299804688 l 2
 212.150390625 339.541992188 213.158203125 340.549804688 214.400390625 340.549804688 c 2
 437.599609375 340.549804688 l 2
 438.841796875 340.549804688 439.849609375 339.541992188 439.849609375 338.299804688 c 2
 439.849609375 39.0498046875 l 1
 572.150390625 39.0498046875 l 1
 572.150390625 732.950195312 l 1
437.599609375 737.450195312 m 2
 574.400390625 737.450195312 l 2
 575.641601562 737.450195312 576.650390625 736.44140625 576.650390625 735.200195312 c 2
 576.650390625 36.7998046875 l 2
 576.650390625 35.55859375 575.641601562 34.5498046875 574.400390625 34.5498046875 c 2
 437.599609375 34.5498046875 l 2
 436.358398438 34.5498046875 435.349609375 35.55859375 435.349609375 36.7998046875 c 2
 435.349609375 336.049804688 l 1
 216.650390625 336.049804688 l 1
 216.650390625 36.7998046875 l 2
 216.650390625 35.55859375 215.641601562 34.5498046875 214.400390625 34.5498046875 c 2
 77.599609375 34.5498046875 l 2
 76.3583984375 34.5498046875 75.349609375 35.55859375 75.349609375 36.7998046875 c 2
 75.349609375 735.200195312 l 2
 75.349609375 736.44140625 76.3583984375 737.450195312 77.599609375 737.450195312 c 2
 214.400390625 737.450195312 l 2
 215.641601562 737.450195312 216.650390625 736.44140625 216.650390625 735.200195312 c 2
 216.650390625 477.349609375 l 1
 435.349609375 477.349609375 l 1
 435.349609375 735.200195312 l 2
 435.349609375 736.44140625 436.358398438 737.450195312 437.599609375 737.450195312 c 2
EndSplineSet
EndChar

StartChar: I
Encoding: 73 73 40
Width: 252
VWidth: 0
Flags: HW
HStem: 36.8 18.9G<57.6 194.4> 717.2 18G<57.6 194.4>
VStem: 57.6 136.8<36.8 735.2>
LayerCount: 2
Fore
SplineSet
192.150390625 732.950195312 m 1
 59.849609375 732.950195312 l 1
 59.849609375 39.0498046875 l 1
 192.150390625 39.0498046875 l 1
 192.150390625 732.950195312 l 1
57.599609375 737.450195312 m 2
 194.400390625 737.450195312 l 2
 195.641601562 737.450195312 196.650390625 736.44140625 196.650390625 735.200195312 c 2
 196.650390625 36.7998046875 l 2
 196.650390625 35.55859375 195.641601562 34.5498046875 194.400390625 34.5498046875 c 2
 57.599609375 34.5498046875 l 2
 56.3583984375 34.5498046875 55.349609375 35.55859375 55.349609375 36.7998046875 c 2
 55.349609375 735.200195312 l 2
 55.349609375 736.44140625 56.3583984375 737.450195312 57.599609375 737.450195312 c 2
EndSplineSet
EndChar

StartChar: J
Encoding: 74 74 41
Width: 419
VWidth: 0
Flags: HW
HStem: 35.2 135.9<70.8506 187.593> 704.8 18G<202.75 353.05>
VStem: 202.75 147.6<189.893 722.8>
LayerCount: 2
Fore
SplineSet
205 720.549804688 m 1
 205 204.400390625 l 2
 205 203.8359375 204.791992188 203.3203125 204.448242188 202.924804688 c 0
 186.05078125 181.767578125 160.21484375 168.849609375 129.849609375 168.849609375 c 0
 106.701171875 168.849609375 85.173828125 176.82421875 68.2001953125 189.809570312 c 1
 68.2001953125 45.044921875 l 1
 88.1630859375 39.9794921875 108.143554688 37.4501953125 129.849609375 37.4501953125 c 0
 234.905273438 37.4501953125 320.37109375 106.784179688 348.1015625 203.822265625 c 1
 350.788085938 720.549804688 l 1
 205 720.549804688 l 1
63.7001953125 43.2998046875 m 2
 63.7001953125 194.5 l 2
 63.7001953125 195.7421875 64.7080078125 196.75 65.9501953125 196.75 c 0
 66.5009765625 196.75 67.0068359375 196.551757812 67.3984375 196.221679688 c 0
 84.1083984375 182.149414062 106.114257812 173.349609375 129.849609375 173.349609375 c 0
 158.583007812 173.349609375 182.9375 185.377929688 200.5 205.24609375 c 1
 200.5 722.799804688 l 2
 200.5 724.041992188 201.5078125 725.049804688 202.75 725.049804688 c 2
 353.049804688 725.049804688 l 2
 354.291992188 725.049804688 355.299804688 724.041992188 355.299804688 722.799804688 c 2
 352.599609375 203.48828125 l 2
 352.598632812 203.278320312 352.569335938 203.076171875 352.514648438 202.883789062 c 0
 324.356445312 103.875 237.087890625 32.9501953125 129.849609375 32.9501953125 c 0
 107.166015625 32.9501953125 86.2578125 35.6767578125 65.380859375 41.123046875 c 0
 64.4140625 41.375 63.7001953125 42.2548828125 63.7001953125 43.2998046875 c 2
EndSplineSet
EndChar

StartChar: K
Encoding: 75 75 42
Width: 703
VWidth: 0
Flags: HW
HStem: 36.75 18G<82.65 219.45 497.55 655.073> 717.15 18G<82.65 219.45>
VStem: 82.65 136.8<36.75 235.205 428.156 735.15>
LayerCount: 2
Fore
SplineSet
217.200195312 732.900390625 m 1
 84.900390625 732.900390625 l 1
 84.900390625 39 l 1
 217.200195312 39 l 1
 217.200195312 235.204101562 l 2
 217.200195312 235.67578125 217.345703125 236.11328125 217.59375 236.474609375 c 2
 269.080078125 311.51953125 l 2
 269.486328125 312.110351562 270.166015625 312.499023438 270.936523438 312.499023438 c 0
 271.633789062 312.499023438 272.2578125 312.181640625 272.669921875 311.682617188 c 2
 498.611328125 38.994140625 l 1
 665.467773438 38.125 l 1
 370.734375 385.395507812 l 2
 370.401367188 385.788085938 370.200195312 386.295898438 370.200195312 386.849609375 c 0
 370.200195312 387.3203125 370.344726562 387.7578125 370.592773438 388.119140625 c 2
 603.112304688 727.545898438 l 1
 441.086914062 729.288085938 l 1
 221.271484375 426.834960938 l 2
 220.862304688 426.271484375 220.198242188 425.905273438 219.450195312 425.905273438 c 0
 218.208007812 425.905273438 217.200195312 426.913085938 217.200195312 428.155273438 c 2
 217.200195312 732.900390625 l 1
82.650390625 737.400390625 m 2
 219.450195312 737.400390625 l 2
 220.69140625 737.400390625 221.700195312 736.391601562 221.700195312 735.150390625 c 2
 221.700195312 435.078125 l 1
 438.12890625 732.87109375 l 2
 438.538085938 733.43359375 439.201171875 733.799804688 439.974609375 733.799804688 c 2
 607.375 732 l 2
 608.60546875 731.986328125 609.599609375 730.983398438 609.599609375 729.75 c 0
 609.599609375 729.279296875 609.455078125 728.841796875 609.208007812 728.48046875 c 2
 375.27734375 386.99609375 l 1
 672.06640625 37.3046875 l 2
 672.399414062 36.912109375 672.599609375 36.404296875 672.599609375 35.849609375 c 0
 672.599609375 34.6083984375 671.591796875 33.599609375 670.349609375 33.599609375 c 2
 497.538085938 34.5 l 2
 496.845703125 34.50390625 496.227539062 34.8203125 495.81640625 35.3154296875 c 2
 271.106445312 306.518554688 l 1
 221.700195312 234.506835938 l 1
 221.700195312 36.75 l 2
 221.700195312 35.5078125 220.69140625 34.5 219.450195312 34.5 c 2
 82.650390625 34.5 l 2
 81.408203125 34.5 80.400390625 35.5078125 80.400390625 36.75 c 2
 80.400390625 735.150390625 l 2
 80.400390625 736.391601562 81.408203125 737.400390625 82.650390625 737.400390625 c 2
EndSplineSet
EndChar

StartChar: L
Encoding: 76 76 43
Width: 718
VWidth: 0
Flags: HW
HStem: 35.85 136.8<217.7 636.2> 717.15 18G<80.9 217.7>
VStem: 80.9 136.8<172.65 735.15>
LayerCount: 2
Fore
SplineSet
215.450195312 732.900390625 m 1
 83.150390625 732.900390625 l 1
 83.150390625 38.544921875 l 2
 83.3173828125 38.41796875 83.466796875 38.2685546875 83.59375 38.099609375 c 2
 634.834960938 38.099609375 l 1
 633.96484375 170.400390625 l 1
 217.700195312 170.400390625 l 2
 216.458007812 170.400390625 215.450195312 171.408203125 215.450195312 172.650390625 c 2
 215.450195312 732.900390625 l 1
80.900390625 737.400390625 m 2
 217.700195312 737.400390625 l 2
 218.94140625 737.400390625 219.950195312 736.391601562 219.950195312 735.150390625 c 2
 219.950195312 174.900390625 l 1
 636.200195312 174.900390625 l 2
 637.436523438 174.900390625 638.44140625 173.900390625 638.450195312 172.665039062 c 2
 639.349609375 35.865234375 l 2
 639.349609375 34.6083984375 638.341796875 33.599609375 637.099609375 33.599609375 c 2
 81.7998046875 33.599609375 l 2
 80.9482421875 33.599609375 80.2060546875 34.0751953125 79.82421875 34.7734375 c 0
 79.125 35.1552734375 78.650390625 35.8974609375 78.650390625 36.75 c 2
 78.650390625 735.150390625 l 2
 78.650390625 736.391601562 79.658203125 737.400390625 80.900390625 737.400390625 c 2
EndSplineSet
EndChar

StartChar: M
Encoding: 77 77 44
Width: 1052
VWidth: 0
Flags: HW
HStem: 36.5 18.9G<97.6 234.4 817.6 954.4>
VStem: 97.6 136.8<36.5 466.844> 817.6 136.8<36.5 466.844>
LayerCount: 2
Fore
SplineSet
99.849609375 727.25 m 1
 99.849609375 38.75 l 1
 232.150390625 38.75 l 1
 232.150390625 466.84375 l 2
 232.150390625 468.0859375 233.158203125 469.09375 234.400390625 469.09375 c 0
 235.267578125 469.09375 236.021484375 468.6015625 236.396484375 467.880859375 c 2
 458.96484375 40.5498046875 l 1
 593.03515625 40.5498046875 l 1
 815.603515625 467.880859375 l 2
 815.978515625 468.6015625 816.732421875 469.09375 817.599609375 469.09375 c 0
 818.841796875 469.09375 819.849609375 468.0859375 819.849609375 466.84375 c 2
 819.849609375 38.75 l 1
 952.150390625 38.75 l 1
 952.150390625 727.25 l 1
 818.96484375 727.25 l 1
 527.997070312 168.590820312 l 2
 527.622070312 167.870117188 526.868164062 167.377929688 526 167.377929688 c 0
 525.131835938 167.377929688 524.377929688 167.870117188 524.002929688 168.590820312 c 2
 233.03515625 727.25 l 1
 99.849609375 727.25 l 1
97.599609375 731.75 m 2
 234.400390625 731.75 l 2
 235.267578125 731.75 236.021484375 731.2578125 236.396484375 730.537109375 c 2
 526 174.499023438 l 1
 815.603515625 730.537109375 l 2
 815.978515625 731.2578125 816.732421875 731.75 817.599609375 731.75 c 2
 954.400390625 731.75 l 2
 955.641601562 731.75 956.650390625 730.7421875 956.650390625 729.5 c 2
 956.650390625 36.5 l 2
 956.650390625 35.2578125 955.641601562 34.25 954.400390625 34.25 c 2
 817.599609375 34.25 l 2
 816.358398438 34.25 815.349609375 35.2578125 815.349609375 36.5 c 2
 815.349609375 457.653320312 l 1
 596.396484375 37.2626953125 l 2
 596.021484375 36.5419921875 595.267578125 36.0498046875 594.400390625 36.0498046875 c 2
 457.599609375 36.0498046875 l 2
 456.732421875 36.0498046875 455.978515625 36.5419921875 455.603515625 37.2626953125 c 2
 236.650390625 457.653320312 l 1
 236.650390625 36.5 l 2
 236.650390625 35.2578125 235.641601562 34.25 234.400390625 34.25 c 2
 97.599609375 34.25 l 2
 96.3583984375 34.25 95.349609375 35.2578125 95.349609375 36.5 c 2
 95.349609375 729.5 l 2
 95.349609375 730.7421875 96.3583984375 731.75 97.599609375 731.75 c 2
EndSplineSet
EndChar

StartChar: N
Encoding: 78 78 45
Width: 852
VWidth: 0
Flags: HW
HStem: 36.8 18.9G<87.6 224.4 612.243 764.4> 717.2 18G<87.6 239.804 627.6 764.4>
VStem: 87.6 136.8<36.8 509.391> 627.6 136.8<264.07 735.2>
LayerCount: 2
Fore
SplineSet
89.849609375 732.950195312 m 1
 89.849609375 39.0498046875 l 1
 222.150390625 39.0498046875 l 1
 222.150390625 509.391601562 l 2
 222.150390625 510.6328125 223.158203125 511.641601562 224.400390625 511.641601562 c 0
 225.084960938 511.641601562 225.69921875 511.333984375 226.112304688 510.850585938 c 2
 628.637695312 39.0498046875 l 1
 762.150390625 39.0498046875 l 1
 762.150390625 732.950195312 l 1
 629.849609375 732.950195312 l 1
 629.849609375 264.069335938 l 2
 629.849609375 262.828125 628.841796875 261.819335938 627.599609375 261.819335938 c 0
 626.916015625 261.819335938 626.302734375 262.125 625.889648438 262.607421875 c 2
 223.364257812 732.950195312 l 1
 89.849609375 732.950195312 l 1
87.599609375 737.450195312 m 2
 224.400390625 737.450195312 l 2
 225.083984375 737.450195312 225.697265625 737.14453125 226.110351562 736.662109375 c 2
 625.349609375 270.158203125 l 1
 625.349609375 735.200195312 l 2
 625.349609375 736.44140625 626.358398438 737.450195312 627.599609375 737.450195312 c 2
 764.400390625 737.450195312 l 2
 765.641601562 737.450195312 766.650390625 736.44140625 766.650390625 735.200195312 c 2
 766.650390625 36.7998046875 l 2
 766.650390625 35.55859375 765.641601562 34.5498046875 764.400390625 34.5498046875 c 2
 627.599609375 34.5498046875 l 2
 626.915039062 34.5498046875 626.30078125 34.857421875 625.887695312 35.3408203125 c 2
 226.650390625 503.288085938 l 1
 226.650390625 36.7998046875 l 2
 226.650390625 35.55859375 225.641601562 34.5498046875 224.400390625 34.5498046875 c 2
 87.599609375 34.5498046875 l 2
 86.3583984375 34.5498046875 85.349609375 35.55859375 85.349609375 36.7998046875 c 2
 85.349609375 735.200195312 l 2
 85.349609375 736.44140625 86.3583984375 737.450195312 87.599609375 737.450195312 c 2
EndSplineSet
EndChar

StartChar: O
Encoding: 79 79 46
Width: 864
VWidth: 0
Flags: HW
HStem: 25.35 141.3<346.524 517.476> 588.75 144.9<346.524 517.476>
VStem: 88.2 137.7<288.791 468.847> 638.1 137.7<288.791 468.847>
LayerCount: 2
Fore
SplineSet
773.549804688 379.950195312 m 0
 773.549804688 574.063476562 620.603515625 731.400390625 432 731.400390625 c 0
 243.396484375 731.400390625 90.4501953125 574.063476562 90.4501953125 379.950195312 c 0
 90.4501953125 184.931640625 243.3984375 27.599609375 432 27.599609375 c 0
 620.6015625 27.599609375 773.549804688 184.931640625 773.549804688 379.950195312 c 0
778.049804688 379.950195312 m 0
 778.049804688 182.568359375 623.198242188 23.099609375 432 23.099609375 c 0
 240.801757812 23.099609375 85.9501953125 182.568359375 85.9501953125 379.950195312 c 0
 85.9501953125 576.436523438 240.803710938 735.900390625 432 735.900390625 c 0
 623.196289062 735.900390625 778.049804688 576.436523438 778.049804688 379.950195312 c 0
635.849609375 378.150390625 m 0
 635.849609375 493.055664062 545.014648438 586.5 432 586.5 c 0
 318.985351562 586.5 228.150390625 493.055664062 228.150390625 378.150390625 c 0
 228.150390625 262.336914062 318.990234375 168.900390625 432 168.900390625 c 0
 545.009765625 168.900390625 635.849609375 262.336914062 635.849609375 378.150390625 c 0
640.349609375 378.150390625 m 0
 640.349609375 259.962890625 547.58984375 164.400390625 432 164.400390625 c 0
 316.41015625 164.400390625 223.650390625 259.962890625 223.650390625 378.150390625 c 0
 223.650390625 495.444335938 316.4140625 591 432 591 c 0
 547.5859375 591 640.349609375 495.444335938 640.349609375 378.150390625 c 0
EndSplineSet
EndChar

StartChar: P
Encoding: 80 80 47
Width: 534
VWidth: 0
Flags: HW
HStem: 277.65 135.9<208.5 288.176> 605.25 135<208.838 288.068>
VStem: 71.7 136.8<41.85 278.55 413.573 605.227> 326.4 135.9<451.774 567.391>
LayerCount: 2
Fore
SplineSet
73.9501953125 44.099609375 m 1
 206.25 44.099609375 l 1
 206.25 278.549804688 l 2
 206.25 279.791992188 207.2578125 280.799804688 208.5 280.799804688 c 0
 208.595703125 280.799804688 208.689453125 280.793945312 208.78125 280.782226562 c 0
 215.797851562 279.905273438 222.899414062 279.900390625 230.099609375 279.900390625 c 0
 357.561523438 279.900390625 460.049804688 382.387695312 460.049804688 509.849609375 c 0
 460.049804688 636.405273438 357.56640625 738.900390625 230.099609375 738.900390625 c 0
 222.899414062 738.900390625 215.797851562 738.89453125 208.78125 738.017578125 c 0
 208.689453125 738.005859375 208.595703125 738 208.5 738 c 2
 73.9501953125 738 l 1
 73.9501953125 44.099609375 l 1
208.5 39.599609375 m 2
 71.7001953125 39.599609375 l 2
 70.4580078125 39.599609375 69.4501953125 40.6083984375 69.4501953125 41.849609375 c 2
 69.4501953125 740.25 l 2
 69.4501953125 741.4921875 70.4580078125 742.5 71.7001953125 742.5 c 2
 208.359375 742.5 l 2
 215.526367188 743.384765625 222.45703125 743.400390625 229.368164062 743.400390625 c 0
 229.612304688 743.400390625 229.856445312 743.400390625 230.099609375 743.400390625 c 0
 360.034179688 743.400390625 464.549804688 638.89453125 464.549804688 509.849609375 c 0
 464.549804688 379.912109375 360.038085938 275.400390625 230.099609375 275.400390625 c 0
 223.728515625 275.400390625 217.245117188 276.036132812 210.75 276.036132812 c 1
 210.75 41.849609375 l 2
 210.75 40.6083984375 209.7421875 39.599609375 208.5 39.599609375 c 2
230.099609375 415.799804688 m 0
 282.872070312 415.799804688 324.150390625 457.078125 324.150390625 509.849609375 c 0
 324.150390625 561.706054688 282.881835938 603 230.099609375 603 c 0
 223.657226562 603 217.209960938 602.259765625 210.75 600.775390625 c 1
 210.75 418.024414062 l 1
 217.209960938 416.540039062 223.657226562 415.799804688 230.099609375 415.799804688 c 0
230.099609375 607.5 m 0
 285.318359375 607.5 328.650390625 564.194335938 328.650390625 509.849609375 c 0
 328.650390625 454.622070312 285.328125 411.299804688 230.099609375 411.299804688 c 0
 222.708984375 411.299804688 215.323242188 412.224609375 207.953125 414.067382812 c 0
 206.975585938 414.311523438 206.25 415.196289062 206.25 416.25 c 2
 206.25 602.549804688 l 2
 206.25 603.603515625 206.975585938 604.48828125 207.953125 604.733398438 c 0
 215.323242188 606.575195312 222.708984375 607.5 230.099609375 607.5 c 0
EndSplineSet
EndChar

StartChar: Q
Encoding: 81 81 48
Width: 864
VWidth: 0
Flags: HW
HStem: 16.5 141.3<346.924 505.34> 579.9 144.9<346.924 517.876>
VStem: 88.6 137.7<282.269 457.68> 638.5 137.7<281.192 457.68>
LayerCount: 2
Fore
SplineSet
636.25 369.299804688 m 0
 636.25 484.205078125 545.4140625 577.650390625 432.400390625 577.650390625 c 0
 319.385742188 577.650390625 228.549804688 484.205078125 228.549804688 369.299804688 c 0
 228.549804688 253.487304688 319.389648438 160.049804688 432.400390625 160.049804688 c 0
 545.41015625 160.049804688 636.25 253.487304688 636.25 369.299804688 c 0
640.75 369.299804688 m 0
 640.75 251.112304688 547.990234375 155.549804688 432.400390625 155.549804688 c 0
 316.809570312 155.549804688 224.049804688 251.112304688 224.049804688 369.299804688 c 0
 224.049804688 486.594726562 316.814453125 582.150390625 432.400390625 582.150390625 c 0
 547.985351562 582.150390625 640.75 486.594726562 640.75 369.299804688 c 0
773.950195312 371.099609375 m 0
 773.950195312 565.213867188 621.00390625 722.549804688 432.400390625 722.549804688 c 0
 243.795898438 722.549804688 90.849609375 565.213867188 90.849609375 371.099609375 c 0
 90.849609375 176.08203125 243.798828125 18.75 432.400390625 18.75 c 0
 453.356445312 18.75 473.87109375 20.6923828125 493.78515625 24.412109375 c 0
 493.918945312 24.4375 494.057617188 24.4501953125 494.200195312 24.4501953125 c 0
 494.8203125 24.4501953125 495.3828125 24.1982421875 495.790039062 23.791015625 c 2
 659.194335938 -139.61328125 l 1
 780.224609375 -17.7060546875 l 1
 658.674804688 103.84375 l 2
 658.267578125 104.250976562 658.015625 104.813476562 658.015625 105.434570312 c 0
 658.015625 106.092773438 658.298828125 106.684570312 658.75 107.096679688 c 0
 729.400390625 171.583984375 773.950195312 265.86328125 773.950195312 371.099609375 c 0
432.400390625 14.25 m 0
 241.201171875 14.25 86.349609375 173.717773438 86.349609375 371.099609375 c 0
 86.349609375 567.5859375 241.204101562 727.049804688 432.400390625 727.049804688 c 0
 623.595703125 727.049804688 778.450195312 567.5859375 778.450195312 371.099609375 c 0
 778.450195312 265.435546875 734.083984375 170.651367188 663.515625 105.366210938 c 1
 784.990234375 -16.109375 l 2
 785.3984375 -16.5166015625 785.650390625 -17.0791015625 785.650390625 -17.7001953125 c 0
 785.650390625 -18.318359375 785.400390625 -18.8779296875 784.99609375 -19.28515625 c 2
 660.796875 -144.384765625 l 2
 660.388671875 -144.795898438 659.82421875 -145.049804688 659.200195312 -145.049804688 c 0
 658.579101562 -145.049804688 658.016601562 -144.797851562 657.609375 -144.390625 c 2
 493.446289062 19.7724609375 l 1
 473.629882812 16.1435546875 453.23046875 14.25 432.400390625 14.25 c 0
EndSplineSet
EndChar

StartChar: R
Encoding: 82 82 49
Width: 512
VWidth: 0
Flags: HW
HStem: 36.15 18.9G<351.833 488.9> 604.95 135<210.238 289.468>
VStem: 73.1 136.8<41.55 278.25 413.273 604.927> 327.8 135.9<453.075 567.091>
LayerCount: 2
Fore
SplineSet
231.5 415.5 m 0
 284.272460938 415.5 325.549804688 456.77734375 325.549804688 509.549804688 c 0
 325.549804688 561.40625 284.282226562 602.700195312 231.5 602.700195312 c 0
 225.057617188 602.700195312 218.610351562 601.959960938 212.150390625 600.475585938 c 1
 212.150390625 417.724609375 l 1
 218.610351562 416.240234375 225.057617188 415.5 231.5 415.5 c 0
231.5 607.200195312 m 0
 286.717773438 607.200195312 330.049804688 563.893554688 330.049804688 509.549804688 c 0
 330.049804688 454.322265625 286.727539062 411 231.5 411 c 0
 224.108398438 411 216.723632812 411.924804688 209.353515625 413.766601562 c 0
 208.375 414.01171875 207.650390625 414.896484375 207.650390625 415.950195312 c 2
 207.650390625 602.25 l 2
 207.650390625 603.303710938 208.375 604.188476562 209.353515625 604.432617188 c 0
 216.723632812 606.275390625 224.108398438 607.200195312 231.5 607.200195312 c 0
75.349609375 43.7998046875 m 1
 207.650390625 43.7998046875 l 1
 207.650390625 278.25 l 2
 207.650390625 279.4921875 208.658203125 280.5 209.900390625 280.5 c 0
 211.984375 280.5 215.37890625 280.379882812 216.240234375 278.978515625 c 2
 364.158203125 38.400390625 l 1
 484.5703125 38.400390625 l 1
 308.1875 289.55859375 l 2
 307.930664062 289.924804688 307.779296875 290.370117188 307.779296875 290.849609375 c 0
 307.779296875 291.827148438 308.403320312 292.659179688 309.274414062 292.969726562 c 0
 398.192382812 324.6953125 461.450195312 409.41015625 461.450195312 509.549804688 c 0
 461.450195312 636.10546875 358.965820312 738.599609375 231.5 738.599609375 c 0
 224.298828125 738.599609375 217.198242188 738.594726562 210.181640625 737.717773438 c 0
 210.088867188 737.706054688 209.995117188 737.700195312 209.900390625 737.700195312 c 2
 75.349609375 737.700195312 l 1
 75.349609375 43.7998046875 l 1
209.900390625 39.2998046875 m 2
 73.099609375 39.2998046875 l 2
 71.8583984375 39.2998046875 70.849609375 40.30859375 70.849609375 41.5498046875 c 2
 70.849609375 739.950195312 l 2
 70.849609375 741.19140625 71.8583984375 742.200195312 73.099609375 742.200195312 c 2
 209.758789062 742.200195312 l 2
 216.926757812 743.084960938 223.857421875 743.099609375 230.768554688 743.099609375 c 0
 231.01171875 743.099609375 231.255859375 743.099609375 231.5 743.099609375 c 0
 361.43359375 743.099609375 465.950195312 638.594726562 465.950195312 509.549804688 c 0
 465.950195312 408.517578125 402.763671875 322.84765625 313.55859375 289.739257812 c 1
 490.7421875 37.44140625 l 2
 490.999023438 37.0751953125 491.150390625 36.6298828125 491.150390625 36.150390625 c 0
 491.150390625 34.908203125 490.141601562 33.900390625 488.900390625 33.900390625 c 2
 362.900390625 33.900390625 l 2
 362.088867188 33.900390625 361.377929688 34.330078125 360.981445312 34.9736328125 c 2
 213.000976562 275.65625 l 2
 212.716796875 275.681640625 212.43359375 275.708007812 212.150390625 275.736328125 c 1
 212.150390625 41.5498046875 l 2
 212.150390625 40.30859375 211.141601562 39.2998046875 209.900390625 39.2998046875 c 2
EndSplineSet
EndChar

StartChar: S
Encoding: 83 83 50
Width: 512
VWidth: 0
Flags: HW
LayerCount: 2
Fore
SplineSet
437.213867188 244.770507812 m 0
 437.213867188 318.512695312 369.693359375 370.640625 292.104492188 412.462890625 c 1
 248.91796875 420.091796875 221.313476562 461.958984375 221.313476562 503.536132812 c 0
 221.313476562 518.940429688 225.094726562 534.364257812 233.319335938 548.072265625 c 0
 251.791992188 578.243164062 284.24609375 594.833984375 317.71875 594.833984375 c 0
 334.361328125 594.833984375 351.256835938 590.741210938 366.830078125 582.190429688 c 0
 374.905273438 578.153320312 380.162109375 574.091796875 384.969726562 570.123046875 c 1
 450.119140625 678.705078125 l 1
 444.424804688 683.127929688 438.057617188 685.747070312 432.801757812 690.885742188 c 0
 395.9765625 710.5625 356.046875 719.934570312 316.845703125 719.934570312 c 0
 237.390625 719.934570312 160.970703125 681.448242188 119.278320312 612.356445312 c 0
 98.337890625 577.208007812 89.1689453125 544.010742188 89.1689453125 513.094726562 c 0
 89.1689453125 433.467773438 150.228515625 368.014648438 231.497070312 324.0703125 c 1
 268.563476562 317.513671875 305.059570312 289.27734375 305.059570312 251.916015625 c 0
 305.059570312 241.4609375 302.1640625 230.407226562 295.705078125 219.102539062 c 0
 277.419921875 189.846679688 245.40625 173.030273438 212.267578125 173.030273438 c 0
 195.311523438 173.030273438 178.055664062 177.413085938 162.177734375 186.737304688 c 0
 154.139648438 190.763671875 148.83984375 194.844726562 144.030273438 198.810546875 c 1
 78.880859375 90.228515625 l 1
 84.5771484375 85.8037109375 90.9462890625 83.185546875 96.203125 78.0419921875 c 0
 133.223632812 57.96484375 203.340820312 50.7919921875 212.745117188 48.400390625 c 1
 291.90234375 48.400390625 367.823242188 87.056640625 408.810546875 156.557617188 c 0
 428.689453125 189.299804688 437.213867188 218.529296875 437.213867188 244.770507812 c 0
143.450195312 204.466796875 m 0
 143.997070312 204.466796875 144.499023438 204.271484375 144.888671875 203.946289062 c 0
 150.291992188 199.443359375 155.469726562 195.122070312 164.25390625 190.73046875 c 0
 164.299804688 190.708007812 164.344726562 190.68359375 164.388671875 190.657226562 c 0
 179.583007812 181.719726562 196.076171875 177.530273438 212.267578125 177.530273438 c 0
 243.904296875 177.530273438 274.369140625 193.448242188 291.794921875 221.331054688 c 0
 297.915039062 232.040039062 300.559570312 242.3125 300.559570312 251.916015625 c 0
 300.559570312 286.223632812 266.333007812 313.474609375 230.364257812 319.700195312 c 0
 230.122070312 319.741210938 229.892578125 319.822265625 229.68359375 319.935546875 c 0
 147.643554688 364.2109375 84.6689453125 430.861328125 84.6689453125 513.094726562 c 0
 84.6689453125 544.9296875 94.140625 578.954101562 115.421875 614.676757812 c 0
 158.01953125 685.266601562 235.97265625 724.434570312 316.845703125 724.434570312 c 0
 356.876953125 724.434570312 397.634765625 714.841796875 435.2109375 694.701171875 c 0
 435.40625 694.596679688 435.584960938 694.462890625 435.740234375 694.307617188 c 0
 441.095703125 688.953125 448.469726562 686.10546875 454.512695312 680.92578125 c 0
 454.995117188 680.512695312 455.299804688 679.900390625 455.299804688 679.216796875 c 0
 455.299804688 678.794921875 455.18359375 678.399414062 454.98046875 678.061523438 c 2
 387.48046875 565.561523438 l 2
 387.087890625 564.90625 386.369140625 564.466796875 385.549804688 564.466796875 c 0
 385.002929688 564.466796875 384.500976562 564.662109375 384.111328125 564.987304688 c 0
 378.708007812 569.490234375 373.453125 573.850585938 364.669921875 578.243164062 c 0
 349.76953125 586.422851562 333.61328125 590.333984375 317.71875 590.333984375 c 0
 285.715820312 590.333984375 254.783203125 574.51171875 237.180664062 545.76171875 c 0
 229.4140625 532.81640625 225.813476562 518.196289062 225.813476562 503.536132812 c 0
 225.813476562 463.619140625 252.44140625 423.845703125 293.233398438 416.833984375 c 0
 293.475585938 416.79296875 293.705078125 416.711914062 293.9140625 416.599609375 c 0
 371.630859375 374.751953125 441.713867188 321.65234375 441.713867188 244.770507812 c 0
 441.713867188 217.522460938 432.884765625 187.5390625 412.689453125 154.276367188 c 0
 370.806640625 83.2568359375 293.334960938 43.900390625 212.745117188 43.900390625 c 0
 172.540039062 43.900390625 131.55078125 53.6904296875 93.77734375 74.2392578125 c 0
 93.5859375 74.3427734375 93.412109375 74.4736328125 93.259765625 74.6259765625 c 0
 87.904296875 79.98046875 80.5302734375 82.8271484375 74.4873046875 88.0078125 c 0
 74.0048828125 88.4208984375 73.7001953125 89.033203125 73.7001953125 89.716796875 c 0
 73.7001953125 90.138671875 73.81640625 90.5341796875 74.01953125 90.8720703125 c 2
 141.51953125 203.372070312 l 2
 141.912109375 204.02734375 142.630859375 204.466796875 143.450195312 204.466796875 c 0
EndSplineSet
EndChar

StartChar: T
Encoding: 84 84 51
Width: 676
VWidth: 0
Flags: HW
HStem: 36.4 18.9G<272.6 409.4> 590.8 136.8<81.8 272.6 409.4 600.2>
VStem: 272.6 136.8<36.4 590.8>
LayerCount: 2
Fore
SplineSet
84.0498046875 725.349609375 m 1
 84.0498046875 593.049804688 l 1
 272.599609375 593.049804688 l 2
 273.841796875 593.049804688 274.849609375 592.041992188 274.849609375 590.799804688 c 2
 274.849609375 38.650390625 l 1
 407.150390625 38.650390625 l 1
 407.150390625 590.799804688 l 2
 407.150390625 592.041992188 408.158203125 593.049804688 409.400390625 593.049804688 c 2
 597.950195312 593.049804688 l 1
 597.950195312 725.349609375 l 1
 84.0498046875 725.349609375 l 1
79.5498046875 590.799804688 m 2
 79.5498046875 727.599609375 l 2
 79.5498046875 728.841796875 80.55859375 729.849609375 81.7998046875 729.849609375 c 2
 600.200195312 729.849609375 l 2
 601.44140625 729.849609375 602.450195312 728.841796875 602.450195312 727.599609375 c 2
 602.450195312 590.799804688 l 2
 602.450195312 589.55859375 601.44140625 588.549804688 600.200195312 588.549804688 c 2
 411.650390625 588.549804688 l 1
 411.650390625 36.400390625 l 2
 411.650390625 35.158203125 410.641601562 34.150390625 409.400390625 34.150390625 c 2
 272.599609375 34.150390625 l 2
 271.358398438 34.150390625 270.349609375 35.158203125 270.349609375 36.400390625 c 2
 270.349609375 588.549804688 l 1
 81.7998046875 588.549804688 l 2
 80.55859375 588.549804688 79.5498046875 589.55859375 79.5498046875 590.799804688 c 2
EndSplineSet
EndChar

StartChar: U
Encoding: 85 85 52
Width: 669
VWidth: 0
Flags: HW
HStem: 705.096 18G<78.45 228.75 440.25 590.55>
VStem: 81.15 147.6<193.689 723.096> 440.25 147.6<193.851 723.096>
LayerCount: 2
Fore
SplineSet
442.5 720.846679688 m 1
 442.5 204.696289062 l 2
 442.5 204.149414062 442.3046875 203.647460938 441.979492188 203.256835938 c 0
 424.31640625 182.0625 379.798828125 172.388671875 335.5546875 172.388671875 c 0
 290.7421875 172.388671875 245.228515625 182.318359375 227.051757812 203.220703125 c 0
 226.708007812 203.616210938 226.5 204.131835938 226.5 204.696289062 c 2
 226.5 720.846679688 l 1
 80.7119140625 720.846679688 l 1
 83.3984375 204.118164062 l 1
 114.16796875 96.5283203125 223.4453125 43.0791015625 333.500976562 43.0791015625 c 0
 444.487304688 43.0791015625 555.098632812 97.4462890625 585.6015625 204.118164062 c 1
 588.288085938 720.846679688 l 1
 442.5 720.846679688 l 1
78.4501953125 725.346679688 m 2
 228.75 725.346679688 l 2
 229.9921875 725.346679688 231 724.337890625 231 723.096679688 c 2
 231 205.551757812 l 1
 247.87109375 187.026367188 291.612304688 176.888671875 335.5546875 176.888671875 c 0
 378.977539062 176.888671875 421.659179688 186.79296875 438 205.524414062 c 1
 438 723.096679688 l 2
 438 724.337890625 439.0078125 725.346679688 440.25 725.346679688 c 2
 590.549804688 725.346679688 l 2
 591.791992188 725.346679688 592.799804688 724.337890625 592.799804688 723.096679688 c 2
 590.099609375 203.784179688 l 2
 590.098632812 203.575195312 590.069335938 203.373046875 590.014648438 203.180664062 c 0
 558.880859375 93.6748046875 445.797851562 38.5791015625 333.500976562 38.5791015625 c 0
 222.129882812 38.5791015625 110.383789062 92.78125 78.9853515625 203.180664062 c 0
 78.9306640625 203.372070312 78.9013671875 203.575195312 78.900390625 203.784179688 c 2
 76.2001953125 723.083984375 l 2
 76.2001953125 724.337890625 77.2080078125 725.346679688 78.4501953125 725.346679688 c 2
EndSplineSet
EndChar

StartChar: V
Encoding: 86 86 53
Width: 652
VWidth: 0
Flags: HW
LayerCount: 2
Fore
SplineSet
326 299.198242188 m 0
 324.954101562 299.198242188 324.07421875 299.913085938 323.822265625 300.880859375 c 2
 212.66015625 728.299804688 l 1
 80.5107421875 728.299804688 l 1
 259.33984375 40.7001953125 l 1
 392.66015625 40.7001953125 l 1
 571.489257812 728.299804688 l 1
 439.33984375 728.299804688 l 1
 328.177734375 300.880859375 l 2
 327.92578125 299.913085938 327.045898438 299.198242188 326 299.198242188 c 0
77.599609375 732.799804688 m 2
 214.400390625 732.799804688 l 2
 215.446289062 732.799804688 216.326171875 732.084960938 216.578125 731.1171875 c 2
 326 310.388671875 l 1
 435.421875 731.1171875 l 2
 435.673828125 732.084960938 436.553710938 732.799804688 437.599609375 732.799804688 c 2
 574.400390625 732.799804688 l 2
 575.641601562 732.799804688 576.650390625 731.791992188 576.650390625 730.549804688 c 0
 576.650390625 730.354492188 576.625 730.1640625 576.578125 729.982421875 c 2
 396.578125 37.8828125 l 2
 396.326171875 36.9150390625 395.446289062 36.2001953125 394.400390625 36.2001953125 c 2
 257.599609375 36.2001953125 l 2
 256.553710938 36.2001953125 255.673828125 36.9150390625 255.421875 37.8828125 c 2
 75.421875 729.982421875 l 2
 75.375 730.1640625 75.349609375 730.354492188 75.349609375 730.549804688 c 0
 75.349609375 731.791992188 76.3583984375 732.799804688 77.599609375 732.799804688 c 2
EndSplineSet
EndChar

StartChar: W
Encoding: 87 87 54
Width: 1000
VWidth: 0
Flags: HW
LayerCount: 2
Fore
SplineSet
526.5 471.532226562 m 0
 527.545898438 471.532226562 528.42578125 470.817382812 528.677734375 469.849609375 c 2
 640.290039062 40.7001953125 l 1
 773.610351562 40.7001953125 l 1
 952.439453125 728.299804688 l 1
 820.290039062 728.299804688 l 1
 709.127929688 300.682617188 l 2
 708.875976562 299.715820312 707.99609375 299 706.950195312 299 c 0
 705.904296875 299 705.0234375 299.715820312 704.772460938 300.682617188 c 2
 593.609375 728.299804688 l 1
 459.389648438 728.299804688 l 1
 348.227539062 300.880859375 l 2
 347.9765625 299.913085938 347.095703125 299.198242188 346.049804688 299.198242188 c 0
 345.00390625 299.198242188 344.124023438 299.913085938 343.872070312 300.880859375 c 2
 232.709960938 728.299804688 l 1
 100.560546875 728.299804688 l 1
 279.389648438 40.7001953125 l 1
 412.709960938 40.7001953125 l 1
 524.322265625 469.849609375 l 2
 524.57421875 470.817382812 525.454101562 471.532226562 526.5 471.532226562 c 0
97.650390625 732.799804688 m 2
 234.450195312 732.799804688 l 2
 235.49609375 732.799804688 236.375976562 732.084960938 236.627929688 731.1171875 c 2
 346.049804688 310.388671875 l 1
 455.47265625 731.1171875 l 2
 455.723632812 732.084960938 456.604492188 732.799804688 457.650390625 732.799804688 c 2
 595.349609375 732.799804688 l 2
 596.396484375 732.799804688 597.276367188 732.084960938 597.528320312 731.1171875 c 2
 706.950195312 310.194335938 l 1
 816.372070312 731.1171875 l 2
 816.624023438 732.084960938 817.50390625 732.799804688 818.549804688 732.799804688 c 2
 955.349609375 732.799804688 l 2
 956.591796875 732.799804688 957.599609375 731.791992188 957.599609375 730.549804688 c 0
 957.599609375 730.354492188 957.575195312 730.1640625 957.52734375 729.982421875 c 2
 777.52734375 37.8828125 l 2
 777.276367188 36.9150390625 776.395507812 36.2001953125 775.349609375 36.2001953125 c 2
 638.549804688 36.2001953125 l 2
 637.50390625 36.2001953125 636.624023438 36.9150390625 636.372070312 37.8828125 c 2
 526.5 460.341796875 l 1
 416.627929688 37.8828125 l 2
 416.375976562 36.9150390625 415.49609375 36.2001953125 414.450195312 36.2001953125 c 2
 277.650390625 36.2001953125 l 2
 276.604492188 36.2001953125 275.723632812 36.9150390625 275.47265625 37.8828125 c 2
 95.47265625 729.982421875 l 2
 95.4248046875 730.1640625 95.400390625 730.354492188 95.400390625 730.549804688 c 0
 95.400390625 731.791992188 96.408203125 732.799804688 97.650390625 732.799804688 c 2
EndSplineSet
EndChar

StartChar: X
Encoding: 88 88 55
Width: 724
VWidth: 0
Flags: HW
HStem: 37.5 18G<92.5494 242.3 474.831 642.8>
LayerCount: 2
Fore
SplineSet
285.5 384 m 0
 285.5 383.58984375 285.389648438 383.204101562 285.197265625 382.873046875 c 2
 86.046875 39.81640625 l 1
 240.991210938 42.4287109375 l 1
 360.600585938 248.782226562 l 2
 360.990234375 249.454101562 361.716796875 249.90625 362.548828125 249.90625 c 0
 363.37890625 249.90625 364.10546875 249.455078125 364.495117188 248.78515625 c 2
 486.5859375 38.865234375 l 1
 638.951171875 40.6064453125 l 1
 441.700195312 386.471679688 l 2
 441.512695312 386.799804688 441.40625 387.1796875 441.40625 387.583984375 c 0
 441.40625 387.994140625 441.515625 388.37890625 441.708007812 388.709960938 c 2
 638.0078125 727.372070312 l 1
 485.69140625 728.2421875 l 1
 367.142578125 524.03125 l 2
 366.752929688 523.360351562 366.026367188 522.909179688 365.1953125 522.909179688 c 0
 364.358398438 522.909179688 363.626953125 523.3671875 363.239257812 524.046875 c 2
 247.28515625 727.364257812 l 1
 85.1357421875 729.107421875 l 1
 285.196289062 385.12890625 l 2
 285.389648438 384.796875 285.5 384.411132812 285.5 384 c 0
644.150390625 729.599609375 m 0
 644.150390625 729.189453125 644.040039062 728.805664062 643.84765625 728.473632812 c 2
 446.250976562 387.575195312 l 1
 644.755859375 39.5126953125 l 2
 644.943359375 39.1845703125 645.049804688 38.8046875 645.049804688 38.400390625 c 0
 645.049804688 37.1669921875 644.055664062 36.1640625 642.826171875 36.150390625 c 2
 642.826171875 36.150390625 485.326171875 34.3505859375 485.299804688 34.349609375 c 0
 484.469726562 34.349609375 483.743164062 34.80078125 483.353515625 35.4716796875 c 2
 362.551757812 243.174804688 l 1
 244.248046875 39.07421875 l 2
 243.864257812 38.4130859375 243.154296875 37.9638671875 242.338867188 37.9501953125 c 2
 242.338867188 37.9501953125 82.138671875 35.25 82.099609375 35.25 c 0
 80.8583984375 35.25 79.849609375 36.2578125 79.849609375 37.5 c 0
 79.849609375 37.91015625 79.9599609375 38.2958984375 80.15234375 38.626953125 c 2
 280.647460938 383.999023438 l 1
 79.25390625 730.271484375 l 2
 79.060546875 730.603515625 78.9501953125 730.98828125 78.9501953125 731.400390625 c 0
 78.9501953125 732.641601562 79.9580078125 733.663085938 81.224609375 733.649414062 c 2
 248.625 731.849609375 l 2
 249.452148438 731.840820312 250.171875 731.384765625 250.555664062 730.711914062 c 2
 365.212890625 529.669921875 l 1
 482.453125 731.626953125 l 2
 482.841796875 732.297851562 483.568359375 732.75 484.400390625 732.75 c 2
 641.913085938 731.849609375 l 2
 643.1484375 731.842773438 644.150390625 730.837890625 644.150390625 729.599609375 c 0
EndSplineSet
EndChar

StartChar: Y
Encoding: 89 89 56
Width: 512
VWidth: 0
Flags: HW
VStem: 200.7 136.8<39.2 443.3>
LayerCount: 2
Fore
SplineSet
203.278320312 444.200195312 m 0
 203.278320312 443.771484375 203.158203125 443.370117188 202.950195312 443.029296875 c 2
 202.950195312 41.4501953125 l 1
 335.25 41.4501953125 l 1
 335.25 443.299804688 l 2
 335.25 444.420898438 336.072265625 445.352539062 337.145507812 445.522460938 c 2
 514.306640625 724.549804688 l 1
 382.747070312 724.549804688 l 1
 271.822265625 571.581054688 l 2
 271.4140625 571.017578125 270.749023438 570.650390625 270 570.650390625 c 0
 269.250976562 570.650390625 268.5859375 571.017578125 268.177734375 571.581054688 c 2
 157.252929688 724.549804688 l 1
 25.693359375 724.549804688 l 1
 202.9296875 445.403320312 l 2
 203.150390625 445.055664062 203.278320312 444.642578125 203.278320312 444.200195312 c 0
339.75 39.2001953125 m 2
 339.75 37.9580078125 338.7421875 36.9501953125 337.5 36.9501953125 c 2
 200.700195312 36.9501953125 l 2
 199.458007812 36.9501953125 198.450195312 37.9580078125 198.450195312 39.2001953125 c 2
 198.450195312 444.063476562 l 1
 19.69921875 725.596679688 l 2
 19.478515625 725.944335938 19.349609375 726.357421875 19.349609375 726.799804688 c 0
 19.349609375 728.041992188 20.3583984375 729.049804688 21.599609375 729.049804688 c 2
 158.400390625 729.049804688 l 2
 159.149414062 729.049804688 159.813476562 728.682617188 160.22265625 728.119140625 c 2
 270 576.732421875 l 1
 379.77734375 728.119140625 l 2
 380.186523438 728.682617188 380.850585938 729.049804688 381.599609375 729.049804688 c 2
 518.400390625 729.049804688 l 2
 519.641601562 729.049804688 520.650390625 728.041992188 520.650390625 726.799804688 c 0
 520.650390625 726.357421875 520.521484375 725.944335938 520.30078125 725.596679688 c 2
 340.30078125 442.096679688 l 2
 340.154296875 441.866210938 339.967773438 441.6640625 339.75 441.5 c 2
 339.75 39.2001953125 l 2
EndSplineSet
EndChar

StartChar: Z
Encoding: 90 90 57
Width: 783
VWidth: 0
Flags: HW
HStem: 47.6 136.8<310.05 698.85> 587.6 136.8<84.15 471.15>
LayerCount: 2
Fore
SplineSet
696.599609375 49.849609375 m 1
 696.599609375 182.150390625 l 1
 310.049804688 182.150390625 l 2
 308.80859375 182.150390625 307.799804688 183.158203125 307.799804688 184.400390625 c 0
 307.799804688 185.005859375 308.040039062 185.556640625 308.430664062 185.9609375 c 2
 696.599609375 588.5078125 l 1
 696.599609375 722.150390625 l 1
 86.400390625 722.150390625 l 1
 86.400390625 589.849609375 l 1
 471.150390625 589.849609375 l 2
 472.391601562 589.849609375 473.400390625 588.841796875 473.400390625 587.599609375 c 0
 473.400390625 586.99609375 473.161132812 586.447265625 472.7734375 586.04296875 c 2
 86.400390625 183.495117188 l 1
 86.400390625 49.849609375 l 1
 696.599609375 49.849609375 l 1
81.900390625 47.599609375 m 2
 81.900390625 184.400390625 l 2
 81.900390625 185.00390625 82.138671875 185.552734375 82.5263671875 185.95703125 c 2
 465.872070312 585.349609375 l 1
 84.150390625 585.349609375 l 2
 82.908203125 585.349609375 81.900390625 586.358398438 81.900390625 587.599609375 c 2
 81.900390625 724.400390625 l 2
 81.900390625 725.641601562 82.908203125 726.650390625 84.150390625 726.650390625 c 2
 698.849609375 726.650390625 l 2
 700.091796875 726.650390625 701.099609375 725.641601562 701.099609375 724.400390625 c 2
 701.099609375 587.599609375 l 2
 701.099609375 586.994140625 700.859375 586.443359375 700.469726562 586.0390625 c 2
 315.344726562 186.650390625 l 1
 698.849609375 186.650390625 l 2
 700.091796875 186.650390625 701.099609375 185.641601562 701.099609375 184.400390625 c 2
 701.099609375 47.599609375 l 2
 701.099609375 46.3583984375 700.091796875 45.349609375 698.849609375 45.349609375 c 2
 84.150390625 45.349609375 l 2
 82.908203125 45.349609375 81.900390625 46.3583984375 81.900390625 47.599609375 c 2
EndSplineSet
EndChar

StartChar: bracketleft
Encoding: 91 91 58
Width: 362
VWidth: 0
Flags: HW
HStem: -37.3 76.5<147.7 298> 654.8 76.5<147.7 298>
VStem: 63.1 235.8<-37.3 39.2 654.8 731.3> 63.1 84.6<39.2 654.8>
LayerCount: 2
Fore
SplineSet
65.349609375 729.049804688 m 1
 65.349609375 -35.0498046875 l 1
 296.623046875 -35.0498046875 l 1
 295.776367188 36.9501953125 l 1
 147.700195312 36.9501953125 l 2
 146.458007812 36.9501953125 145.450195312 37.9580078125 145.450195312 39.2001953125 c 2
 145.450195312 654.799804688 l 2
 145.450195312 656.041992188 146.458007812 657.049804688 147.700195312 657.049804688 c 2
 295.776367188 657.049804688 l 1
 296.623046875 729.049804688 l 1
 65.349609375 729.049804688 l 1
63.099609375 -39.5498046875 m 2
 61.8583984375 -39.5498046875 60.849609375 -38.5419921875 60.849609375 -37.2998046875 c 2
 60.849609375 731.299804688 l 2
 60.849609375 732.541992188 61.8583984375 733.549804688 63.099609375 733.549804688 c 2
 298.900390625 733.549804688 l 2
 300.141601562 733.549804688 301.150390625 732.541992188 301.149414062 731.2734375 c 2
 300.25 654.7734375 l 2
 300.235351562 653.543945312 299.232421875 652.549804688 298 652.549804688 c 2
 149.950195312 652.549804688 l 1
 149.950195312 41.4501953125 l 1
 298 41.4501953125 l 2
 299.232421875 41.4501953125 300.235351562 40.4560546875 300.25 39.2265625 c 2
 300.25 39.2265625 301.149414062 -37.2734375 301.150390625 -37.2998046875 c 0
 301.150390625 -38.5419921875 300.141601562 -39.5498046875 298.900390625 -39.5498046875 c 2
 63.099609375 -39.5498046875 l 2
EndSplineSet
EndChar

StartChar: backslash
Encoding: 92 92 59
Width: 691
VWidth: 0
Flags: HW
LayerCount: 2
Fore
SplineSet
608.375 17.7763671875 m 1
 174.125 769.87890625 l 1
 82.625 717.223632812 l 1
 516.875 -34.87890625 l 1
 608.375 17.7763671875 l 1
613.700195312 16.9501953125 m 0
 613.700195312 16.1162109375 613.245117188 15.38671875 612.5703125 14.998046875 c 2
 517.169921875 -39.9013671875 l 2
 516.83984375 -40.091796875 516.458007812 -40.2001953125 516.049804688 -40.2001953125 c 0
 515.216796875 -40.2001953125 514.489257812 -39.74609375 514.099609375 -39.072265625 c 2
 77.599609375 716.927734375 l 2
 77.4091796875 717.2578125 77.2998046875 717.641601562 77.2998046875 718.049804688 c 0
 77.2998046875 718.883789062 77.7548828125 719.61328125 78.4296875 720.001953125 c 2
 173.830078125 774.901367188 l 2
 174.16015625 775.091796875 174.541992188 775.200195312 174.950195312 775.200195312 c 0
 175.783203125 775.200195312 176.510742188 774.74609375 176.900390625 774.072265625 c 2
 613.400390625 18.072265625 l 2
 613.590820312 17.7421875 613.700195312 17.3583984375 613.700195312 16.9501953125 c 0
EndSplineSet
EndChar

StartChar: bracketright
Encoding: 93 93 60
Width: 362
VWidth: 0
Flags: HW
HStem: -38.25 76.5<64 214.3> 654.75 76.5<64 214.3>
VStem: 63.1 235.8<-38.25 38.25 654.75 731.25> 214.3 84.6<38.25 654.75>
LayerCount: 2
Fore
SplineSet
296.650390625 -36 m 1
 296.650390625 729 l 1
 65.376953125 729 l 1
 66.2236328125 657 l 1
 214.299804688 657 l 2
 215.541992188 657 216.549804688 655.9921875 216.549804688 654.75 c 2
 216.549804688 38.25 l 2
 216.549804688 37.0078125 215.541992188 36 214.299804688 36 c 2
 66.2236328125 36 l 1
 65.376953125 -36 l 1
 296.650390625 -36 l 1
298.900390625 -40.5 m 2
 63.099609375 -40.5 l 2
 61.8583984375 -40.5 60.849609375 -39.4921875 60.8505859375 -38.22265625 c 2
 61.75 38.27734375 l 2
 61.7646484375 39.5068359375 62.767578125 40.5 64 40.5 c 2
 212.049804688 40.5 l 1
 212.049804688 652.5 l 1
 64 652.5 l 2
 62.767578125 652.5 61.7646484375 653.493164062 61.75 654.72265625 c 2
 61.75 654.72265625 60.8505859375 731.22265625 60.849609375 731.25 c 0
 60.849609375 732.4921875 61.8583984375 733.5 63.099609375 733.5 c 2
 298.900390625 733.5 l 2
 300.141601562 733.5 301.150390625 732.4921875 301.150390625 731.25 c 2
 301.150390625 -38.25 l 2
 301.150390625 -39.4921875 300.141601562 -40.5 298.900390625 -40.5 c 2
EndSplineSet
EndChar

StartChar: asciicircum
Encoding: 94 94 61
Width: 644
VWidth: 0
Flags: HW
LayerCount: 2
Fore
SplineSet
328.299804688 494.549804688 m 0
 329.392578125 494.549804688 330.3046875 493.768554688 330.5078125 492.735351562 c 2
 367.952148438 301.950195312 l 1
 499.825195312 301.950195312 l 1
 405.852539062 598.049804688 l 1
 271.284179688 598.049804688 l 1
 144.510742188 301.950195312 l 1
 276.162109375 301.950195312 l 1
 326.123046875 492.870117188 l 2
 326.375976562 493.8359375 327.254882812 494.549804688 328.299804688 494.549804688 c 0
269.799804688 602.549804688 m 2
 407.5 602.549804688 l 2
 408.504882812 602.549804688 409.356445312 601.889648438 409.645507812 600.98046875 c 2
 505.044921875 300.380859375 l 2
 505.11328125 300.166015625 505.150390625 299.9375 505.150390625 299.700195312 c 0
 505.150390625 298.458007812 504.141601562 297.450195312 502.900390625 297.450195312 c 2
 366.099609375 297.450195312 l 2
 365.006835938 297.450195312 364.094726562 298.231445312 363.892578125 299.264648438 c 2
 327.986328125 482.212890625 l 1
 280.077148438 299.129882812 l 2
 279.82421875 298.1640625 278.944335938 297.450195312 277.900390625 297.450195312 c 2
 141.099609375 297.450195312 l 2
 139.858398438 297.450195312 138.849609375 298.458007812 138.849609375 299.700195312 c 0
 138.849609375 300.013671875 138.9140625 300.3125 139.030273438 300.583984375 c 2
 267.73046875 601.18359375 l 2
 268.07421875 601.987304688 268.872070312 602.549804688 269.799804688 602.549804688 c 2
EndSplineSet
EndChar

StartChar: underscore
Encoding: 95 95 62
Width: 544
VWidth: 0
Flags: HW
HStem: 51.6 136.8<27.2 516.8>
LayerCount: 2
Fore
SplineSet
514.549804688 53.849609375 m 1
 514.549804688 186.150390625 l 1
 29.4501953125 186.150390625 l 1
 29.4501953125 53.849609375 l 1
 514.549804688 53.849609375 l 1
519.049804688 188.400390625 m 2
 519.049804688 51.599609375 l 2
 519.049804688 50.3583984375 518.041992188 49.349609375 516.799804688 49.349609375 c 2
 27.2001953125 49.349609375 l 2
 25.9580078125 49.349609375 24.9501953125 50.3583984375 24.9501953125 51.599609375 c 2
 24.9501953125 188.400390625 l 2
 24.9501953125 189.641601562 25.9580078125 190.650390625 27.2001953125 190.650390625 c 2
 516.799804688 190.650390625 l 2
 518.041992188 190.650390625 519.049804688 189.641601562 519.049804688 188.400390625 c 2
EndSplineSet
EndChar

StartChar: grave
Encoding: 96 96 63
Width: 252
VWidth: 0
Flags: HW
HStem: 530.45 260.1
VStem: -4.5 261
LayerCount: 2
Fore
SplineSet
-1.3115234375 694.2421875 m 1
 159.307617188 533.624023438 l 1
 253.311523438 626.7578125 l 1
 92.6923828125 787.375976562 l 1
 -1.3115234375 694.2421875 l 1
-6.75 694.25 m 0
 -6.75 694.875 -6.4951171875 695.440429688 -6.0830078125 695.84765625 c 2
 91.1171875 792.1484375 l 2
 91.5234375 792.55078125 92.0830078125 792.799804688 92.7001953125 792.799804688 c 0
 93.3212890625 792.799804688 93.8837890625 792.547851562 94.291015625 792.140625 c 2
 258.090820312 628.340820312 l 2
 258.498046875 627.93359375 258.75 627.37109375 258.75 626.75 c 0
 258.75 626.125 258.495117188 625.559570312 258.083007812 625.15234375 c 2
 160.8828125 528.8515625 l 2
 160.4765625 528.44921875 159.916992188 528.200195312 159.299804688 528.200195312 c 0
 158.678710938 528.200195312 158.116210938 528.452148438 157.708984375 528.859375 c 2
 -6.0908203125 692.659179688 l 2
 -6.498046875 693.06640625 -6.75 693.62890625 -6.75 694.25 c 0
EndSplineSet
EndChar

StartChar: a
Encoding: 97 97 64
Width: 512
VWidth: 0
Flags: HW
HStem: 33 135.9<245.824 325.5> 360.6 128.7<245.716 325.163>
VStem: 71.7 135.9<207.124 322.504> 325.5 136.8<26.7 33.9 168.911 360.589>
LayerCount: 2
Fore
SplineSet
460.049804688 486.150390625 m 1
 325.5 486.150390625 l 2
 325.404296875 486.150390625 325.310546875 486.15625 325.21875 486.166992188 c 0
 318.202148438 487.044921875 311.100585938 487.049804688 303.900390625 487.049804688 c 0
 176.337890625 487.049804688 73.9501953125 391.6875 73.9501953125 265.200195312 c 0
 73.9501953125 137.73828125 176.438476562 35.25 303.900390625 35.25 c 0
 311.100585938 35.25 318.202148438 35.255859375 325.21875 36.1328125 c 0
 325.310546875 36.14453125 325.404296875 36.150390625 325.5 36.150390625 c 0
 326.7421875 36.150390625 327.75 35.1416015625 327.75 33.900390625 c 2
 327.75 28.9501953125 l 1
 460.049804688 28.9501953125 l 1
 460.049804688 486.150390625 l 1
303.900390625 358.349609375 m 0
 251.118164062 358.349609375 209.849609375 317.055664062 209.849609375 265.200195312 c 0
 209.849609375 212.427734375 251.127929688 171.150390625 303.900390625 171.150390625 c 0
 310.342773438 171.150390625 316.790039062 171.889648438 323.25 173.374023438 c 1
 323.25 356.125976562 l 1
 316.790039062 357.610351562 310.342773438 358.349609375 303.900390625 358.349609375 c 0
327.75 357.900390625 m 2
 327.75 171.599609375 l 2
 327.75 170.546875 327.024414062 169.661132812 326.046875 169.416992188 c 0
 318.676757812 167.57421875 311.291015625 166.650390625 303.900390625 166.650390625 c 0
 248.671875 166.650390625 205.349609375 209.97265625 205.349609375 265.200195312 c 0
 205.349609375 319.543945312 248.681640625 362.849609375 303.900390625 362.849609375 c 0
 311.291015625 362.849609375 318.676757812 361.92578125 326.046875 360.083007812 c 0
 327.024414062 359.838867188 327.75 358.953125 327.75 357.900390625 c 2
325.640625 490.650390625 m 2
 462.299804688 490.650390625 l 2
 463.541992188 490.650390625 464.549804688 489.641601562 464.549804688 488.400390625 c 2
 464.549804688 26.7001953125 l 2
 464.549804688 25.4580078125 463.541992188 24.4501953125 462.299804688 24.4501953125 c 2
 325.5 24.4501953125 l 2
 324.2578125 24.4501953125 323.25 25.4580078125 323.25 26.7001953125 c 2
 323.25 31.384765625 l 1
 316.926757812 30.76171875 310.771484375 30.75 304.631835938 30.75 c 0
 304.387695312 30.75 304.143554688 30.75 303.900390625 30.75 c 0
 173.961914062 30.75 69.4501953125 135.26171875 69.4501953125 265.200195312 c 0
 69.4501953125 394.3125 174.0625 491.549804688 303.900390625 491.549804688 c 0
 311.052734375 491.549804688 318.34765625 490.650390625 325.640625 490.650390625 c 2
EndSplineSet
EndChar

StartChar: b
Encoding: 98 98 65
Width: 512
VWidth: 0
Flags: HW
HStem: 42.75 135<208.838 288.284> 369.45 135.9<208.5 288.176>
VStem: 71.7 136.8<177.761 369.439 504.45 741.15> 326.4 135.9<215.609 331.226>
LayerCount: 2
Fore
SplineSet
73.9501953125 45 m 1
 208.5 45 l 2
 208.595703125 45 208.689453125 44.994140625 208.78125 44.982421875 c 0
 215.797851562 44.10546875 222.899414062 44.099609375 230.099609375 44.099609375 c 0
 357.56640625 44.099609375 460.049804688 146.594726562 460.049804688 273.150390625 c 0
 460.049804688 400.612304688 357.561523438 503.099609375 230.099609375 503.099609375 c 0
 222.899414062 503.099609375 215.797851562 503.094726562 208.78125 502.217773438 c 0
 208.689453125 502.206054688 208.595703125 502.200195312 208.5 502.200195312 c 0
 207.2578125 502.200195312 206.25 503.208007812 206.25 504.450195312 c 2
 206.25 738.900390625 l 1
 73.9501953125 738.900390625 l 1
 73.9501953125 45 l 1
230.099609375 180 m 0
 282.881835938 180 324.150390625 221.293945312 324.150390625 273.150390625 c 0
 324.150390625 325.921875 282.872070312 367.200195312 230.099609375 367.200195312 c 0
 223.657226562 367.200195312 217.209960938 366.459960938 210.75 364.975585938 c 1
 210.75 182.224609375 l 1
 217.209960938 180.740234375 223.657226562 180 230.099609375 180 c 0
206.25 180.450195312 m 2
 206.25 366.75 l 2
 206.25 367.803710938 206.975585938 368.688476562 207.953125 368.932617188 c 0
 215.323242188 370.775390625 222.708984375 371.700195312 230.099609375 371.700195312 c 0
 285.328125 371.700195312 328.650390625 328.377929688 328.650390625 273.150390625 c 0
 328.650390625 218.805664062 285.318359375 175.5 230.099609375 175.5 c 0
 222.708984375 175.5 215.323242188 176.424804688 207.953125 178.266601562 c 0
 206.975585938 178.51171875 206.25 179.396484375 206.25 180.450195312 c 2
208.359375 40.5 m 2
 71.7001953125 40.5 l 2
 70.4580078125 40.5 69.4501953125 41.5078125 69.4501953125 42.75 c 2
 69.4501953125 741.150390625 l 2
 69.4501953125 742.391601562 70.4580078125 743.400390625 71.7001953125 743.400390625 c 2
 208.5 743.400390625 l 2
 209.7421875 743.400390625 210.75 742.391601562 210.75 741.150390625 c 2
 210.75 506.96484375 l 1
 216.659179688 507.546875 227.74609375 507.6015625 229.778320312 507.6015625 c 0
 229.989257812 507.6015625 230.099609375 507.599609375 230.099609375 507.599609375 c 2
 360.038085938 507.599609375 464.549804688 403.087890625 464.549804688 273.150390625 c 0
 464.549804688 144.10546875 360.034179688 39.599609375 230.099609375 39.599609375 c 0
 222.947265625 39.599609375 215.65234375 40.5 208.359375 40.5 c 2
EndSplineSet
EndChar

StartChar: c
Encoding: 99 99 66
Width: 384
VWidth: 0
Flags: HW
HStem: 28.75 135.9<238.324 319.8> 356.35 135.9<238.324 319.8>
VStem: 64.2 135.9<202.509 318.126>
LayerCount: 2
Fore
SplineSet
66.4501953125 260.049804688 m 0
 66.4501953125 133.495117188 168.93359375 31 296.400390625 31 c 0
 303.528320312 31 310.583007812 31.3251953125 317.549804688 31.9609375 c 1
 317.549804688 164.640625 l 1
 310.734375 163.172851562 303.657226562 162.400390625 296.400390625 162.400390625 c 0
 241.181640625 162.400390625 197.849609375 205.706054688 197.849609375 260.049804688 c 0
 197.849609375 315.27734375 241.171875 358.599609375 296.400390625 358.599609375 c 0
 303.657226562 358.599609375 310.734375 357.827148438 317.549804688 356.357421875 c 1
 317.549804688 489.038085938 l 1
 310.583007812 489.674804688 303.528320312 490 296.400390625 490 c 0
 168.938476562 490 66.4501953125 387.51171875 66.4501953125 260.049804688 c 0
296.400390625 26.5 m 0
 166.465820312 26.5 61.9501953125 131.004882812 61.9501953125 260.049804688 c 0
 61.9501953125 389.98828125 166.461914062 494.5 296.400390625 494.5 c 0
 304.372070312 494.5 312.25390625 494.1015625 320.026367188 493.322265625 c 0
 321.162109375 493.208007812 322.049804688 492.249023438 322.049804688 491.083007812 c 2
 322.049804688 353.528320312 l 2
 322.049804688 352.286132812 321.041992188 351.278320312 319.799804688 351.278320312 c 0
 319.614257812 351.278320312 319.43359375 351.30078125 319.260742188 351.342773438 c 0
 311.940429688 353.145507812 304.282226562 354.099609375 296.400390625 354.099609375 c 0
 243.627929688 354.099609375 202.349609375 312.822265625 202.349609375 260.049804688 c 0
 202.349609375 208.194335938 243.618164062 166.900390625 296.400390625 166.900390625 c 0
 304.282226562 166.900390625 311.94140625 167.854492188 319.26171875 169.654296875 c 0
 319.434570312 169.696289062 319.614257812 169.71875 319.799804688 169.71875 c 0
 321.041992188 169.71875 322.049804688 168.7109375 322.049804688 167.46875 c 2
 322.049804688 29.916015625 l 2
 322.049804688 28.7509765625 321.162109375 27.7919921875 320.026367188 27.677734375 c 0
 312.25390625 26.8984375 304.372070312 26.5 296.400390625 26.5 c 0
EndSplineSet
EndChar

StartChar: d
Encoding: 100 100 67
Width: 512
VWidth: 0
Flags: HW
HStem: 41.85 135.9<244.909 325.5> 369.45 135.9<245.824 325.5>
VStem: 71.7 135.9<215.609 331.226> 325.5 136.8<42.75 42.8432 177.76 369.44 504.356 741.15>
LayerCount: 2
Fore
SplineSet
460.049804688 738.900390625 m 1
 327.75 738.900390625 l 1
 327.75 504.356445312 l 2
 327.75 503.115234375 326.7421875 502.106445312 325.5 502.106445312 c 0
 325.4296875 502.106445312 325.359375 502.110351562 325.291015625 502.116210938 c 0
 318.245117188 502.767578125 311.110351562 503.099609375 303.900390625 503.099609375 c 0
 176.438476562 503.099609375 73.9501953125 400.612304688 73.9501953125 273.150390625 c 0
 73.9501953125 146.594726562 176.43359375 44.099609375 303.900390625 44.099609375 c 0
 311.110351562 44.099609375 318.245117188 44.4326171875 325.291015625 45.083984375 c 0
 325.359375 45.08984375 325.4296875 45.0927734375 325.5 45.0927734375 c 0
 325.72265625 45.0927734375 325.938476562 45.060546875 326.142578125 45 c 2
 460.049804688 45 l 1
 460.049804688 738.900390625 l 1
325.5 743.400390625 m 2
 462.299804688 743.400390625 l 2
 463.541992188 743.400390625 464.549804688 742.391601562 464.549804688 741.150390625 c 2
 464.549804688 42.75 l 2
 464.549804688 41.5078125 463.541992188 40.5 462.299804688 40.5 c 2
 325.5 40.5 l 2
 325.348632812 40.5 325.201171875 40.5146484375 325.057617188 40.5439453125 c 0
 318.086914062 39.9189453125 311.029296875 39.599609375 303.900390625 39.599609375 c 0
 173.965820312 39.599609375 69.4501953125 144.10546875 69.4501953125 273.150390625 c 0
 69.4501953125 403.087890625 173.961914062 507.599609375 303.900390625 507.599609375 c 0
 310.4140625 507.599609375 316.8671875 507.333984375 323.25 506.811523438 c 1
 323.25 741.150390625 l 2
 323.25 742.391601562 324.2578125 743.400390625 325.5 743.400390625 c 2
303.900390625 367.200195312 m 0
 251.127929688 367.200195312 209.849609375 325.921875 209.849609375 273.150390625 c 0
 209.849609375 221.293945312 251.118164062 180 303.900390625 180 c 0
 310.53125 180 317.00390625 180.674804688 323.25 181.9609375 c 1
 323.25 365.237304688 l 1
 317.00390625 366.524414062 310.53125 367.200195312 303.900390625 367.200195312 c 0
303.900390625 175.5 m 0
 248.681640625 175.5 205.349609375 218.805664062 205.349609375 273.150390625 c 0
 205.349609375 328.377929688 248.671875 371.700195312 303.900390625 371.700195312 c 0
 311.494140625 371.700195312 318.890625 370.854492188 325.997070312 369.248046875 c 0
 327 369.021484375 327.75 368.124023438 327.75 367.052734375 c 2
 327.75 180.14453125 l 2
 327.75 179.073242188 327 178.17578125 325.997070312 177.94921875 c 0
 318.890625 176.345703125 311.494140625 175.5 303.900390625 175.5 c 0
EndSplineSet
EndChar

StartChar: e
Encoding: 101 101 68
Width: 617
VWidth: 0
Flags: HW
HStem: 28.75 135.9<249.616 531.465> 210.838 116.047<238.121 379.388> 356.35 135.9<249.264 366.34>
VStem: 75.85 465.3<213.419 323.78>
LayerCount: 2
Fore
SplineSet
538.892578125 215.482421875 m 1
 538.794921875 229.8984375 538 244.961914062 538 260.049804688 c 0
 538 387.50390625 434.61328125 490 308.049804688 490 c 0
 180.587890625 490 78.099609375 387.51171875 78.099609375 260.049804688 c 0
 78.099609375 133.495117188 180.583984375 31 308.049804688 31 c 0
 319.991210938 31 506.606445312 31.904296875 529.900390625 33.4931640625 c 1
 529.900390625 169.055664062 l 1
 501.555664062 164.526367188 320.747070312 162.400390625 308.049804688 162.400390625 c 0
 271.631835938 162.400390625 240.36328125 181.234375 223.305664062 209.68359375 c 0
 223.103515625 210.021484375 222.986328125 210.416015625 222.986328125 210.838867188 c 0
 222.986328125 212.07421875 223.985351562 213.079101562 225.219726562 213.088867188 c 2
 538.892578125 215.482421875 l 1
542.5 260.049804688 m 0
 542.5 244.399414062 543.400390625 228.24609375 543.400390625 213.25 c 0
 543.400390625 212.013671875 542.401367188 211.009765625 541.16796875 211 c 2
 229.291015625 208.619140625 l 1
 245.936523438 183.40625 274.682617188 166.900390625 308.049804688 166.900390625 c 0
 320.8515625 166.900390625 520.9609375 169.958007812 531.34375 173.951171875 c 0
 531.59375 174.046875 531.866210938 174.099609375 532.150390625 174.099609375 c 0
 533.391601562 174.099609375 534.400390625 173.091796875 534.400390625 171.849609375 c 2
 534.400390625 31.4501953125 l 2
 534.400390625 30.3251953125 533.573242188 29.392578125 532.494140625 29.2265625 c 0
 520.1484375 27.3271484375 320.766601562 26.5 308.049804688 26.5 c 0
 178.116210938 26.5 73.599609375 131.004882812 73.599609375 260.049804688 c 0
 73.599609375 389.98828125 178.112304688 494.5 308.049804688 494.5 c 0
 437.086914062 494.5 542.5 389.99609375 542.5 260.049804688 c 0
391.9765625 293.057617188 m 1
 369.75 318.61328125 339.698242188 361.389648438 307.874023438 361.389648438 c 0
 276.615234375 361.389648438 247.432617188 319.514648438 225.548828125 295.241210938 c 1
 391.9765625 293.057617188 l 1
307.874023438 365.889648438 m 0
 344.879882812 365.889648438 375.290039062 317.947265625 398.708007812 292.255859375 c 0
 399.073242188 291.856445312 399.294921875 291.32421875 399.294921875 290.741210938 c 0
 399.294921875 289.5 398.287109375 288.491210938 397.015625 288.491210938 c 2
 220.432617188 290.80859375 l 2
 219.204101562 290.82421875 218.212890625 291.826171875 218.212890625 293.05859375 c 0
 218.212890625 293.66015625 218.44921875 294.20703125 218.834960938 294.611328125 c 0
 242.084960938 318.966796875 271.4453125 365.889648438 307.874023438 365.889648438 c 0
EndSplineSet
EndChar

StartChar: f
Encoding: 102 102 69
Width: 512
VWidth: 0
Flags: HW
HStem: 35.2 18.9G<156.2 306.5> 361 136.8<70.7 157.894 306.5 393.8> 586.9 135.9<321.657 438.399>
VStem: 156.2 150.3<35.2 361 497.8 568.107>
LayerCount: 2
Fore
SplineSet
379.400390625 720.549804688 m 0
 274.344726562 720.549804688 188.87890625 651.215820312 161.1484375 554.177734375 c 1
 160.85546875 497.788085938 l 2
 160.848632812 496.551757812 159.842773438 495.549804688 158.60546875 495.549804688 c 2
 72.9501953125 495.549804688 l 1
 72.9501953125 363.25 l 1
 157.893554688 363.25 l 2
 159.135742188 363.25 160.143554688 362.2421875 160.143554688 361 c 2
 158.461914062 37.4501953125 l 1
 304.25 37.4501953125 l 1
 304.25 361 l 2
 304.25 362.2421875 305.2578125 363.25 306.5 363.25 c 2
 391.549804688 363.25 l 1
 391.549804688 495.549804688 l 1
 306.5 495.549804688 l 2
 305.2578125 495.549804688 304.25 496.55859375 304.25 497.799804688 c 2
 304.25 553.599609375 l 2
 304.25 554.1640625 304.458007812 554.6796875 304.801757812 555.075195312 c 0
 323.19921875 576.232421875 349.03515625 589.150390625 379.400390625 589.150390625 c 0
 402.548828125 589.150390625 424.076171875 581.17578125 441.049804688 568.190429688 c 1
 441.049804688 712.955078125 l 1
 421.086914062 718.020507812 401.106445312 720.549804688 379.400390625 720.549804688 c 0
445.549804688 714.700195312 m 2
 445.549804688 563.5 l 2
 445.549804688 562.2578125 444.541992188 561.25 443.299804688 561.25 c 0
 442.749023438 561.25 442.243164062 561.448242188 441.8515625 561.778320312 c 0
 425.141601562 575.850585938 403.135742188 584.650390625 379.400390625 584.650390625 c 0
 350.666992188 584.650390625 326.3125 572.622070312 308.75 552.75390625 c 1
 308.75 500.049804688 l 1
 393.799804688 500.049804688 l 2
 395.041992188 500.049804688 396.049804688 499.041992188 396.049804688 497.799804688 c 2
 396.049804688 361 l 2
 396.049804688 359.7578125 395.041992188 358.75 393.799804688 358.75 c 2
 308.75 358.75 l 1
 308.75 35.2001953125 l 2
 308.75 33.9580078125 307.7421875 32.9501953125 306.5 32.9501953125 c 2
 156.200195312 32.9501953125 l 2
 154.958007812 32.9501953125 153.950195312 33.9580078125 153.950195312 35.2001953125 c 2
 155.631835938 358.75 l 1
 70.7001953125 358.75 l 2
 69.4580078125 358.75 68.4501953125 359.7578125 68.4501953125 361 c 2
 68.4501953125 497.799804688 l 2
 68.4501953125 499.041992188 69.4580078125 500.049804688 70.7001953125 500.049804688 c 2
 156.3671875 500.049804688 l 1
 156.650390625 554.51171875 l 2
 156.651367188 554.721679688 156.680664062 554.923828125 156.735351562 555.116210938 c 0
 184.893554688 654.125 272.162109375 725.049804688 379.400390625 725.049804688 c 0
 402.083984375 725.049804688 422.9921875 722.323242188 443.869140625 716.876953125 c 0
 444.8359375 716.625 445.549804688 715.745117188 445.549804688 714.700195312 c 2
EndSplineSet
EndChar

StartChar: g
Encoding: 103 103 70
Width: 620
VWidth: 0
Flags: HW
HStem: -168.85 135.9<147.367 390.539> 463.85 18G<307.667 308.336 311.33 376>
VStem: 75.9999 135.9<193.085 306.754> 408.1 135.9<-14.157 39.0189 191.993 308.021>
LayerCount: 2
Fore
SplineSet
288.400390625 341 m 0
 287.912109375 341 287.4609375 341.155273438 287.091796875 341.418945312 c 0
 244.836914062 332.086914062 214.150390625 295.154296875 214.150390625 249.650390625 c 0
 214.150390625 204.9375 244.825195312 168.099609375 287.08984375 158.778320312 c 0
 287.458984375 159.043945312 287.911132812 159.200195312 288.400390625 159.200195312 c 0
 288.588867188 159.200195312 288.771484375 159.176757812 288.946289062 159.1328125 c 0
 295.40625 157.518554688 302.672851562 156.638671875 309.998046875 156.515625 c 0
 317.275390625 156.643554688 324.274414062 157.584960938 331.061523438 159.25390625 c 0
 331.234375 159.295898438 331.4140625 159.318359375 331.599609375 159.318359375 c 0
 332.142578125 159.318359375 332.640625 159.125976562 333.030273438 158.805664062 c 0
 375.232421875 168.168945312 405.849609375 204.979492188 405.849609375 249.650390625 c 0
 405.849609375 295.110351562 375.22265625 332.015625 333.030273438 341.392578125 c 0
 332.641601562 341.071289062 332.143554688 340.877929688 331.599609375 340.877929688 c 0
 331.4140625 340.877929688 331.233398438 340.900390625 331.060546875 340.943359375 c 0
 324.2734375 342.614257812 317.196289062 343.556640625 309.918945312 343.684570312 c 0
 302.59375 343.561523438 295.40625 342.681640625 288.946289062 341.067382812 c 0
 288.771484375 341.0234375 288.588867188 341 288.400390625 341 c 0
408.099609375 41.2685546875 m 0
 409.341796875 41.2685546875 410.349609375 40.2607421875 410.349609375 39.0185546875 c 2
 410.349609375 0.349609375 l 2
 410.349609375 -0.2138671875 410.141601562 -0.73046875 409.797851562 -1.125 c 0
 391.162109375 -22.5576171875 353.728515625 -35.2001953125 323.5 -35.2001953125 c 0
 300.298828125 -35.2001953125 170.147460938 -27.71484375 141.25 -13.56640625 c 1
 141.25 -158.950195312 l 1
 166.331054688 -163.89453125 301.755859375 -166.599609375 323.5 -166.599609375 c 0
 428.536132812 -166.599609375 511.3203125 -97.298828125 539.053710938 -0.2216796875 c 1
 541.677734375 243.814453125 l 2
 541.725585938 245.743164062 541.75 247.709960938 541.75 249.650390625 c 0
 541.75 249.947265625 541.75 250.244140625 541.75 250.541015625 c 0
 541.2734375 377.58984375 438.96484375 479.599609375 311.799804688 479.599609375 c 0
 310.598632812 479.599609375 309.397460938 479.599609375 308.196289062 479.599609375 c 0
 302.693359375 479.599609375 297.659179688 479.502929688 292.30078125 479.065429688 c 0
 172.338867188 470.944335938 78.25 371.7578125 78.25 249.650390625 c 0
 78.25 128 145.100585938 29.498046875 264.252929688 21.4951171875 c 0
 267.609375 21.26953125 291.428710938 20.666015625 301.321289062 20.63671875 c 2
 305.015625 20.62109375 l 2
 306.068359375 20.607421875 307.143554688 20.599609375 308.200195312 20.599609375 c 0
 309.400390625 20.599609375 310.600585938 20.599609375 311.80078125 20.599609375 c 0
 345.87109375 20.599609375 378.154296875 27.9228515625 407.172851562 41.0693359375 c 0
 407.456054688 41.197265625 407.76953125 41.2685546875 408.099609375 41.2685546875 c 0
323.5 -171.099609375 m 0
 300.791992188 -171.099609375 159.9609375 -168.543945312 138.430664062 -162.927734375 c 0
 137.463867188 -162.674804688 136.75 -161.794921875 136.75 -160.75 c 2
 136.75 -9.5498046875 l 2
 136.75 -8.30859375 137.7578125 -7.2998046875 139 -7.2998046875 c 0
 139.55078125 -7.2998046875 140.056640625 -7.4990234375 140.448242188 -7.828125 c 0
 156.084960938 -20.99609375 299.325195312 -30.7001953125 323.5 -30.7001953125 c 0
 352.366210938 -30.7001953125 388.27734375 -18.404296875 405.849609375 1.2001953125 c 1
 405.849609375 35.5576171875 l 1
 377.090820312 23.0419921875 345.288085938 16.099609375 311.798828125 16.099609375 c 0
 310.599609375 16.099609375 309.399414062 16.099609375 308.200195312 16.099609375 c 0
 307.123046875 16.099609375 306.069335938 16.107421875 304.99609375 16.12109375 c 2
 301.307617188 16.13671875 l 2
 291.568359375 16.166015625 268.672851562 16.1435546875 263.813476562 17.0146484375 c 0
 141.849609375 25.2763671875 73.75 126.481445312 73.75 249.650390625 c 0
 73.75 374.126953125 169.630859375 475.271484375 291.930664062 483.549804688 c 0
 297.4921875 484.00390625 302.572265625 484.099609375 308.204101562 484.099609375 c 0
 309.40234375 484.099609375 310.6015625 484.099609375 311.799804688 484.099609375 c 0
 441.434570312 484.099609375 545.762695312 380.075195312 546.248046875 250.55859375 c 0
 546.248046875 250.255859375 546.248046875 249.953125 546.248046875 249.650390625 c 0
 546.248046875 247.671875 546.225585938 245.731445312 546.176757812 243.765625 c 2
 543.549804688 -0.57421875 l 2
 543.547851562 -0.779296875 543.517578125 -0.9775390625 543.46484375 -1.166015625 c 0
 515.31640625 -100.138671875 430.759765625 -171.099609375 323.5 -171.099609375 c 0
331.599609375 346.245117188 m 0
 331.752929688 346.245117188 331.901367188 346.23046875 332.045898438 346.201171875 c 0
 377.270507812 337.098632812 410.349609375 297.905273438 410.349609375 249.650390625 c 0
 410.349609375 202.165039062 377.259765625 163.084960938 332.044921875 153.997070312 c 0
 331.901367188 153.967773438 331.751953125 153.953125 331.599609375 153.953125 c 0
 331.077148438 153.953125 330.595703125 154.131835938 330.213867188 154.431640625 c 0
 323.68359375 152.965820312 316.85546875 152.137695312 309.920898438 152.015625 c 0
 302.947265625 152.133789062 296.0234375 152.90234375 289.658203125 154.337890625 c 0
 289.298828125 154.094726562 288.866210938 153.953125 288.400390625 153.953125 c 0
 288.247070312 153.953125 288.098632812 153.967773438 287.955078125 153.997070312 c 0
 242.740234375 163.084960938 209.650390625 202.165039062 209.650390625 249.650390625 c 0
 209.650390625 297.905273438 242.729492188 337.098632812 287.954101562 346.201171875 c 0
 288.098632812 346.23046875 288.247070312 346.245117188 288.400390625 346.245117188 c 0
 288.865234375 346.245117188 289.297851562 346.103515625 289.657226562 345.861328125 c 0
 296.034179688 347.297851562 303.025390625 348.06640625 309.999023438 348.184570312 c 0
 316.93359375 348.061523438 323.6953125 347.234375 330.212890625 345.766601562 c 0
 330.595703125 346.06640625 331.077148438 346.245117188 331.599609375 346.245117188 c 0
EndSplineSet
EndChar

StartChar: h
Encoding: 104 104 71
Width: 597
VWidth: 0
Flags: HW
HStem: 374.4 135.9<239.941 356.693>
VStem: 74.85 152.1<44.1 358.979 499.5 729.9> 371.85 150.3<44.1 355.607>
LayerCount: 2
Fore
SplineSet
224.700195312 727.650390625 m 1
 77.099609375 727.650390625 l 1
 77.099609375 46.349609375 l 1
 224.700195312 46.349609375 l 1
 224.700195312 342.900390625 l 2
 224.700195312 343.482421875 224.921875 344.012695312 225.28515625 344.413085938 c 0
 243.703125 364.672851562 269.522460938 376.650390625 298.950195312 376.650390625 c 0
 329.314453125 376.650390625 355.150390625 363.732421875 373.547851562 342.575195312 c 0
 373.891601562 342.1796875 374.099609375 341.6640625 374.099609375 341.099609375 c 2
 374.099609375 46.349609375 l 1
 519.879882812 46.349609375 l 1
 517.203125 341.673828125 l 1
 489.473632812 438.713867188 404.006835938 508.049804688 298.950195312 508.049804688 c 0
 273.969726562 508.049804688 250.810546875 504.487304688 227.611328125 497.348632812 c 0
 227.40234375 497.284179688 227.180664062 497.25 226.950195312 497.25 c 0
 225.708007812 497.25 224.700195312 498.2578125 224.700195312 499.5 c 2
 224.700195312 727.650390625 l 1
74.849609375 732.150390625 m 2
 226.950195312 732.150390625 l 2
 228.19140625 732.150390625 229.200195312 731.141601562 229.200195312 729.900390625 c 2
 229.200195312 502.528320312 l 1
 251.8359375 509.206054688 274.576171875 512.549804688 298.950195312 512.549804688 c 0
 406.188476562 512.549804688 493.456054688 441.625 521.614257812 342.616210938 c 0
 521.66796875 342.426757812 521.698242188 342.2265625 521.700195312 342.020507812 c 2
 524.399414062 44.12109375 l 2
 524.399414062 42.8583984375 523.391601562 41.849609375 522.150390625 41.849609375 c 2
 371.849609375 41.849609375 l 2
 370.608398438 41.849609375 369.599609375 42.8583984375 369.599609375 44.099609375 c 2
 369.599609375 340.25390625 l 1
 352.038085938 360.122070312 327.68359375 372.150390625 298.950195312 372.150390625 c 0
 271.088867188 372.150390625 246.740234375 360.978515625 229.200195312 342.025390625 c 1
 229.200195312 44.099609375 l 2
 229.200195312 42.8583984375 228.19140625 41.849609375 226.950195312 41.849609375 c 2
 74.849609375 41.849609375 l 2
 73.6083984375 41.849609375 72.599609375 42.8583984375 72.599609375 44.099609375 c 2
 72.599609375 729.900390625 l 2
 72.599609375 731.141601562 73.6083984375 732.150390625 74.849609375 732.150390625 c 2
EndSplineSet
EndChar

